shantell--extrabold_Italic.ufo
<glyph name="exclam" format="2">
	<unicode hex="0021"/>
	<advance width="309"/>
	<outline>
		<contour>
			<point x="303.832685132" y="600" type="curve" smooth="yes" identifier="4Ha9c9qNOB"/>
			<point x="320.832685132" y="684"/>
			<point x="288.832685132" y="718"/>
			<point x="226.832685132" y="718" type="curve" smooth="yes"/>
			<point x="174.832685132" y="718"/>
			<point x="151.832685132" y="684"/>
			<point x="144.832685132" y="639" type="curve" smooth="yes"/>
			<point x="132.832685132" y="571"/>
			<point x="114.832685132" y="513"/>
			<point x="103.832685132" y="461" type="curve" smooth="yes" identifier="OmjTrJ0Tzg"/>
			<point x="90.832685132" y="397"/>
			<point x="87.832685132" y="358"/>
			<point x="86.832685132" y="302" type="curve" smooth="yes"/>
			<point x="87.832685132" y="256"/>
			<point x="114.832685132" y="236"/>
			<point x="161.832685132" y="236" type="curve" smooth="yes"/>
			<point x="204.832685132" y="236"/>
			<point x="237.832685132" y="264"/>
			<point x="248.832685132" y="322" type="curve" smooth="yes" identifier="Ap0IJQ2I8O"/>
			<point x="256.832685132" y="361"/>
			<point x="263.832685132" y="425"/>
			<point x="275.832685132" y="487" type="curve" smooth="yes" identifier="UK5f9fh9SV"/>
			<point x="284.832685132" y="531"/>
			<point x="297.832685132" y="568"/>
		</contour>
		<contour>
			<point x="117.832685132" y="-13" type="curve" smooth="yes"/>
			<point x="174.832685132" y="-13"/>
			<point x="210.832685132" y="14"/>
			<point x="218.832685132" y="57" type="curve" smooth="yes" identifier="CGJJVR6LlM"/>
			<point x="229.832685132" y="112"/>
			<point x="202.832685132" y="165"/>
			<point x="120.832685132" y="165" type="curve" smooth="yes"/>
			<point x="67.832685132" y="165"/>
			<point x="25.832685132" y="136"/>
			<point x="13.832685132" y="76" type="curve" smooth="yes" identifier="ElLMsUWZie"/>
			<point x="2.832685132" y="19"/>
			<point x="41.832685132" y="-13"/>
		</contour>
	</outline>
</glyph>
<glyph name="quotedbl" format="2">
	<unicode hex="0022"/>
	<advance width="548"/>
	<outline>
		<contour>
			<point x="147.614" y="347" type="curve" smooth="yes"/>
			<point x="187.614" y="347"/>
			<point x="219.614" y="368"/>
			<point x="240.614" y="407" type="curve" smooth="yes"/>
			<point x="286.615" y="488"/>
			<point x="313.615" y="582"/>
			<point x="312.615" y="647" type="curve" smooth="yes"/>
			<point x="312.615" y="684"/>
			<point x="285.615" y="715"/>
			<point x="228.614" y="715" type="curve" smooth="yes"/>
			<point x="175.614" y="715"/>
			<point x="141.614" y="677"/>
			<point x="136.614" y="621" type="curve" smooth="yes"/>
			<point x="132.614" y="569"/>
			<point x="110.615" y="505"/>
			<point x="86.615" y="461" type="curve" smooth="yes"/>
			<point x="62.614" y="416"/>
			<point x="90.615" y="347"/>
		</contour>
		<contour>
			<point x="414.615" y="347" type="curve" smooth="yes"/>
			<point x="452.615" y="347"/>
			<point x="483.615" y="368"/>
			<point x="504.615" y="407" type="curve" smooth="yes"/>
			<point x="549.615" y="488"/>
			<point x="578.615" y="586"/>
			<point x="577.615" y="651" type="curve" smooth="yes"/>
			<point x="576.615" y="688"/>
			<point x="550.615" y="715"/>
			<point x="495.615" y="715" type="curve" smooth="yes"/>
			<point x="441.615" y="715"/>
			<point x="413.615" y="678"/>
			<point x="403.615" y="621" type="curve" smooth="yes"/>
			<point x="395.615" y="568"/>
			<point x="372.615" y="505"/>
			<point x="349.615" y="445" type="curve" smooth="yes"/>
			<point x="328.615" y="389"/>
			<point x="358.615" y="347"/>
		</contour>
	</outline>
</glyph>
<glyph name="numbersign" format="2">
	<unicode hex="0023"/>
	<advance width="1004"/>
	<outline>
		<contour>
			<point x="615.0997968527" y="710" type="curve" smooth="yes" identifier="sLDXMWRHgS"/>
			<point x="627.0997968527" y="770"/>
			<point x="588.0997968527" y="821"/>
			<point x="531.0997968527" y="820" type="curve" smooth="yes"/>
			<point x="483.0997968527" y="819"/>
			<point x="450.0997968527" y="788"/>
			<point x="436.0997968527" y="722" type="curve" smooth="yes" identifier="Ex8qgUIN78"/>
			<point x="405.0997968527" y="566"/>
			<point x="113.0997968527" y="147"/>
			<point x="80.0997968527" y="-21" type="curve" smooth="yes" identifier="jirj18RaZp"/>
			<point x="64.0997968527" y="-98"/>
			<point x="101.0997968527" y="-137"/>
			<point x="154.0997968527" y="-138" type="curve" smooth="yes"/>
			<point x="196.0997968527" y="-139"/>
			<point x="246.0997968527" y="-100"/>
			<point x="256.0997968527" y="-50" type="curve" smooth="yes" identifier="9FJ2w81Nr0"/>
			<point x="292.0997968527" y="130"/>
			<point x="582.0997968527" y="547"/>
		</contour>
		<contour>
			<point x="860.0997968527" y="769" type="curve" smooth="yes"/>
			<point x="815.0997968527" y="769"/>
			<point x="788.0997968527" y="739"/>
			<point x="778.0997968527" y="688" type="curve" smooth="yes" identifier="indVG3Uev2"/>
			<point x="745.0997968527" y="525"/>
			<point x="476.0997968527" y="183"/>
			<point x="417.0997968527" y="-85" type="curve" smooth="yes"/>
			<point x="405.0997968527" y="-142"/>
			<point x="437.0997968527" y="-187"/>
			<point x="500.0997968527" y="-188" type="curve" smooth="yes"/>
			<point x="545.0997968527" y="-189"/>
			<point x="584.0997968527" y="-158"/>
			<point x="596.0997968527" y="-101" type="curve" smooth="yes" identifier="HYQ4CBl5Px"/>
			<point x="650.0997968527" y="171"/>
			<point x="922.0997968527" y="520"/>
			<point x="951.0997968527" y="665" type="curve" smooth="yes" identifier="qwCBSBSENq"/>
			<point x="964.0997968527" y="728"/>
			<point x="916.0997968527" y="769"/>
		</contour>
		<contour>
			<point x="113.0997968527" y="254" type="curve" smooth="yes"/>
			<point x="63.0997968527" y="254"/>
			<point x="15.0997968527" y="219"/>
			<point x="4.0997968527" y="176" type="curve" smooth="yes"/>
			<point x="-10.9002031473" y="117"/>
			<point x="12.0997968527" y="58"/>
			<point x="126.0997968527" y="58" type="curve" smooth="yes"/>
			<point x="300.0997968527" y="58"/>
			<point x="596.0997968527" y="110"/>
			<point x="795.0997968527" y="115" type="curve" smooth="yes"/>
			<point x="900.0997968527" y="119"/>
			<point x="955.0997968527" y="174"/>
			<point x="964.0997968527" y="228" type="curve" smooth="yes"/>
			<point x="970.0997968527" y="266"/>
			<point x="953.0997968527" y="287"/>
			<point x="894.0997968527" y="287" type="curve" smooth="yes"/>
			<point x="651.0997968527" y="287"/>
			<point x="356.0997968527" y="254"/>
		</contour>
		<contour>
			<point x="297.0997968527" y="613" type="curve" smooth="yes"/>
			<point x="235.0997968527" y="613"/>
			<point x="203.0997968527" y="581"/>
			<point x="194.0997968527" y="536" type="curve" smooth="yes" identifier="0yjP4Rwo2D"/>
			<point x="185.0997968527" y="491"/>
			<point x="198.0997968527" y="437"/>
			<point x="309.0997968527" y="425" type="curve" smooth="yes"/>
			<point x="474.0997968527" y="405"/>
			<point x="674.0997968527" y="398"/>
			<point x="904.0997968527" y="398" type="curve" smooth="yes"/>
			<point x="970.0997968527" y="398"/>
			<point x="1018.0997968527" y="444"/>
			<point x="1026.0997968527" y="491" type="curve" smooth="yes"/>
			<point x="1034.0997968527" y="535"/>
			<point x="1013.0997968527" y="559"/>
			<point x="966.0997968527" y="559" type="curve" smooth="yes"/>
			<point x="420.0997968527" y="559"/>
			<point x="388.0997968527" y="613"/>
		</contour>
	</outline>
</glyph>
<glyph name="dollar" format="2">
	<unicode hex="0024"/>
	<advance width="700"/>
	<outline>
		<contour>
			<point x="247.7494217265" y="-9" type="curve" smooth="yes"/>
			<point x="479.7494217265" y="-9"/>
			<point x="605.7494217265" y="47"/>
			<point x="632.7494217265" y="179" type="curve" smooth="yes" identifier="7OHWwRzAJ8"/>
			<point x="678.7494217265" y="409"/>
			<point x="254.7494217265" y="390"/>
			<point x="266.7494217265" y="451" type="curve" smooth="yes" identifier="x5Zp4NgOrG"/>
			<point x="277.7494217265" y="504"/>
			<point x="394.7494217265" y="529"/>
			<point x="624.7494217265" y="540" type="curve" smooth="yes"/>
			<point x="672.7494217265" y="542"/>
			<point x="708.7494217265" y="576"/>
			<point x="716.7494217265" y="615" type="curve" smooth="yes" identifier="HnfiZUeMd8"/>
			<point x="726.7494217265" y="664"/>
			<point x="707.7494217265" y="710"/>
			<point x="622.7494217265" y="710" type="curve" smooth="yes"/>
			<point x="470.7494217265" y="710"/>
			<point x="123.7494217265" y="639"/>
			<point x="86.7494217265" y="455" type="curve" smooth="yes" identifier="O522AZppfy"/>
			<point x="44.7494217265" y="243"/>
			<point x="461.7494217265" y="279"/>
			<point x="462.7494217265" y="172" type="curve"/>
			<point x="391.7494217265" y="158"/>
			<point x="352.7494217265" y="158"/>
			<point x="256.7494217265" y="158" type="curve" smooth="yes"/>
			<point x="167.7494217265" y="158"/>
			<point x="151.7494217265" y="185"/>
			<point x="109.7494217265" y="185" type="curve" smooth="yes"/>
			<point x="59.7494217265" y="185"/>
			<point x="43.7494217265" y="164"/>
			<point x="36.7494217265" y="129" type="curve" smooth="yes" identifier="JmFLRhMpTL"/>
			<point x="22.7494217265" y="59"/>
			<point x="92.7494217265" y="-9"/>
		</contour>
		<contour>
			<point x="370.7494217265" y="300" type="curve" smooth="yes"/>
			<point x="402.7494217265" y="300"/>
			<point x="424.7494217265" y="322"/>
			<point x="440.7494217265" y="356" type="curve" smooth="yes"/>
			<point x="492.7494217265" y="473"/>
			<point x="541.7494217265" y="636"/>
			<point x="540.7494217265" y="750" type="curve" smooth="yes"/>
			<point x="538.7494217265" y="785"/>
			<point x="507.7494217265" y="811"/>
			<point x="467.7494217265" y="811" type="curve" smooth="yes"/>
			<point x="417.7494217265" y="811"/>
			<point x="367.7494217265" y="765"/>
			<point x="365.7494217265" y="717" type="curve" smooth="yes"/>
			<point x="362.7494217265" y="630"/>
			<point x="351.7494217265" y="511"/>
			<point x="329.7494217265" y="403" type="curve" smooth="yes"/>
			<point x="314.7494217265" y="336"/>
			<point x="315.7494217265" y="299"/>
		</contour>
		<contour>
			<point x="359.7494217265" y="340" type="curve" smooth="yes"/>
			<point x="326.7494217265" y="340"/>
			<point x="296.7494217265" y="320"/>
			<point x="281.7494217265" y="278" type="curve" smooth="yes"/>
			<point x="225.7494217265" y="128"/>
			<point x="206.7494217265" y="64"/>
			<point x="195.7494217265" y="-65" type="curve" smooth="yes"/>
			<point x="193.7494217265" y="-97"/>
			<point x="221.7494217265" y="-138"/>
			<point x="291.7494217265" y="-138" type="curve" smooth="yes"/>
			<point x="328.7494217265" y="-138"/>
			<point x="350.7494217265" y="-113"/>
			<point x="361.7494217265" y="-51" type="curve" smooth="yes"/>
			<point x="374.7494217265" y="42"/>
			<point x="384.7494217265" y="159"/>
			<point x="400.7494217265" y="245" type="curve" smooth="yes"/>
			<point x="410.7494217265" y="305"/>
			<point x="396.7494217265" y="340"/>
		</contour>
	</outline>
</glyph>
<glyph name="percent" format="2">
  <advance width="995"/>
  <unicode hex="0025"/>
  <outline>
    <contour>
      <point x="828.894" y="523" type="curve" smooth="yes"/>
      <point x="936.894" y="606"/>
      <point x="928.894" y="715"/>
      <point x="858.894" y="715" type="curve" smooth="yes"/>
      <point x="829.894" y="715"/>
      <point x="794.894" y="702"/>
      <point x="749.894" y="666" type="curve" smooth="yes"/>
      <point x="593.894" y="543"/>
      <point x="373.894" y="331"/>
      <point x="205.894" y="119" type="curve" smooth="yes"/>
      <point x="154.894" y="57"/>
      <point x="187.894" y="-21"/>
      <point x="248.894" y="-21" type="curve" smooth="yes"/>
      <point x="280.894" y="-21"/>
      <point x="311.894" y="-1"/>
      <point x="340.894" y="37" type="curve" smooth="yes"/>
      <point x="500.894" y="243"/>
      <point x="647.894" y="384"/>
    </contour>
    <contour>
      <point x="277" y="347" type="curve" smooth="yes"/>
      <point x="379.365" y="347"/>
      <point x="474.183" y="419.226"/>
      <point x="493" y="516" type="curve" smooth="yes"/>
      <point x="516.386" y="634.042"/>
      <point x="455.65" y="708"/>
      <point x="327" y="708" type="curve" smooth="yes"/>
      <point x="278.238" y="708"/>
      <point x="243.865" y="674.846"/>
      <point x="234.894" y="628" type="curve" smooth="yes"/>
      <point x="223.894" y="575"/>
      <point x="260.894" y="556"/>
      <point x="306.894" y="556" type="curve" smooth="yes"/>
      <point x="320.894" y="556"/>
      <point x="327.894" y="547"/>
      <point x="325.894" y="534" type="curve" smooth="yes"/>
      <point x="321.894" y="517"/>
      <point x="308.894" y="504"/>
      <point x="293.894" y="504" type="curve" smooth="yes"/>
      <point x="275.894" y="504"/>
      <point x="265.894" y="514"/>
      <point x="268.894" y="529" type="curve" smooth="yes"/>
      <point x="270.894" y="538"/>
      <point x="280.894" y="553"/>
      <point x="304.894" y="567" type="curve" smooth="yes"/>
      <point x="331.894" y="581"/>
      <point x="353.894" y="611"/>
      <point x="359.894" y="638" type="curve" smooth="yes"/>
      <point x="367.954" y="679.306"/>
      <point x="339.72" y="716"/>
      <point x="297" y="716" type="curve" smooth="yes"/>
      <point x="200.72" y="716"/>
      <point x="113.893" y="638.574"/>
      <point x="95" y="546" type="curve" smooth="yes"/>
      <point x="71.837" y="430.183"/>
      <point x="148.345" y="347"/>
    </contour>
    <contour>
      <point x="722" y="-13" type="curve" smooth="yes"/>
      <point x="832.863" y="-13"/>
      <point x="920.504" y="52.37"/>
      <point x="940" y="149" type="curve" smooth="yes"/>
      <point x="966.541" y="282.86"/>
      <point x="901.106" y="368"/>
      <point x="766" y="368" type="curve" smooth="yes"/>
      <point x="716.283" y="368"/>
      <point x="681.866" y="340.851"/>
      <point x="672.894" y="293" type="curve" smooth="yes"/>
      <point x="660.894" y="234"/>
      <point x="685.894" y="216"/>
      <point x="725.894" y="216" type="curve" smooth="yes"/>
      <point x="759.894" y="216"/>
      <point x="778.894" y="199"/>
      <point x="773.894" y="173" type="curve" smooth="yes"/>
      <point x="769.894" y="157"/>
      <point x="755.894" y="144"/>
      <point x="738.894" y="144" type="curve" smooth="yes"/>
      <point x="719.894" y="144"/>
      <point x="710.894" y="156"/>
      <point x="713.894" y="169" type="curve" smooth="yes"/>
      <point x="717.894" y="188"/>
      <point x="731.894" y="202"/>
      <point x="766.894" y="208" type="curve" smooth="yes"/>
      <point x="783.894" y="211"/>
      <point x="796.894" y="238"/>
      <point x="804.894" y="278" type="curve" smooth="yes"/>
      <point x="811.939" y="315.24"/>
      <point x="786.117" y="336"/>
      <point x="738" y="336" type="curve" smooth="yes"/>
      <point x="655.07" y="336"/>
      <point x="562.746" y="274.567"/>
      <point x="546" y="190" type="curve" smooth="yes"/>
      <point x="523.948" y="79.739"/>
      <point x="579.808" y="-13"/>
    </contour>
  </outline>
</glyph>
<glyph name="ampersand" format="2">
	<unicode hex="0026"/>
	<advance width="713"/>
	<outline>
		<contour>
			<point x="532" y="512" type="curve" smooth="yes"/>
			<point x="582.358" y="512"/>
			<point x="617" y="542"/>
			<point x="624" y="583" type="curve" smooth="yes"/>
			<point x="631" y="619"/>
			<point x="617" y="654"/>
			<point x="583" y="671" type="curve" smooth="yes"/>
			<point x="532" y="697"/>
			<point x="477.759" y="710"/>
			<point x="383" y="710" type="curve" smooth="yes"/>
			<point x="210.268" y="710"/>
			<point x="110.023" y="622.118"/>
			<point x="91" y="526" type="curve" smooth="yes"/>
			<point x="75" y="443"/>
			<point x="87" y="356"/>
			<point x="257" y="263" type="curve" smooth="yes"/>
			<point x="456" y="154"/>
			<point x="484.852" y="104.21"/>
			<point x="473" y="41" type="curve" smooth="yes"/>
			<point x="458.353" y="-28.854"/>
			<point x="408" y="-29"/>
			<point x="396" y="-90" type="curve" smooth="yes"/>
			<point x="387" y="-135"/>
			<point x="413" y="-166"/>
			<point x="459" y="-166" type="curve" smooth="yes"/>
			<point x="560" y="-166"/>
			<point x="615" y="-69"/>
			<point x="631" y="11" type="curve" smooth="yes"/>
			<point x="655" y="132"/>
			<point x="646.173" y="239.825"/>
			<point x="411" y="367" type="curve" smooth="yes"/>
			<point x="264.022" y="444.409"/>
			<point x="254.007" y="466.031"/>
			<point x="260" y="494" type="curve" smooth="yes"/>
			<point x="266" y="522"/>
			<point x="304" y="540"/>
			<point x="368" y="540" type="curve" smooth="yes"/>
			<point x="460" y="540"/>
			<point x="486" y="512"/>
		</contour>
		<contour>
			<point x="259.109" y="284" type="curve" smooth="yes"/>
			<point x="280.109" y="306"/>
			<point x="284.109" y="350"/>
			<point x="268.109" y="364" type="curve" smooth="yes"/>
			<point x="240.109" y="389"/>
			<point x="204.109" y="385"/>
			<point x="164.109" y="362" type="curve" smooth="yes"/>
			<point x="105.213" y="327.802"/>
			<point x="52.06" y="279.625"/>
			<point x="36" y="202" type="curve" smooth="yes"/>
			<point x="9.482" y="69.412"/>
			<point x="101.006" y="-10"/>
			<point x="228" y="-10" type="curve" smooth="yes"/>
			<point x="359.177" y="-10"/>
			<point x="448.673" y="37.352"/>
			<point x="656" y="283" type="curve" smooth="yes"/>
			<point x="684" y="317"/>
			<point x="697" y="348"/>
			<point x="700.109" y="362" type="curve" smooth="yes"/>
			<point x="711" y="419"/>
			<point x="676.109" y="455"/>
			<point x="631.109" y="455" type="curve" smooth="yes"/>
			<point x="598.836" y="455"/>
			<point x="579.045" y="438.76"/>
			<point x="557" y="409" type="curve" smooth="yes"/>
			<point x="421.632" y="233.414"/>
			<point x="340.677" y="151"/>
			<point x="255.109" y="151" type="curve" smooth="yes"/>
			<point x="225.109" y="151"/>
			<point x="200.109" y="168"/>
			<point x="206.109" y="202" type="curve" smooth="yes"/>
			<point x="212.109" y="231"/>
			<point x="224.109" y="248"/>
		</contour>
	</outline>
</glyph>
<glyph name="quotesingle" format="2">
	<unicode hex="0027"/>
	<advance width="281"/>
	<outline>
		<contour>
			<point x="147.196863458" y="347" type="curve" smooth="yes"/>
			<point x="185.196863458" y="347"/>
			<point x="216.196863458" y="368"/>
			<point x="237.196863458" y="407" type="curve" smooth="yes"/>
			<point x="283.196863458" y="489"/>
			<point x="311.196863458" y="584"/>
			<point x="310.196863458" y="650" type="curve" smooth="yes"/>
			<point x="308.196863458" y="685"/>
			<point x="284.196863458" y="715"/>
			<point x="232.196863458" y="715" type="curve" smooth="yes"/>
			<point x="180.196863458" y="715"/>
			<point x="140.196863458" y="678"/>
			<point x="137.196863458" y="625" type="curve" smooth="yes"/>
			<point x="135.196863458" y="570"/>
			<point x="110.196863458" y="507"/>
			<point x="86.196863458" y="461" type="curve" smooth="yes"/>
			<point x="63.196863458" y="415"/>
			<point x="90.196863458" y="347"/>
		</contour>
	</outline>
</glyph>
<glyph name="parenleft" format="2">
	<advance width="499"/>
	<unicode hex="0028"/>
	<outline>
		<contour>
			<point x="498" y="647" type="curve" smooth="yes"/>
			<point x="527" y="674"/>
			<point x="540" y="691"/>
			<point x="544" y="711" type="curve" smooth="yes"/>
			<point x="553" y="756"/>
			<point x="508" y="811"/>
			<point x="453" y="811" type="curve" smooth="yes"/>
			<point x="428" y="811"/>
			<point x="401" y="801"/>
			<point x="373" y="773" type="curve" smooth="yes"/>
			<point x="209" y="616"/>
			<point x="80" y="413"/>
			<point x="38" y="206" type="curve" smooth="yes"/>
			<point x="-11" y="-39"/>
			<point x="77.4165" y="-187"/>
			<point x="200.4165" y="-243" type="curve" smooth="yes"/>
			<point x="242.4165" y="-261"/>
			<point x="256.4165" y="-263"/>
			<point x="277.4165" y="-263" type="curve" smooth="yes"/>
			<point x="333" y="-263"/>
			<point x="377" y="-226"/>
			<point x="385" y="-178" type="curve" smooth="yes"/>
			<point x="392" y="-147"/>
			<point x="378" y="-134"/>
			<point x="337" y="-119" type="curve" smooth="yes"/>
			<point x="229" y="-80"/>
			<point x="179" y="27"/>
			<point x="210.4165" y="186" type="curve" smooth="yes"/>
			<point x="248" y="372"/>
			<point x="377" y="531"/>
		</contour>
	</outline>
</glyph>
<glyph name="parenright" format="2">
	<unicode hex="0029"/>
	<advance width="494"/>
	<outline>
		<contour>
			<point x="-8" y="-111" type="curve" smooth="yes"/>
			<point x="-41" y="-133"/>
			<point x="-54" y="-153"/>
			<point x="-59" y="-181" type="curve" smooth="yes"/>
			<point x="-70" y="-238"/>
			<point x="-9" y="-259"/>
			<point x="32" y="-259" type="curve" smooth="yes"/>
			<point x="71" y="-259"/>
			<point x="106" y="-248"/>
			<point x="146" y="-223" type="curve" smooth="yes"/>
			<point x="298.3551828805" y="-129.0146599114"/>
			<point x="399.8494887226" y="33.3096013242"/>
			<point x="440" y="237" type="curve" smooth="yes"/>
			<point x="488.3832258905" y="478.9161294524"/>
			<point x="429" y="684"/>
			<point x="297" y="779" type="curve" smooth="yes"/>
			<point x="266" y="802"/>
			<point x="244" y="812"/>
			<point x="204" y="812" type="curve" smooth="yes"/>
			<point x="160.3311902762" y="812"/>
			<point x="124.5608440139" y="783.6395365747"/>
			<point x="117" y="743" type="curve" smooth="yes"/>
			<point x="109.717692655" y="706.5884632751"/>
			<point x="124.8837045237" y="673.3511349817"/>
			<point x="164.34018" y="643" type="curve" smooth="yes"/>
			<point x="262.34018" y="568"/>
			<point x="307.34018" y="450"/>
			<point x="270.34018" y="267" type="curve" smooth="yes"/>
			<point x="239" y="108"/>
			<point x="155" y="-9"/>
		</contour>
	</outline>
</glyph>
<glyph name="asterisk" format="2">
	<unicode hex="002A"/>
	<advance width="516"/>
	<outline>
		<contour>
			<point x="321.3716361595" y="766" type="curve" smooth="yes"/>
			<point x="286.3716361595" y="766"/>
			<point x="268.3716361595" y="749"/>
			<point x="262.3716361595" y="721" type="curve" smooth="yes" identifier="MYngJ1zqEs"/>
			<point x="254.3716361595" y="680"/>
			<point x="284.3716361595" y="677"/>
			<point x="263.3716361595" y="570" type="curve" smooth="yes" identifier="Mxu2ljyo3B"/>
			<point x="248.3716361595" y="493"/>
			<point x="217.3716361595" y="367"/>
			<point x="218.3716361595" y="274" type="curve" smooth="yes"/>
			<point x="218.3716361595" y="246"/>
			<point x="233.3716361595" y="226"/>
			<point x="268.3716361595" y="226" type="curve" smooth="yes"/>
			<point x="316.3716361595" y="226"/>
			<point x="340.3716361595" y="254"/>
			<point x="341.3716361595" y="298" type="curve" smooth="yes"/>
			<point x="342.3716361595" y="385"/>
			<point x="369.3716361595" y="499"/>
			<point x="383.3716361595" y="570" type="curve" smooth="yes" identifier="OELLI6r9Fi"/>
			<point x="411.3716361595" y="708"/>
			<point x="379.3716361595" y="766"/>
		</contour>
		<contour>
			<point x="509.3716361595" y="596" type="curve" smooth="yes"/>
			<point x="523.3716361595" y="612"/>
			<point x="534.3716361595" y="628"/>
			<point x="538.3716361595" y="651" type="curve" smooth="yes" identifier="ZR2xx2izWY"/>
			<point x="544.3716361595" y="682"/>
			<point x="534.3716361595" y="708"/>
			<point x="498.3716361595" y="708" type="curve" smooth="yes"/>
			<point x="474.3716361595" y="708"/>
			<point x="455.3716361595" y="695"/>
			<point x="434.3716361595" y="671" type="curve" smooth="yes"/>
			<point x="375.3716361595" y="604"/>
			<point x="192.3716361595" y="505"/>
			<point x="115.3716361595" y="424" type="curve" smooth="yes"/>
			<point x="91.3716361595" y="399"/>
			<point x="87.3716361595" y="386"/>
			<point x="85.3716361595" y="375" type="curve" smooth="yes" identifier="JPahJYPDw3"/>
			<point x="79.3716361595" y="343"/>
			<point x="103.3716361595" y="314"/>
			<point x="135.3716361595" y="314" type="curve" smooth="yes"/>
			<point x="156.3716361595" y="314"/>
			<point x="171.3716361595" y="321"/>
			<point x="188.3716361595" y="341" type="curve" smooth="yes"/>
			<point x="272.3716361595" y="440"/>
			<point x="438.3716361595" y="519"/>
		</contour>
		<contour>
			<point x="192.3716361595" y="639" type="curve" smooth="yes"/>
			<point x="166.3716361595" y="654"/>
			<point x="157.3716361595" y="660"/>
			<point x="137.3716361595" y="660" type="curve" smooth="yes"/>
			<point x="109.3716361595" y="660"/>
			<point x="87.3716361595" y="644"/>
			<point x="80.3716361595" y="612" type="curve" smooth="yes" identifier="pdSSe5TsfL"/>
			<point x="76.3716361595" y="591"/>
			<point x="79.3716361595" y="559"/>
			<point x="113.3716361595" y="536" type="curve" smooth="yes"/>
			<point x="175.3716361595" y="496"/>
			<point x="312.3716361595" y="446"/>
			<point x="393.3716361595" y="398" type="curve" smooth="yes"/>
			<point x="427.3716361595" y="377"/>
			<point x="435.3716361595" y="373"/>
			<point x="454.3716361595" y="373" type="curve" smooth="yes"/>
			<point x="490.3716361595" y="373"/>
			<point x="512.3716361595" y="402"/>
			<point x="519.3716361595" y="434" type="curve" smooth="yes" identifier="m0EZQdecWx"/>
			<point x="524.3716361595" y="459"/>
			<point x="516.3716361595" y="478"/>
			<point x="498.3716361595" y="488" type="curve" smooth="yes"/>
			<point x="391.3716361595" y="552"/>
			<point x="256.3716361595" y="600"/>
		</contour>
	</outline>
</glyph>
<glyph name="plus" format="2">
  <advance width="700"/>
  <unicode hex="002B"/>
  <outline>
    <contour>
      <point x="477.157" y="480" type="curve" smooth="yes"/>
      <point x="497.157" y="578"/>
      <point x="465.157" y="618"/>
      <point x="400.157" y="618" type="curve" smooth="yes"/>
      <point x="351.157" y="618"/>
      <point x="330.157" y="588"/>
      <point x="323.157" y="543" type="curve" smooth="yes"/>
      <point x="298.157" y="395"/>
      <point x="252.157" y="296"/>
      <point x="230.157" y="116" type="curve" smooth="yes"/>
      <point x="223.157" y="53"/>
      <point x="254.157" y="24"/>
      <point x="298.157" y="24" type="curve" smooth="yes"/>
      <point x="344.157" y="24"/>
      <point x="378.157" y="52"/>
      <point x="390.157" y="110" type="curve" smooth="yes"/>
      <point x="403.157" y="174"/>
      <point x="453.157" y="359"/>
    </contour>
    <contour>
      <point x="569.157" y="274" type="curve" smooth="yes"/>
      <point x="623.157" y="274"/>
      <point x="643.157" y="298"/>
      <point x="649.157" y="332" type="curve" smooth="yes"/>
      <point x="661.157" y="389"/>
      <point x="622.157" y="425"/>
      <point x="543.157" y="425" type="curve" smooth="yes"/>
      <point x="425.157" y="425"/>
      <point x="280.157" y="416"/>
      <point x="155.157" y="389" type="curve" smooth="yes"/>
      <point x="82.157" y="373"/>
      <point x="62.157" y="341"/>
      <point x="54.157" y="301" type="curve" smooth="yes"/>
      <point x="45.157" y="255"/>
      <point x="64.157" y="216"/>
      <point x="114.157" y="216" type="curve" smooth="yes"/>
      <point x="188.157" y="216"/>
      <point x="274.157" y="274"/>
    </contour>
  </outline>
</glyph>
<glyph name="comma" format="2">
	<unicode hex="002C"/>
	<advance width="322"/>
	<outline>
		<contour>
			<point x="140.33679" y="204" type="curve" smooth="yes"/>
			<point x="86.33679" y="204"/>
			<point x="54.33679" y="168"/>
			<point x="43.33679" y="113" type="curve" smooth="yes"/>
			<point x="37.33679" y="86"/>
			<point x="33.33679" y="13"/>
			<point x="-10.66321" y="-64" type="curve" smooth="yes"/>
			<point x="-27.66321" y="-93"/>
			<point x="-34.66321" y="-112"/>
			<point x="-38.66321" y="-130" type="curve" smooth="yes"/>
			<point x="-44.66321" y="-162"/>
			<point x="-30.66321" y="-180"/>
			<point x="7.33679" y="-180" type="curve" smooth="yes"/>
			<point x="52.33679" y="-180"/>
			<point x="107.33679" y="-145"/>
			<point x="141.33679" y="-103" type="curve" smooth="yes"/>
			<point x="188.33679" y="-47"/>
			<point x="226.33679" y="29"/>
			<point x="240.33679" y="98" type="curve" smooth="yes"/>
			<point x="252.33679" y="161"/>
			<point x="214.33679" y="204"/>
		</contour>
	</outline>
</glyph>
<glyph name="hyphen" format="2">
  <advance width="531"/>
  <unicode hex="002D"/>
  <outline>
    <contour>
      <point x="189.315" y="176" type="curve" smooth="yes"/>
      <point x="222.315" y="176"/>
      <point x="277.315" y="186"/>
      <point x="423.315" y="186" type="curve" smooth="yes"/>
      <point x="454.315" y="186"/>
      <point x="476.315" y="207"/>
      <point x="483.315" y="240" type="curve" smooth="yes"/>
      <point x="491.315" y="281"/>
      <point x="462.315" y="349"/>
      <point x="343.315" y="349" type="curve" smooth="yes"/>
      <point x="260.315" y="349"/>
      <point x="179.315" y="349"/>
      <point x="90.315" y="323" type="curve" smooth="yes"/>
      <point x="60.315" y="315"/>
      <point x="51.315" y="301"/>
      <point x="47.315" y="279" type="curve" smooth="yes"/>
      <point x="37.315" y="229"/>
      <point x="84.315" y="176"/>
    </contour>
  </outline>
</glyph>
<glyph name="period" format="2">
	<unicode hex="002E"/>
	<advance width="329"/>
	<outline>
		<contour>
			<point x="132.3795622895" y="-16" type="curve" smooth="yes"/>
			<point x="196.3795622895" y="-16"/>
			<point x="236.3795622895" y="18"/>
			<point x="245.3795622895" y="65" type="curve" smooth="yes" identifier="9WvDsokBvt"/>
			<point x="258.3795622895" y="128"/>
			<point x="230.3795622895" y="197"/>
			<point x="126.3795622895" y="197" type="curve" smooth="yes"/>
			<point x="67.3795622895" y="197"/>
			<point x="25.3795622895" y="159"/>
			<point x="13.3795622895" y="101" type="curve" smooth="yes" identifier="iRV8Rgp5Ra"/>
			<point x="-2.6204377105" y="22"/>
			<point x="38.3795622895" y="-16"/>
		</contour>
	</outline>
</glyph>
<glyph name="slash" format="2">
	<unicode hex="002F"/>
	<advance width="455"/>
	<outline>
		<contour>
			<point x="508.3403250602" y="814" type="curve" smooth="yes"/>
			<point x="466.3403250602" y="814"/>
			<point x="427.3403250602" y="787"/>
			<point x="386.3403250602" y="729" type="curve" smooth="yes"/>
			<point x="252.3403250602" y="543"/>
			<point x="66.3403250602" y="177"/>
			<point x="-33.6596749398" y="-138" type="curve" smooth="yes"/>
			<point x="-52.6596749398" y="-202"/>
			<point x="-28.6596749398" y="-253"/>
			<point x="34.3403250602" y="-253" type="curve" smooth="yes"/>
			<point x="84.3403250602" y="-253"/>
			<point x="123.3403250602" y="-222"/>
			<point x="140.3403250602" y="-165" type="curve" smooth="yes"/>
			<point x="239.3403250602" y="150"/>
			<point x="370.3403250602" y="399"/>
			<point x="540.3403250602" y="646" type="curve" smooth="yes"/>
			<point x="604.3403250602" y="736"/>
			<point x="570.3403250602" y="813"/>
		</contour>
	</outline>
</glyph>
<glyph name="zero" format="2">
	<unicode hex="0030"/>
	<advance width="700"/>
	<outline>
		<contour>
			<point x="350.27407" y="487" type="curve" smooth="yes"/>
			<point x="372.27407" y="500"/>
			<point x="388.27407" y="528"/>
			<point x="392.27407" y="549" type="curve" smooth="yes"/>
			<point x="403.27407" y="603"/>
			<point x="388.27407" y="623"/>
			<point x="339.27407" y="623" type="curve" smooth="yes"/>
			<point x="267.2121500656" y="623"/>
			<point x="76" y="531"/>
			<point x="32" y="311" type="curve" smooth="yes"/>
			<point x="-8" y="116"/>
			<point x="97" y="-11"/>
			<point x="292" y="-11" type="curve" smooth="yes"/>
			<point x="455.6115107914" y="-11"/>
			<point x="650" y="101"/>
			<point x="703" y="370" type="curve" smooth="yes"/>
			<point x="743" y="568"/>
			<point x="676.6694214876" y="711"/>
			<point x="467" y="711" type="curve" smooth="yes"/>
			<point x="283" y="711"/>
			<point x="164.2469425575" y="611.8553203064"/>
			<point x="152.27407" y="548" type="curve" smooth="yes"/>
			<point x="144.27407" y="508"/>
			<point x="159.27407" y="446"/>
			<point x="226.27407" y="446" type="curve" smooth="yes"/>
			<point x="245.27407" y="446"/>
			<point x="268.27407" y="459"/>
			<point x="290.27407" y="475" type="curve" smooth="yes"/>
			<point x="334.27407" y="507"/>
			<point x="376.27407" y="539"/>
			<point x="456.27407" y="539" type="curve" smooth="yes"/>
			<point x="529.1757190378" y="539"/>
			<point x="547" y="473"/>
			<point x="528" y="380" type="curve" smooth="yes"/>
			<point x="499.9987310421" y="239.9936552105"/>
			<point x="383.8173312384" y="160"/>
			<point x="295" y="160" type="curve" smooth="yes"/>
			<point x="217.5590129004" y="160"/>
			<point x="185.0020083112" y="213.0098052842"/>
			<point x="202" y="296" type="curve" smooth="yes"/>
			<point x="218" y="374"/>
			<point x="261.0604575759" y="433.2799753145"/>
		</contour>
	</outline>
</glyph>
<glyph name="one" format="2">
	<advance width="700"/>
	<unicode hex="0031"/>
	<outline>
		<contour>
			<point x="151.77011" y="167" type="curve" smooth="yes"/>
			<point x="69.77011" y="167"/>
			<point x="30" y="137"/>
			<point x="21" y="88" type="curve" smooth="yes"/>
			<point x="12" y="44"/>
			<point x="23.77011" y="-9"/>
			<point x="143.77011" y="-9" type="curve" smooth="yes"/>
			<point x="193.77011" y="-9"/>
			<point x="286.77011" y="0"/>
			<point x="508.77011" y="0" type="curve" smooth="yes"/>
			<point x="599.77011" y="0"/>
			<point x="636.77011" y="33"/>
			<point x="643.77011" y="79" type="curve" smooth="yes"/>
			<point x="652.77011" y="134"/>
			<point x="624.77011" y="174"/>
			<point x="530.77011" y="174" type="curve" smooth="yes"/>
			<point x="418.77011" y="174"/>
			<point x="225.77011" y="167"/>
		</contour>
		<contour>
			<point x="240.77011" y="611" type="curve" smooth="yes"/>
			<point x="188.77011" y="605"/>
			<point x="161.77011" y="577"/>
			<point x="155.77011" y="544" type="curve" smooth="yes"/>
			<point x="146.77011" y="498"/>
			<point x="168.77011" y="451"/>
			<point x="238.77011" y="451" type="curve" smooth="yes"/>
			<point x="301.77011" y="451"/>
			<point x="380.77011" y="475"/>
			<point x="427.77011" y="509" type="curve"/>
			<point x="400.77011" y="537" type="line"/>
			<point x="359.77011" y="436"/>
			<point x="323" y="324"/>
			<point x="303" y="224" type="curve" smooth="yes"/>
			<point x="288" y="149"/>
			<point x="316.77011" y="96"/>
			<point x="383.77011" y="96" type="curve" smooth="yes"/>
			<point x="426.77011" y="96"/>
			<point x="455.77011" y="125"/>
			<point x="463.77011" y="163" type="curve" smooth="yes"/>
			<point x="470.5862" y="198.05416"/>
			<point x="506" y="393"/>
			<point x="588" y="568" type="curve" smooth="yes"/>
			<point x="626" y="643"/>
			<point x="585.1108" y="716"/>
			<point x="515.77011" y="716" type="curve" smooth="yes"/>
			<point x="483.77011" y="716"/>
			<point x="459.77011" y="703"/>
			<point x="436.77011" y="686" type="curve" smooth="yes"/>
			<point x="387.77011" y="648"/>
			<point x="318.77011" y="619"/>
		</contour>
	</outline>
</glyph>
<glyph name="two" format="2">
	<unicode hex="0032"/>
	<advance width="700"/>
	<outline>
		<contour>
			<point x="172.5364094337" y="608" type="curve" smooth="yes"/>
			<point x="136.5364094337" y="586"/>
			<point x="123.5364094337" y="568"/>
			<point x="116.5364094337" y="536" type="curve" smooth="yes" identifier="q8RsJl5eCk"/>
			<point x="107.5364094337" y="488"/>
			<point x="135.5364094337" y="446"/>
			<point x="181.5364094337" y="446" type="curve" smooth="yes"/>
			<point x="231.5364094337" y="446"/>
			<point x="320.5364094337" y="538"/>
			<point x="434.5364094337" y="538" type="curve" smooth="yes"/>
			<point x="468.5364094337" y="538"/>
			<point x="480.5364094337" y="523"/>
			<point x="475.5364094337" y="499" type="curve" smooth="yes" identifier="gMqMHI0Jos"/>
			<point x="457.5364094337" y="411"/>
			<point x="342.5364094337" y="326"/>
			<point x="67.5364094337" y="169" type="curve" smooth="yes"/>
			<point x="46.5364094337" y="157"/>
			<point x="28.5364094337" y="139"/>
			<point x="19.5364094337" y="97" type="curve" smooth="yes" identifier="Igad8cIuRy"/>
			<point x="6.5364094337" y="29"/>
			<point x="28.5364094337" y="-20"/>
			<point x="99.5364094337" y="-20" type="curve" smooth="yes"/>
			<point x="171.5364094337" y="-20"/>
			<point x="314.5364094337" y="0"/>
			<point x="547.5364094337" y="0" type="curve" smooth="yes"/>
			<point x="601.5364094337" y="0"/>
			<point x="639.5364094337" y="35"/>
			<point x="647.5364094337" y="74" type="curve" smooth="yes" identifier="nztdQERYzO"/>
			<point x="658.5364094337" y="132"/>
			<point x="632.5364094337" y="174"/>
			<point x="530.5364094337" y="174" type="curve" smooth="yes"/>
			<point x="437.5364094337" y="174"/>
			<point x="356.5364094337" y="162"/>
			<point x="303.5364094337" y="162" type="curve" smooth="yes"/>
			<point x="278.5364094337" y="162"/>
			<point x="253.5364094337" y="164"/>
			<point x="228.5364094337" y="171" type="curve"/>
			<point x="262.5364094337" y="126" type="line"/>
			<point x="562.5364094337" y="303"/>
			<point x="628.5364094337" y="401"/>
			<point x="648.5364094337" y="499" type="curve" smooth="yes" identifier="itVfIcCtl5"/>
			<point x="673.5364094337" y="625"/>
			<point x="629.5364094337" y="713"/>
			<point x="469.5364094337" y="713" type="curve" smooth="yes"/>
			<point x="380.5364094337" y="713"/>
			<point x="283.5364094337" y="677"/>
		</contour>
	</outline>
</glyph>
<glyph name="three" format="2">
	<unicode hex="0033"/>
	<advance width="700"/>
	<outline>
		<contour>
			<point x="443" y="712" type="curve" smooth="yes"/>
			<point x="280.5290858726" y="712"/>
			<point x="115.1301456965" y="640.7753854363"/>
			<point x="102" y="576" type="curve" smooth="yes"/>
			<point x="93" y="526"/>
			<point x="124" y="495"/>
			<point x="164" y="495" type="curve" smooth="yes"/>
			<point x="224" y="495"/>
			<point x="277.73392" y="547"/>
			<point x="440.73392" y="547" type="curve" smooth="yes"/>
			<point x="479.73392" y="547"/>
			<point x="489.73392" y="540"/>
			<point x="485.73392" y="522" type="curve" smooth="yes"/>
			<point x="477.73392" y="481"/>
			<point x="411.73392" y="452"/>
			<point x="286.73392" y="427" type="curve" smooth="yes"/>
			<point x="250.0429266156" y="419.8985174095"/>
			<point x="231.4075981811" y="401.7662587846"/>
			<point x="225" y="374" type="curve" smooth="yes"/>
			<point x="216.2258632742" y="326.2297000483"/>
			<point x="234.2765796721" y="282"/>
			<point x="295.73392" y="282" type="curve" smooth="yes"/>
			<point x="457.8483861224" y="282"/>
			<point x="496" y="267"/>
			<point x="486" y="222" type="curve" smooth="yes"/>
			<point x="478" y="187"/>
			<point x="403" y="161"/>
			<point x="260" y="161" type="curve" smooth="yes"/>
			<point x="148" y="161"/>
			<point x="152.609375" y="189"/>
			<point x="102" y="189" type="curve" smooth="yes"/>
			<point x="57" y="189"/>
			<point x="31.7157885659" y="158.7216329891"/>
			<point x="24" y="121" type="curve" smooth="yes"/>
			<point x="9.8327266024" y="55.223373511"/>
			<point x="63" y="-12"/>
			<point x="260" y="-12" type="curve" smooth="yes"/>
			<point x="482" y="-12"/>
			<point x="627" y="67"/>
			<point x="654" y="201" type="curve" smooth="yes"/>
			<point x="676" y="309"/>
			<point x="629" y="402"/>
			<point x="447" y="404" type="curve"/>
			<point x="444.73392" y="365" type="line"/>
			<point x="596.73392" y="389"/>
			<point x="654.73392" y="462"/>
			<point x="668.73392" y="532" type="curve" smooth="yes"/>
			<point x="690.8215285887" y="641.4340607349"/>
			<point x="622.942922781" y="712"/>
		</contour>
	</outline>
</glyph>
<glyph name="four" format="2">
	<unicode hex="0034"/>
	<advance width="700"/>
	<outline>
		<contour>
			<point x="306.4197438828" y="157" type="curve" smooth="yes" identifier="UDGpHPsdoR"/>
			<point x="283.4197438828" y="39"/>
			<point x="300.4197438828" y="-11"/>
			<point x="368.4197438828" y="-11" type="curve" smooth="yes"/>
			<point x="422.4197438828" y="-11"/>
			<point x="463.4197438828" y="13"/>
			<point x="471.4197438828" y="53" type="curve" smooth="yes" identifier="NJcYfymxco"/>
			<point x="476.4197438828" y="79"/>
			<point x="470.4197438828" y="100"/>
			<point x="480.4197438828" y="148" type="curve" smooth="yes" identifier="m9o6CB4PXL"/>
			<point x="512.4197438828" y="312"/>
			<point x="584.4197438828" y="427"/>
			<point x="615.4197438828" y="581" type="curve" smooth="yes" identifier="gKBwK5K2Kg"/>
			<point x="628.4197438828" y="643"/>
			<point x="599.4197438828" y="715"/>
			<point x="506.4197438828" y="715" type="curve" smooth="yes"/>
			<point x="432.4197438828" y="715"/>
			<point x="253.4197438828" y="614"/>
			<point x="108.4197438828" y="437" type="curve" smooth="yes"/>
			<point x="42.4197438828" y="356"/>
			<point x="23.4197438828" y="301"/>
			<point x="13.4197438828" y="252" type="curve" smooth="yes" identifier="Ek0gWxbANY"/>
			<point x="4.4197438828" y="204"/>
			<point x="38.4197438828" y="147"/>
			<point x="109.4197438828" y="147" type="curve" smooth="yes"/>
			<point x="276.4197438828" y="147"/>
			<point x="405.4197438828" y="192"/>
			<point x="615.4197438828" y="192" type="curve" smooth="yes"/>
			<point x="660.4197438828" y="192"/>
			<point x="684.4197438828" y="221"/>
			<point x="692.4197438828" y="259" type="curve" smooth="yes" identifier="MY9hB1DNds"/>
			<point x="703.4197438828" y="315"/>
			<point x="673.4197438828" y="367"/>
			<point x="624.4197438828" y="367" type="curve" smooth="yes"/>
			<point x="450.4197438828" y="367"/>
			<point x="335.4197438828" y="323"/>
			<point x="206.4197438828" y="323" type="curve" smooth="yes"/>
			<point x="181.4197438828" y="323"/>
			<point x="173.4197438828" y="326"/>
			<point x="143.4197438828" y="339" type="curve"/>
			<point x="182.4197438828" y="269" type="line"/>
			<point x="260.4197438828" y="391"/>
			<point x="363.4197438828" y="494"/>
			<point x="470.4197438828" y="553" type="curve"/>
			<point x="428.4197438828" y="610" type="line"/>
			<point x="434.4197438828" y="586"/>
			<point x="435.4197438828" y="574"/>
			<point x="432.4197438828" y="559" type="curve" smooth="yes" identifier="ha2UmgDxpv"/>
			<point x="412.4197438828" y="461"/>
			<point x="338.4197438828" y="315"/>
		</contour>
	</outline>
</glyph>
<glyph name="five" format="2">
	<unicode hex="0035"/>
	<advance width="700"/>
	<outline>
		<contour>
			<point x="659.1653048087" y="543" type="curve" smooth="yes"/>
			<point x="695.1653048087" y="543"/>
			<point x="724.1653048087" y="567"/>
			<point x="733.1653048087" y="603" type="curve" smooth="yes"/>
			<point x="747.1653048087" y="662"/>
			<point x="712.1653048087" y="716"/>
			<point x="626.1653048087" y="716" type="curve" smooth="yes"/>
			<point x="484.1653048087" y="716"/>
			<point x="413.1653048087" y="700"/>
			<point x="223.1653048087" y="700" type="curve" smooth="yes"/>
			<point x="187.1653048087" y="700"/>
			<point x="170.1653048087" y="683"/>
			<point x="151.1653048087" y="647" type="curve" smooth="yes"/>
			<point x="121.1653048087" y="591"/>
			<point x="103.1653048087" y="544"/>
			<point x="95.1653048087" y="507" type="curve" smooth="yes" identifier="iPwCQ26A9x"/>
			<point x="72.1653048087" y="392"/>
			<point x="111.1653048087" y="361"/>
			<point x="376.1653048087" y="312" type="curve" smooth="yes"/>
			<point x="455.1653048087" y="298"/>
			<point x="462.1653048087" y="281"/>
			<point x="457.1653048087" y="255" type="curve" smooth="yes" identifier="Vp56R7IPYb"/>
			<point x="445.1653048087" y="193"/>
			<point x="310.1653048087" y="158"/>
			<point x="214.1653048087" y="158" type="curve" smooth="yes"/>
			<point x="156.1653048087" y="158"/>
			<point x="159.1653048087" y="195"/>
			<point x="124.1653048087" y="195" type="curve" smooth="yes"/>
			<point x="79.1653048087" y="195"/>
			<point x="50.1653048087" y="161"/>
			<point x="42.1653048087" y="118" type="curve" smooth="yes" identifier="1a3r9GIC7W"/>
			<point x="26.1653048087" y="40"/>
			<point x="70.1653048087" y="-12"/>
			<point x="189.1653048087" y="-12" type="curve" smooth="yes"/>
			<point x="430.1653048087" y="-12"/>
			<point x="610.1653048087" y="99"/>
			<point x="641.1653048087" y="257" type="curve" smooth="yes" identifier="GXmQUF9fI6"/>
			<point x="664.1653048087" y="372"/>
			<point x="630.1653048087" y="429"/>
			<point x="423.1653048087" y="466" type="curve" smooth="yes"/>
			<point x="278.1653048087" y="489"/>
			<point x="270.1653048087" y="495"/>
			<point x="274.1653048087" y="517" type="curve" smooth="yes" identifier="BHuqP6fcWv"/>
			<point x="278.1653048087" y="537"/>
			<point x="284.1653048087" y="549"/>
			<point x="304.1653048087" y="578" type="curve"/>
			<point x="224.1653048087" y="527" type="line"/>
			<point x="416.1653048087" y="524"/>
			<point x="496.1653048087" y="543"/>
		</contour>
	</outline>
</glyph>
<glyph name="six" format="2">
  <advance width="700"/>
  <unicode hex="0036"/>
  <outline>
    <contour>
      <point x="522.811" y="549" type="curve" smooth="yes"/>
      <point x="566.811" y="576"/>
      <point x="574.811" y="592"/>
      <point x="579.811" y="617" type="curve" smooth="yes"/>
      <point x="589.811" y="664"/>
      <point x="557.811" y="710"/>
      <point x="503.811" y="710" type="curve" smooth="yes"/>
      <point x="478.811" y="710"/>
      <point x="459.811" y="707"/>
      <point x="410.811" y="675" type="curve" smooth="yes"/>
      <point x="192.811" y="536"/>
      <point x="52" y="405"/>
      <point x="23" y="260" type="curve" smooth="yes"/>
      <point x="-7" y="112"/>
      <point x="100" y="-10"/>
      <point x="327" y="-10" type="curve" smooth="yes"/>
      <point x="523" y="-10"/>
      <point x="637" y="87"/>
      <point x="663" y="214" type="curve" smooth="yes"/>
      <point x="689" y="344"/>
      <point x="606" y="433"/>
      <point x="464" y="433" type="curve" smooth="yes"/>
      <point x="307" y="433"/>
      <point x="209.811" y="356"/>
      <point x="201.811" y="313" type="curve" smooth="yes"/>
      <point x="195.811" y="287"/>
      <point x="205.811" y="267"/>
      <point x="247.811" y="267" type="curve" smooth="yes"/>
      <point x="292.811" y="267"/>
      <point x="318.811" y="288"/>
      <point x="403.811" y="288" type="curve" smooth="yes"/>
      <point x="478.811" y="288"/>
      <point x="499.811" y="260"/>
      <point x="493.811" y="231" type="curve" smooth="yes"/>
      <point x="485.811" y="192"/>
      <point x="426.811" y="160"/>
      <point x="340.811" y="160" type="curve" smooth="yes"/>
      <point x="249.811" y="160"/>
      <point x="188.811" y="180"/>
      <point x="201.811" y="244" type="curve" smooth="yes"/>
      <point x="222.811" y="348"/>
      <point x="355.811" y="445"/>
    </contour>
  </outline>
</glyph>
<glyph name="seven" format="2">
	<unicode hex="0037"/>
	<advance width="700"/>
	<outline>
		<contour>
			<point x="192.7228480766" y="366" type="curve" smooth="yes"/>
			<point x="150.7228480766" y="366"/>
			<point x="126.7228480766" y="342"/>
			<point x="118.7228480766" y="298" type="curve" smooth="yes" identifier="yVu8DzC9HJ"/>
			<point x="108.7228480766" y="248"/>
			<point x="140.7228480766" y="201"/>
			<point x="197.7228480766" y="201" type="curve" smooth="yes"/>
			<point x="295.7228480766" y="201"/>
			<point x="380.7228480766" y="229"/>
			<point x="604.7228480766" y="229" type="curve" smooth="yes"/>
			<point x="650.7228480766" y="229"/>
			<point x="680.7228480766" y="253"/>
			<point x="687.7228480766" y="289" type="curve" smooth="yes" identifier="oRCXAU6O5y"/>
			<point x="698.7228480766" y="347"/>
			<point x="661.7228480766" y="394"/>
			<point x="582.7228480766" y="394" type="curve" smooth="yes"/>
			<point x="412.7228480766" y="394"/>
			<point x="306.7228480766" y="366"/>
		</contour>
		<contour>
			<point x="128.7228480766" y="645" type="curve" smooth="yes"/>
			<point x="107.7228480766" y="638"/>
			<point x="92.7228480766" y="615"/>
			<point x="88.7228480766" y="593" type="curve" smooth="yes" identifier="Jk6hnPDapw"/>
			<point x="78.7228480766" y="547"/>
			<point x="113.7228480766" y="494"/>
			<point x="155.7228480766" y="494" type="curve" smooth="yes"/>
			<point x="202.7228480766" y="494"/>
			<point x="280.7228480766" y="546"/>
			<point x="439.7228480766" y="546" type="curve" smooth="yes"/>
			<point x="483.7228480766" y="546"/>
			<point x="497.7228480766" y="535"/>
			<point x="491.7228480766" y="506" type="curve" smooth="yes" identifier="zoRnBG5GIN"/>
			<point x="477.7228480766" y="436"/>
			<point x="262.7228480766" y="240"/>
			<point x="231.7228480766" y="83" type="curve" smooth="yes" identifier="dy9bmvTaBU"/>
			<point x="218.7228480766" y="20"/>
			<point x="260.7228480766" y="-9"/>
			<point x="318.7228480766" y="-9" type="curve" smooth="yes"/>
			<point x="366.7228480766" y="-9"/>
			<point x="389.7228480766" y="9"/>
			<point x="401.7228480766" y="70" type="curve" smooth="yes" identifier="gmz31V58ZZ"/>
			<point x="434.7228480766" y="235"/>
			<point x="640.7228480766" y="365"/>
			<point x="672.7228480766" y="525" type="curve" smooth="yes" identifier="VculmZK9vh"/>
			<point x="694.7228480766" y="635"/>
			<point x="642.7228480766" y="710"/>
			<point x="465.7228480766" y="710" type="curve" smooth="yes"/>
			<point x="384.7228480766" y="710"/>
			<point x="234.7228480766" y="682"/>
		</contour>
	</outline>
</glyph>
<glyph name="eight" format="2">
	<unicode hex="0038"/>
	<advance width="700"/>
	<outline>
		<contour>
			<point x="454" y="544" type="curve" smooth="yes"/>
			<point x="496" y="543"/>
			<point x="525" y="566"/>
			<point x="533" y="605" type="curve" smooth="yes"/>
			<point x="545" y="656"/>
			<point x="510.00196" y="711"/>
			<point x="426.00196" y="711" type="curve" smooth="yes"/>
			<point x="216.00196" y="711"/>
			<point x="115" y="656"/>
			<point x="89" y="536" type="curve" smooth="yes"/>
			<point x="70" y="442"/>
			<point x="134" y="361"/>
			<point x="335" y="307" type="curve" smooth="yes"/>
			<point x="468" y="271"/>
			<point x="478.00196" y="247"/>
			<point x="474.00196" y="225" type="curve" smooth="yes"/>
			<point x="464.0019559002" y="173.9999790911"/>
			<point x="387.0009966102" y="159"/>
			<point x="297" y="159" type="curve" smooth="yes"/>
			<point x="239.6526946108" y="159"/>
			<point x="198.9993832253" y="165.000271799"/>
			<point x="140" y="191" type="curve"/>
			<point x="200.00196" y="58" type="line"/>
			<point x="188.00196" y="102"/>
			<point x="194.00196" y="132"/>
			<point x="199.00196" y="153" type="curve" smooth="yes"/>
			<point x="206.00196" y="188"/>
			<point x="225" y="205"/>
			<point x="479" y="325" type="curve" smooth="yes"/>
			<point x="650" y="405"/>
			<point x="702" y="467"/>
			<point x="713" y="522" type="curve" smooth="yes"/>
			<point x="726" y="593"/>
			<point x="704" y="642"/>
			<point x="640" y="642" type="curve" smooth="yes"/>
			<point x="605" y="642"/>
			<point x="586.00196" y="619"/>
			<point x="569.00196" y="583" type="curve" smooth="yes"/>
			<point x="549.00196" y="539"/>
			<point x="507.00196" y="501"/>
			<point x="339.00196" y="422" type="curve" smooth="yes"/>
			<point x="91.00196" y="305"/>
			<point x="44" y="262"/>
			<point x="26" y="184" type="curve" smooth="yes"/>
			<point x="4" y="81"/>
			<point x="76" y="-12"/>
			<point x="289" y="-12" type="curve" smooth="yes"/>
			<point x="539" y="-12"/>
			<point x="627" y="80"/>
			<point x="651" y="203" type="curve" smooth="yes"/>
			<point x="670" y="288"/>
			<point x="622" y="362"/>
			<point x="446" y="427" type="curve" smooth="yes"/>
			<point x="340" y="465"/>
			<point x="255" y="486"/>
			<point x="261" y="519" type="curve" smooth="yes"/>
			<point x="264" y="532"/>
			<point x="298" y="549"/>
		</contour>
	</outline>
</glyph>
<glyph name="nine" format="2">
	<unicode hex="0039"/>
	<advance width="700"/>
	<outline>
		<contour>
			<point x="515.5759862101" y="525" type="curve" smooth="yes"/>
			<point x="554.5759862101" y="525"/>
			<point x="578.5759862101" y="558"/>
			<point x="584.5759862101" y="590" type="curve" smooth="yes" identifier="3JlDEwKYek"/>
			<point x="599.5759862101" y="664"/>
			<point x="554.5759862101" y="710"/>
			<point x="459.5759862101" y="710" type="curve" smooth="yes"/>
			<point x="230.5759862101" y="710"/>
			<point x="94.5759862101" y="570"/>
			<point x="68.5759862101" y="442" type="curve" smooth="yes" identifier="yJyp8LT0LF"/>
			<point x="44.5759862101" y="322"/>
			<point x="115.5759862101" y="240"/>
			<point x="267.5759862101" y="240" type="curve" smooth="yes"/>
			<point x="390.5759862101" y="240"/>
			<point x="488.5759862101" y="290"/>
			<point x="591.5759862101" y="414" type="curve"/>
			<point x="475.5759862101" y="361" type="line"/>
			<point x="452.5759862101" y="243"/>
			<point x="436.5759862101" y="148"/>
			<point x="433.5759862101" y="83" type="curve" smooth="yes"/>
			<point x="431.5759862101" y="29"/>
			<point x="467.5759862101" y="-9"/>
			<point x="526.5759862101" y="-9" type="curve" smooth="yes"/>
			<point x="571.5759862101" y="-9"/>
			<point x="601.5759862101" y="14"/>
			<point x="611.5759862101" y="67" type="curve" smooth="yes" identifier="YnF8oS9c81"/>
			<point x="619.5759862101" y="105"/>
			<point x="611.5759862101" y="152"/>
			<point x="638.5759862101" y="283" type="curve" smooth="yes" identifier="S6LxTy0cU0"/>
			<point x="648.5759862101" y="335"/>
			<point x="660.5759862101" y="388"/>
			<point x="681.5759862101" y="481" type="curve"/>
			<point x="731.5759862101" y="601"/>
			<point x="711.5759862101" y="666"/>
			<point x="614.5759862101" y="666" type="curve" smooth="yes"/>
			<point x="579.5759862101" y="666"/>
			<point x="550.5759862101" y="642"/>
			<point x="542.5759862101" y="600" type="curve" smooth="yes" identifier="ZZpZfY5rur"/>
			<point x="512.5759862101" y="448"/>
			<point x="410.5759862101" y="403"/>
			<point x="303.5759862101" y="403" type="curve" smooth="yes"/>
			<point x="254.5759862101" y="403"/>
			<point x="242.5759862101" y="422"/>
			<point x="248.5759862101" y="448" type="curve" smooth="yes" identifier="GmEQLzJkSs"/>
			<point x="255.5759862101" y="485"/>
			<point x="307.5759862101" y="539"/>
			<point x="425.5759862101" y="539" type="curve" smooth="yes"/>
			<point x="471.5759862101" y="539"/>
			<point x="489.5759862101" y="525"/>
		</contour>
	</outline>
</glyph>
<glyph name="colon" format="2">
	<advance width="320"/>
	<unicode hex="003A"/>
	<outline>
		<contour>
			<point x="174.46439" y="315" type="curve" smooth="yes"/>
			<point x="251.46439" y="315"/>
			<point x="300.46439" y="358"/>
			<point x="310.46439" y="408" type="curve" smooth="yes"/>
			<point x="322.46439" y="469"/>
			<point x="295.46439" y="528"/>
			<point x="199.46439" y="528" type="curve" smooth="yes"/>
			<point x="141.46439" y="528"/>
			<point x="88.46439" y="494"/>
			<point x="75.46439" y="432" type="curve" smooth="yes"/>
			<point x="60.46439" y="356"/>
			<point x="97.46439" y="315"/>
		</contour>
		<contour>
			<point x="118.46439" y="-14" type="curve" smooth="yes"/>
			<point x="188.46439" y="-14"/>
			<point x="234.46439" y="29"/>
			<point x="244.46439" y="79" type="curve" smooth="yes"/>
			<point x="256.46439" y="140"/>
			<point x="228.46439" y="199"/>
			<point x="129.46439" y="199" type="curve" smooth="yes"/>
			<point x="73.46439" y="199"/>
			<point x="22.46439" y="165"/>
			<point x="10.46439" y="103" type="curve" smooth="yes"/>
			<point x="-5.53561" y="27"/>
			<point x="34.46439" y="-14"/>
		</contour>
	</outline>
</glyph>
<glyph name="less" format="2">
	<unicode hex="003C"/>
	<advance width="700"/>
	<outline>
		<contour>
			<point x="598.918843035" y="445" type="curve" smooth="yes"/>
			<point x="664.918843035" y="462"/>
			<point x="687.918843035" y="472"/>
			<point x="697.918843035" y="521" type="curve" smooth="yes" identifier="VOA7UALOev"/>
			<point x="707.918843035" y="572"/>
			<point x="676.918843035" y="615"/>
			<point x="603.918843035" y="615" type="curve" smooth="yes"/>
			<point x="579.918843035" y="615"/>
			<point x="555.918843035" y="612"/>
			<point x="517.918843035" y="601" type="curve" smooth="yes"/>
			<point x="397.918843035" y="567"/>
			<point x="223.918843035" y="503"/>
			<point x="108.918843035" y="426" type="curve" smooth="yes"/>
			<point x="69.918843035" y="400"/>
			<point x="54.918843035" y="376"/>
			<point x="49.918843035" y="351" type="curve" smooth="yes" identifier="c1feaaP5fp"/>
			<point x="43.918843035" y="321"/>
			<point x="51.918843035" y="294"/>
			<point x="74.918843035" y="269" type="curve" smooth="yes"/>
			<point x="151.918843035" y="185"/>
			<point x="276.918843035" y="125"/>
			<point x="453.918843035" y="96" type="curve" smooth="yes"/>
			<point x="491.918843035" y="89"/>
			<point x="515.918843035" y="86"/>
			<point x="556.918843035" y="86" type="curve" smooth="yes"/>
			<point x="597.918843035" y="86"/>
			<point x="645.918843035" y="112"/>
			<point x="656.918843035" y="163" type="curve" smooth="yes" identifier="jLFJe4OtQQ"/>
			<point x="667.918843035" y="219"/>
			<point x="637.918843035" y="238"/>
			<point x="575.918843035" y="246" type="curve" smooth="yes"/>
			<point x="426.918843035" y="268"/>
			<point x="313.918843035" y="302"/>
			<point x="236.918843035" y="373" type="curve"/>
			<point x="222.918843035" y="304" type="line"/>
			<point x="321.918843035" y="361"/>
			<point x="452.918843035" y="409"/>
		</contour>
	</outline>
	<guideline x="111.8000876371" y="361" angle="0" identifier="VLAmwIKhLM"/>
</glyph>
<glyph name="equal" format="2">
  <advance width="700"/>
  <unicode hex="003D"/>
  <outline>
    <contour>
      <point x="569.807" y="400" type="curve" smooth="yes"/>
      <point x="649.807" y="400"/>
      <point x="677.807" y="428"/>
      <point x="685.807" y="468" type="curve" smooth="yes"/>
      <point x="697.807" y="529"/>
      <point x="634.807" y="560"/>
      <point x="483.807" y="560" type="curve" smooth="yes"/>
      <point x="395.807" y="560"/>
      <point x="315.807" y="553"/>
      <point x="208.806" y="537" type="curve" smooth="yes"/>
      <point x="128.806" y="525"/>
      <point x="98.806" y="496"/>
      <point x="90.806" y="457" type="curve" smooth="yes"/>
      <point x="82.806" y="413"/>
      <point x="104.806" y="372"/>
      <point x="161.806" y="372" type="curve" smooth="yes"/>
      <point x="229.806" y="372"/>
      <point x="301.807" y="400"/>
    </contour>
    <contour>
      <point x="515.807" y="168" type="curve" smooth="yes"/>
      <point x="588.807" y="168"/>
      <point x="614.807" y="195"/>
      <point x="622.807" y="233" type="curve" smooth="yes"/>
      <point x="633.807" y="290"/>
      <point x="591.807" y="315"/>
      <point x="509.807" y="315" type="curve" smooth="yes"/>
      <point x="394.807" y="315"/>
      <point x="271.807" y="299"/>
      <point x="137.806" y="271" type="curve" smooth="yes"/>
      <point x="57.806" y="253"/>
      <point x="32.806" y="223"/>
      <point x="25.806" y="189" type="curve" smooth="yes"/>
      <point x="15.806" y="140"/>
      <point x="47.806" y="106"/>
      <point x="109.806" y="106" type="curve" smooth="yes"/>
      <point x="196.806" y="106"/>
      <point x="254.806" y="168"/>
    </contour>
  </outline>
</glyph>
<glyph name="greater" format="2">
	<unicode hex="003E"/>
	<advance width="700"/>
	<outline>
		<contour>
			<point x="145" y="257" type="curve" smooth="yes"/>
			<point x="80" y="240"/>
			<point x="56" y="223"/>
			<point x="47" y="179" type="curve" smooth="yes"/>
			<point x="36.7913099721" y="127.9565498606"/>
			<point x="67.9614480645" y="85"/>
			<point x="139.82927" y="85" type="curve" smooth="yes"/>
			<point x="163.82927" y="85"/>
			<point x="187.82927" y="88"/>
			<point x="225.82927" y="99" type="curve" smooth="yes"/>
			<point x="345.82927" y="133"/>
			<point x="519.82927" y="197"/>
			<point x="634.82927" y="274" type="curve" smooth="yes"/>
			<point x="673.82927" y="300"/>
			<point x="688.82927" y="324"/>
			<point x="693.82927" y="349" type="curve" smooth="yes"/>
			<point x="699.82927" y="379"/>
			<point x="691.82927" y="406"/>
			<point x="668.82927" y="431" type="curve" smooth="yes"/>
			<point x="591.82927" y="515"/>
			<point x="466.82927" y="575"/>
			<point x="289.82927" y="604" type="curve" smooth="yes"/>
			<point x="253.82927" y="611"/>
			<point x="229.82927" y="613"/>
			<point x="190.82927" y="613" type="curve" smooth="yes"/>
			<point x="137.9162766346" y="613"/>
			<point x="96.7476484576" y="585.7887125963"/>
			<point x="87" y="539" type="curve" smooth="yes"/>
			<point x="76" y="483"/>
			<point x="106" y="464"/>
			<point x="168" y="456" type="curve" smooth="yes"/>
			<point x="317" y="434"/>
			<point x="430" y="400"/>
			<point x="507" y="329" type="curve"/>
			<point x="521" y="398" type="line"/>
			<point x="422" y="341"/>
			<point x="291" y="293"/>
		</contour>
	</outline>
</glyph>
<glyph name="question" format="2">
	<unicode hex="003F"/>
	<advance width="541"/>
	<outline>
		<contour>
			<point x="140.225532561" y="678" type="curve" smooth="yes"/>
			<point x="103.225532561" y="661"/>
			<point x="82.225532561" y="636"/>
			<point x="75.225532561" y="599" type="curve" smooth="yes" identifier="moENu1r8YZ"/>
			<point x="64.225532561" y="543"/>
			<point x="95.225532561" y="516"/>
			<point x="141.225532561" y="516" type="curve" smooth="yes"/>
			<point x="187.225532561" y="516"/>
			<point x="220.225532561" y="550"/>
			<point x="320.225532561" y="550" type="curve" smooth="yes"/>
			<point x="370.225532561" y="550"/>
			<point x="386.225532561" y="540"/>
			<point x="383.225532561" y="523" type="curve" smooth="yes" identifier="KLgqnPCvmf"/>
			<point x="380.225532561" y="509"/>
			<point x="370.225532561" y="497"/>
			<point x="299.225532561" y="469" type="curve" smooth="yes"/>
			<point x="204.225532561" y="432"/>
			<point x="171.225532561" y="394"/>
			<point x="162.225532561" y="350" type="curve" smooth="yes" identifier="QQCrvxHNiy"/>
			<point x="149.225532561" y="287"/>
			<point x="185.225532561" y="231"/>
			<point x="262.225532561" y="231" type="curve" smooth="yes"/>
			<point x="304.225532561" y="231"/>
			<point x="331.225532561" y="259"/>
			<point x="336.225532561" y="283" type="curve" smooth="yes" identifier="zgPfGI0PFx"/>
			<point x="340.225532561" y="305"/>
			<point x="326.225532561" y="319"/>
			<point x="327.225532561" y="327" type="curve" smooth="yes" identifier="CvWKXKoNsg"/>
			<point x="329.225532561" y="336"/>
			<point x="344.225532561" y="345"/>
			<point x="420.225532561" y="379" type="curve" smooth="yes"/>
			<point x="489.225532561" y="408"/>
			<point x="549.225532561" y="454"/>
			<point x="565.225532561" y="533" type="curve" smooth="yes" identifier="CbQuFHd5dp"/>
			<point x="588.225532561" y="651"/>
			<point x="512.225532561" y="720"/>
			<point x="343.225532561" y="720" type="curve" smooth="yes"/>
			<point x="281.225532561" y="720"/>
			<point x="196.225532561" y="705"/>
		</contour>
		<contour>
			<point x="201.225532561" y="-13" type="curve" smooth="yes"/>
			<point x="265.225532561" y="-13"/>
			<point x="305.225532561" y="18"/>
			<point x="314.225532561" y="67" type="curve" smooth="yes" identifier="HRGTGP9Bf1"/>
			<point x="324.225532561" y="117"/>
			<point x="296.225532561" y="165"/>
			<point x="214.225532561" y="165" type="curve" smooth="yes"/>
			<point x="161.225532561" y="165"/>
			<point x="119.225532561" y="136"/>
			<point x="107.225532561" y="76" type="curve" smooth="yes" identifier="Wcrgs6PIG6"/>
			<point x="96.225532561" y="19"/>
			<point x="131.225532561" y="-13"/>
		</contour>
	</outline>
</glyph>
<glyph name="at" format="2">
	<advance width="924"/>
	<unicode hex="0040"/>
	<outline>
		<contour>
			<point x="557.01547" y="297" type="curve" smooth="yes"/>
			<point x="577.01547" y="303"/>
			<point x="615.01547" y="335"/>
			<point x="622.01547" y="370" type="curve" smooth="yes"/>
			<point x="632.01547" y="421"/>
			<point x="594.01547" y="451"/>
			<point x="531.01547" y="451" type="curve" smooth="yes"/>
			<point x="454.01547" y="451"/>
			<point x="317.01547" y="343"/>
			<point x="294.01547" y="228" type="curve" smooth="yes"/>
			<point x="276.01547" y="138"/>
			<point x="324.01547" y="92"/>
			<point x="399.01547" y="92" type="curve" smooth="yes"/>
			<point x="477.01547" y="92"/>
			<point x="533.01547" y="132"/>
			<point x="580.01547" y="201" type="curve"/>
			<point x="495.01547" y="191" type="line"/>
			<point x="533.01547" y="183"/>
			<point x="548.01547" y="169"/>
			<point x="575.01547" y="133" type="curve" smooth="yes"/>
			<point x="605.01547" y="92"/>
			<point x="657.01547" y="85"/>
			<point x="698.01547" y="85" type="curve" smooth="yes"/>
			<point x="782.01547" y="85"/>
			<point x="866.01547" y="147"/>
			<point x="891.01547" y="268" type="curve" smooth="yes"/>
			<point x="922.01547" y="425"/>
			<point x="852.01547" y="713"/>
			<point x="606.01547" y="713" type="curve" smooth="yes"/>
			<point x="353.01547" y="713"/>
			<point x="78.01547" y="477"/>
			<point x="33.01547" y="248" type="curve" smooth="yes"/>
			<point x="-19.98453" y="-13"/>
			<point x="167.01547" y="-174"/>
			<point x="428.01547" y="-174" type="curve" smooth="yes"/>
			<point x="540.01547" y="-174"/>
			<point x="610.01547" y="-162"/>
			<point x="676.01547" y="-135" type="curve" smooth="yes"/>
			<point x="729.01547" y="-115"/>
			<point x="770.01547" y="-70"/>
			<point x="779.01547" y="-24" type="curve" smooth="yes"/>
			<point x="788.01547" y="18"/>
			<point x="768.01547" y="35"/>
			<point x="724.01547" y="35" type="curve" smooth="yes"/>
			<point x="663.01547" y="35"/>
			<point x="609.01547" y="-5"/>
			<point x="462.01547" y="-5" type="curve" smooth="yes"/>
			<point x="305.01547" y="-5"/>
			<point x="168.01547" y="79"/>
			<point x="202.01547" y="248" type="curve" smooth="yes"/>
			<point x="231.01547" y="397"/>
			<point x="411.01547" y="543"/>
			<point x="572.01547" y="543" type="curve" smooth="yes"/>
			<point x="692.01547" y="543"/>
			<point x="743.01547" y="373"/>
			<point x="722.01547" y="268" type="curve" smooth="yes"/>
			<point x="720.01547" y="262"/>
			<point x="716.01547" y="254"/>
			<point x="711.01547" y="254" type="curve"/>
			<point x="703.01547" y="254"/>
			<point x="693.01547" y="254"/>
			<point x="671.01547" y="300" type="curve" smooth="yes"/>
			<point x="655.01547" y="332"/>
			<point x="627.01547" y="345"/>
			<point x="592.01547" y="345" type="curve" smooth="yes"/>
			<point x="540.01547" y="345"/>
			<point x="501.01547" y="320"/>
			<point x="464.01547" y="283" type="curve" smooth="yes"/>
			<point x="434.01547" y="255"/>
			<point x="423.01547" y="242"/>
			<point x="407.01547" y="242" type="curve" smooth="yes"/>
			<point x="389.01547" y="242"/>
			<point x="373.01547" y="245"/>
			<point x="353.01547" y="259" type="curve"/>
			<point x="455.01547" y="160" type="line"/>
			<point x="443.01547" y="172"/>
			<point x="440.01547" y="188"/>
			<point x="443.01547" y="206" type="curve" smooth="yes"/>
			<point x="450.01547" y="240"/>
			<point x="497.01547" y="278"/>
		</contour>
	</outline>
</glyph>
<glyph name="A" format="2">
	<unicode hex="0041"/>
	<advance width="780"/>
	<outline>
		<contour>
			<point x="617.0423366447" y="-11" type="curve" smooth="yes"/>
			<point x="665.0423366447" y="-11"/>
			<point x="692.0423366447" y="10"/>
			<point x="700.0423366447" y="51" type="curve" smooth="yes" identifier="sFnjRoMati"/>
			<point x="712.0423366447" y="111"/>
			<point x="657.0423366447" y="175"/>
			<point x="673.0423366447" y="357" type="curve" smooth="yes"/>
			<point x="695.0423366447" y="610"/>
			<point x="671.0423366447" y="711"/>
			<point x="523.0423366447" y="711" type="curve" smooth="yes"/>
			<point x="428.0423366447" y="711"/>
			<point x="326.0423366447" y="642"/>
			<point x="256.0423366447" y="543" type="curve"/>
			<point x="327.0423366447" y="566" type="line"/>
			<point x="308.0423366447" y="605"/>
			<point x="276.0423366447" y="616"/>
			<point x="247.0423366447" y="616" type="curve" smooth="yes"/>
			<point x="213.0423366447" y="616"/>
			<point x="195.0423366447" y="600"/>
			<point x="190.0423366447" y="575" type="curve" smooth="yes" identifier="DnYdHLrFAd"/>
			<point x="164.0423366447" y="444"/>
			<point x="93.0423366447" y="332"/>
			<point x="59.0423366447" y="160" type="curve" smooth="yes" identifier="l1nl8jF568"/>
			<point x="35.0423366447" y="39"/>
			<point x="61.0423366447" y="-8"/>
			<point x="130.0423366447" y="-8" type="curve" smooth="yes"/>
			<point x="171.0423366447" y="-8"/>
			<point x="194.0423366447" y="10"/>
			<point x="208.0423366447" y="57" type="curve" smooth="yes"/>
			<point x="305.0423366447" y="354"/>
			<point x="423.0423366447" y="538"/>
			<point x="481.0423366447" y="538" type="curve" smooth="yes"/>
			<point x="499.0423366447" y="538"/>
			<point x="505.0423366447" y="530"/>
			<point x="490.0423366447" y="362" type="curve" smooth="yes"/>
			<point x="482.0423366447" y="260"/>
			<point x="478.0423366447" y="121"/>
			<point x="516.0423366447" y="54" type="curve" smooth="yes"/>
			<point x="541.0423366447" y="6"/>
			<point x="571.0423366447" y="-11"/>
		</contour>
		<contour>
			<point x="114.0423366447" y="160" type="curve" smooth="yes"/>
			<point x="219.0423366447" y="160"/>
			<point x="404.0423366447" y="198"/>
			<point x="611.0423366447" y="198" type="curve" smooth="yes"/>
			<point x="687.0423366447" y="198"/>
			<point x="746.0423366447" y="239"/>
			<point x="757.0423366447" y="296" type="curve" smooth="yes" identifier="xBTqbu24U0"/>
			<point x="766.0423366447" y="342"/>
			<point x="745.0423366447" y="372"/>
			<point x="656.0423366447" y="372" type="curve" smooth="yes"/>
			<point x="427.0423366447" y="372"/>
			<point x="242.0423366447" y="343"/>
			<point x="94.0423366447" y="305" type="curve" smooth="yes"/>
			<point x="50.0423366447" y="293"/>
			<point x="26.0423366447" y="270"/>
			<point x="20.0423366447" y="240" type="curve" smooth="yes" identifier="54tRgpahIe"/>
			<point x="10.0423366447" y="192"/>
			<point x="36.0423366447" y="160"/>
		</contour>
	</outline>
	<anchor name="top" x="512.0431946298" y="700"/>
	<anchor name="bottom" x="372.0423366447" y="0"/>
	<anchor name="ring" x="511.8431934041" y="699"/>
	<anchor name="ogonek" x="650.0423366447" y="0"/>
</glyph>
<glyph name="B" format="2">
	<unicode hex="0042"/>
	<advance width="633"/>
	<outline>
		<contour>
			<point x="243.5106993929" y="347" type="curve" smooth="yes" identifier="N4YNgYeJLr"/>
			<point x="259.5106993929" y="425"/>
			<point x="267.5106993929" y="456"/>
			<point x="290.5106993929" y="535" type="curve" smooth="yes"/>
			<point x="304.5106993929" y="580"/>
			<point x="276.5106993929" y="629"/>
			<point x="223.5106993929" y="629" type="curve" smooth="yes"/>
			<point x="199.5106993929" y="629"/>
			<point x="163.5106993929" y="613"/>
			<point x="147.5106993929" y="579" type="curve" smooth="yes"/>
			<point x="104.5106993929" y="484"/>
			<point x="89.5106993929" y="438"/>
			<point x="67.5106993929" y="331" type="curve" smooth="yes" identifier="LMmTmciZUC"/>
			<point x="31.5106993929" y="148"/>
			<point x="72.5106993929" y="-18"/>
			<point x="199.5106993929" y="-18" type="curve" smooth="yes"/>
			<point x="330.5106993929" y="-18"/>
			<point x="528.5106993929" y="47"/>
			<point x="563.5106993929" y="222" type="curve" smooth="yes" identifier="lNYaQe3ALy"/>
			<point x="577.5106993929" y="289"/>
			<point x="543.5106993929" y="362"/>
			<point x="404.5106993929" y="378" type="curve"/>
			<point x="402.5106993929" y="323" type="line"/>
			<point x="588.5106993929" y="386"/>
			<point x="638.5106993929" y="463"/>
			<point x="650.5106993929" y="525" type="curve" smooth="yes" identifier="y2gWnKKjsQ"/>
			<point x="679.5106993929" y="668"/>
			<point x="519.5106993929" y="712"/>
			<point x="300.5106993929" y="712" type="curve" smooth="yes"/>
			<point x="163.5106993929" y="712"/>
			<point x="107.5106993929" y="668"/>
			<point x="91.5106993929" y="589" type="curve" smooth="yes" identifier="Ey80bTHPEl"/>
			<point x="83.5106993929" y="550"/>
			<point x="100.5106993929" y="524"/>
			<point x="142.5106993929" y="524" type="curve" smooth="yes"/>
			<point x="162.5106993929" y="524"/>
			<point x="212.5106993929" y="528"/>
			<point x="258.5106993929" y="528" type="curve" smooth="yes"/>
			<point x="457.5106993929" y="528"/>
			<point x="469.5106993929" y="522"/>
			<point x="465.5106993929" y="501" type="curve" smooth="yes" identifier="HQz2OdBjj9"/>
			<point x="457.5106993929" y="462"/>
			<point x="256.5106993929" y="398"/>
			<point x="202.5106993929" y="383" type="curve" smooth="yes"/>
			<point x="179.5106993929" y="377"/>
			<point x="157.5106993929" y="355"/>
			<point x="153.5106993929" y="336" type="curve" smooth="yes" identifier="B2EamiYZSI"/>
			<point x="145.5106993929" y="293"/>
			<point x="164.5106993929" y="262"/>
			<point x="202.5106993929" y="263" type="curve" smooth="yes"/>
			<point x="338.5106993929" y="266"/>
			<point x="399.5106993929" y="252"/>
			<point x="390.5106993929" y="205" type="curve" smooth="yes" identifier="4yX9V5Tkou"/>
			<point x="385.5106993929" y="180"/>
			<point x="300.5106993929" y="153"/>
			<point x="252.5106993929" y="153" type="curve" smooth="yes"/>
			<point x="224.5106993929" y="153"/>
			<point x="213.5106993929" y="197"/>
		</contour>
	</outline>
	<anchor name="top" x="403.511557378" y="700"/>
	<anchor name="bottom" x="220.5106993929" y="0"/>
</glyph>
<glyph name="C" format="2">
	<unicode hex="0043"/>
	<advance width="621"/>
	<outline>
		<contour>
			<point x="311" y="-10" type="curve" smooth="yes"/>
			<point x="456" y="-10"/>
			<point x="542" y="59"/>
			<point x="558" y="143" type="curve" smooth="yes"/>
			<point x="567" y="190"/>
			<point x="555.49431" y="216"/>
			<point x="513.49431" y="216" type="curve" smooth="yes"/>
			<point x="462.49431" y="216"/>
			<point x="440" y="162"/>
			<point x="335" y="162" type="curve" smooth="yes"/>
			<point x="254" y="162"/>
			<point x="214.49431" y="209"/>
			<point x="233.49431" y="304" type="curve" smooth="yes"/>
			<point x="254.49431" y="411"/>
			<point x="351.49431" y="524"/>
			<point x="457.49431" y="524" type="curve" smooth="yes"/>
			<point x="483.49431" y="524"/>
			<point x="486.49431" y="517"/>
			<point x="483.49431" y="500" type="curve" smooth="yes"/>
			<point x="478.49431" y="477"/>
			<point x="494.49431" y="459"/>
			<point x="523.49431" y="459" type="curve" smooth="yes"/>
			<point x="587.49431" y="459"/>
			<point x="634" y="511"/>
			<point x="645" y="571" type="curve" smooth="yes"/>
			<point x="663" y="659"/>
			<point x="624" y="711"/>
			<point x="505" y="711" type="curve" smooth="yes"/>
			<point x="304" y="711"/>
			<point x="100" y="535"/>
			<point x="58" y="324" type="curve" smooth="yes"/>
			<point x="19" y="130"/>
			<point x="113" y="-10"/>
		</contour>
	</outline>
	<anchor name="top" x="467.49517" y="700"/>
	<anchor name="bottom" x="280.49431" y="0"/>
</glyph>
<glyph name="D" format="2">
	<unicode hex="0044"/>
	<advance width="722"/>
	<outline>
		<contour>
			<point x="179.2464230929" y="-10" type="curve" smooth="yes"/>
			<point x="382.2464230929" y="-10"/>
			<point x="666.2464230929" y="168"/>
			<point x="716.2464230929" y="422" type="curve" smooth="yes" identifier="4ZpN41in6o"/>
			<point x="748.2464230929" y="580"/>
			<point x="656.2464230929" y="709"/>
			<point x="442.2464230929" y="709" type="curve" smooth="yes"/>
			<point x="343.2464230929" y="709"/>
			<point x="219.2464230929" y="689"/>
			<point x="145.2464230929" y="670" type="curve" smooth="yes"/>
			<point x="110.2464230929" y="661"/>
			<point x="90.2464230929" y="632"/>
			<point x="85.2464230929" y="607" type="curve" smooth="yes" identifier="fPEkYoQ4fy"/>
			<point x="74.2464230929" y="551"/>
			<point x="107.2464230929" y="494"/>
			<point x="189.2464230929" y="494" type="curve" smooth="yes"/>
			<point x="243.2464230929" y="494"/>
			<point x="297.2464230929" y="532"/>
			<point x="413.2464230929" y="532" type="curve" smooth="yes"/>
			<point x="517.2464230929" y="532"/>
			<point x="550.2464230929" y="485"/>
			<point x="536.2464230929" y="414" type="curve" smooth="yes" identifier="YWdVJohhSI"/>
			<point x="513.2464230929" y="299"/>
			<point x="384.2464230929" y="186"/>
			<point x="155.2464230929" y="145" type="curve"/>
			<point x="269.2464230929" y="118" type="line"/>
			<point x="256.2464230929" y="159"/>
			<point x="256.2464230929" y="190"/>
			<point x="263.2464230929" y="227" type="curve" smooth="yes" identifier="iKFM1HGUjg"/>
			<point x="280.2464230929" y="309"/>
			<point x="308.2464230929" y="427"/>
			<point x="322.2464230929" y="519" type="curve" smooth="yes"/>
			<point x="328.2464230929" y="559"/>
			<point x="295.2464230929" y="591"/>
			<point x="247.2464230929" y="591" type="curve" smooth="yes"/>
			<point x="186.2464230929" y="591"/>
			<point x="160.2464230929" y="574"/>
			<point x="150.2464230929" y="532" type="curve" smooth="yes"/>
			<point x="124.2464230929" y="422"/>
			<point x="105.2464230929" y="324"/>
			<point x="82.2464230929" y="208" type="curve" smooth="yes" identifier="4ETo0eQ6Tz"/>
			<point x="60.2464230929" y="100"/>
			<point x="97.2464230929" y="-10"/>
		</contour>
	</outline>
	<anchor name="top" x="474.247281078" y="700"/>
	<anchor name="bottom" x="190.2464230929" y="0"/>
</glyph>
<glyph name="E" format="2">
	<advance width="704"/>
	<unicode hex="0045"/>
	<anchor x="475.03002" y="700" name="top"/>
	<anchor x="335.02916" y="0" name="bottom"/>
	<anchor x="580.82923" y="54" name="ogonek"/>
	<outline>
		<contour>
			<point x="150.02916" y="523" type="curve" smooth="yes"/>
			<point x="110.02916" y="437"/>
			<point x="89.02916" y="353"/>
			<point x="77.02916" y="293" type="curve" smooth="yes"/>
			<point x="44.02916" y="130"/>
			<point x="116" y="-7"/>
			<point x="330" y="-7" type="curve" smooth="yes"/>
			<point x="514" y="-7"/>
			<point x="622" y="45"/>
			<point x="641.02916" y="139" type="curve" smooth="yes"/>
			<point x="648.02916" y="177"/>
			<point x="640.02916" y="201"/>
			<point x="590.02916" y="201" type="curve" smooth="yes"/>
			<point x="546" y="201"/>
			<point x="462" y="168"/>
			<point x="335" y="168" type="curve" smooth="yes"/>
			<point x="268" y="168"/>
			<point x="238.02916" y="222"/>
			<point x="252.02916" y="291" type="curve" smooth="yes"/>
			<point x="274.02916" y="402"/>
			<point x="318.02916" y="500"/>
			<point x="326.02916" y="542" type="curve" smooth="yes"/>
			<point x="335.02916" y="583"/>
			<point x="295.02916" y="606"/>
			<point x="270.02916" y="606" type="curve" smooth="yes"/>
			<point x="219.02916" y="606"/>
			<point x="174.02916" y="577"/>
		</contour>
		<contour>
			<point x="198.02916" y="235" type="curve" smooth="yes"/>
			<point x="270.02916" y="251"/>
			<point x="346.02916" y="264"/>
			<point x="481.02916" y="272" type="curve" smooth="yes"/>
			<point x="538" y="276"/>
			<point x="587" y="308"/>
			<point x="600" y="368" type="curve" smooth="yes"/>
			<point x="609" y="417"/>
			<point x="588" y="444"/>
			<point x="527.02916" y="444" type="curve" smooth="yes"/>
			<point x="386.02916" y="439"/>
			<point x="307.02916" y="425"/>
			<point x="239.02916" y="410" type="curve" smooth="yes"/>
			<point x="200.02916" y="401"/>
			<point x="165.02916" y="364"/>
			<point x="156.02916" y="322" type="curve" smooth="yes"/>
			<point x="146.02916" y="269"/>
			<point x="149.02916" y="225"/>
		</contour>
		<contour>
			<point x="230.02916" y="502" type="curve" smooth="yes"/>
			<point x="287" y="502"/>
			<point x="476" y="545"/>
			<point x="664" y="545" type="curve" smooth="yes"/>
			<point x="707" y="545"/>
			<point x="730" y="568"/>
			<point x="735.02916" y="597" type="curve" smooth="yes"/>
			<point x="748.02916" y="661"/>
			<point x="692.02916" y="712"/>
			<point x="581.02916" y="712" type="curve" smooth="yes"/>
			<point x="495.02916" y="712"/>
			<point x="321.02916" y="698"/>
			<point x="170.02916" y="652" type="curve" smooth="yes"/>
			<point x="134.02916" y="641"/>
			<point x="123.02916" y="622"/>
			<point x="118.02916" y="597" type="curve" smooth="yes"/>
			<point x="108.02916" y="546"/>
			<point x="144.02916" y="502"/>
		</contour>
	</outline>
</glyph>
<glyph name="F" format="2">
	<unicode hex="0046"/>
	<advance width="594"/>
	<outline>
		<contour>
			<point x="254.1952018319" y="270" type="curve" smooth="yes" identifier="p7VXu3LzB9"/>
			<point x="286.1952018319" y="428"/>
			<point x="311.1952018319" y="492"/>
			<point x="318.1952018319" y="525" type="curve" smooth="yes" identifier="qygwHmB9VR"/>
			<point x="324.1952018319" y="556"/>
			<point x="314.1952018319" y="589"/>
			<point x="263.1952018319" y="589" type="curve" smooth="yes"/>
			<point x="209.1952018319" y="589"/>
			<point x="167.1952018319" y="555"/>
			<point x="141.1952018319" y="491" type="curve" smooth="yes"/>
			<point x="120.1952018319" y="437"/>
			<point x="102.1952018319" y="381"/>
			<point x="85.1952018319" y="294" type="curve" smooth="yes" identifier="5rQtchCkxM"/>
			<point x="61.1952018319" y="174"/>
			<point x="67.1952018319" y="101"/>
			<point x="92.1952018319" y="55" type="curve" smooth="yes"/>
			<point x="119.1952018319" y="3"/>
			<point x="164.1952018319" y="-13"/>
			<point x="196.1952018319" y="-13" type="curve" smooth="yes"/>
			<point x="239.1952018319" y="-13"/>
			<point x="265.1952018319" y="13"/>
			<point x="271.1952018319" y="46" type="curve" smooth="yes" identifier="8aKHHFbzsr"/>
			<point x="284.1952018319" y="111"/>
			<point x="224.1952018319" y="122"/>
		</contour>
		<contour>
			<point x="536.1952018319" y="536" type="curve" smooth="yes"/>
			<point x="592.1952018319" y="536"/>
			<point x="619.1952018319" y="561"/>
			<point x="627.1952018319" y="601" type="curve" smooth="yes" identifier="WQDgIkpsDj"/>
			<point x="639.1952018319" y="662"/>
			<point x="586.1952018319" y="708"/>
			<point x="516.1952018319" y="708" type="curve" smooth="yes"/>
			<point x="395.1952018319" y="708"/>
			<point x="261.1952018319" y="685"/>
			<point x="150.1952018319" y="657" type="curve" smooth="yes"/>
			<point x="111.1952018319" y="647"/>
			<point x="89.1952018319" y="625"/>
			<point x="83.1952018319" y="594" type="curve" smooth="yes" identifier="bByXzQLVgw"/>
			<point x="73.1952018319" y="543"/>
			<point x="98.1952018319" y="490"/>
			<point x="193.1952018319" y="490" type="curve" smooth="yes"/>
			<point x="235.1952018319" y="490"/>
			<point x="349.1952018319" y="536"/>
		</contour>
		<contour>
			<point x="184.1952018319" y="181" type="curve" smooth="yes"/>
			<point x="239.1952018319" y="195"/>
			<point x="355.1952018319" y="212"/>
			<point x="441.1952018319" y="218" type="curve" smooth="yes"/>
			<point x="494.1952018319" y="222"/>
			<point x="552.1952018319" y="255"/>
			<point x="565.1952018319" y="319" type="curve" smooth="yes" identifier="JSbfCdbnIv"/>
			<point x="573.1952018319" y="362"/>
			<point x="559.1952018319" y="387"/>
			<point x="502.1952018319" y="387" type="curve" smooth="yes"/>
			<point x="393.1952018319" y="387"/>
			<point x="284.1952018319" y="372"/>
			<point x="205.1952018319" y="354" type="curve" smooth="yes"/>
			<point x="165.1952018319" y="344"/>
			<point x="114.1952018319" y="293"/>
			<point x="105.1952018319" y="250" type="curve" smooth="yes" identifier="ueOt6bEQgz"/>
			<point x="96.1952018319" y="204"/>
			<point x="118.1952018319" y="165"/>
		</contour>
	</outline>
	<anchor name="top" x="409.196059817" y="700"/>
	<anchor name="bottom" x="208.1952018319" y="0"/>
</glyph>
<glyph name="G" format="2">
	<unicode hex="0047"/>
	<advance width="818"/>
	<outline>
		<contour>
			<point x="428.2305744568" y="246" type="curve" smooth="yes"/>
			<point x="483.2305744568" y="246"/>
			<point x="551.2305744568" y="273"/>
			<point x="715.2305744568" y="273" type="curve" smooth="yes"/>
			<point x="781.2305744568" y="273"/>
			<point x="818.2305744568" y="320"/>
			<point x="828.2305744568" y="371" type="curve" smooth="yes" identifier="3EIVkWALyU"/>
			<point x="837.2305744568" y="416"/>
			<point x="823.2305744568" y="439"/>
			<point x="726.2305744568" y="439" type="curve" smooth="yes"/>
			<point x="610.2305744568" y="437"/>
			<point x="518.2305744568" y="424"/>
			<point x="435.2305744568" y="400" type="curve" smooth="yes"/>
			<point x="380.2305744568" y="385"/>
			<point x="363.2305744568" y="368"/>
			<point x="356.2305744568" y="333" type="curve" smooth="yes" identifier="eGI2NA4LHz"/>
			<point x="345.2305744568" y="282"/>
			<point x="380.2305744568" y="246"/>
		</contour>
		<contour>
			<point x="640.2305744568" y="-118" type="curve" smooth="yes"/>
			<point x="681.2305744568" y="-118"/>
			<point x="713.2305744568" y="-95"/>
			<point x="721.2305744568" y="-54" type="curve" smooth="yes" identifier="11tpwJDWUj"/>
			<point x="726.2305744568" y="-30"/>
			<point x="725.2305744568" y="-20"/>
			<point x="712.2305744568" y="28" type="curve" smooth="yes"/>
			<point x="692.2305744568" y="95"/>
			<point x="692.2305744568" y="147"/>
			<point x="721.2305744568" y="289" type="curve" smooth="yes" identifier="xzDvtVAEqf"/>
			<point x="726.2305744568" y="313"/>
			<point x="712.2305744568" y="322"/>
			<point x="676.2305744568" y="322" type="curve" smooth="yes"/>
			<point x="631.2305744568" y="322"/>
			<point x="597.2305744568" y="312"/>
			<point x="563.2305744568" y="277" type="curve" smooth="yes"/>
			<point x="487.2305744568" y="198"/>
			<point x="383.2305744568" y="162"/>
			<point x="290.2305744568" y="162" type="curve" smooth="yes"/>
			<point x="237.2305744568" y="162"/>
			<point x="216.2305744568" y="192"/>
			<point x="229.2305744568" y="254" type="curve" smooth="yes" identifier="MR9iOlmTQy"/>
			<point x="251.2305744568" y="364"/>
			<point x="392.2305744568" y="514"/>
			<point x="510.2305744568" y="514" type="curve" smooth="yes"/>
			<point x="549.2305744568" y="514"/>
			<point x="526.2305744568" y="477"/>
			<point x="573.2305744568" y="477" type="curve" smooth="yes"/>
			<point x="638.2305744568" y="477"/>
			<point x="695.2305744568" y="539"/>
			<point x="709.2305744568" y="608" type="curve" smooth="yes" identifier="Nou2gv2fFQ"/>
			<point x="720.2305744568" y="667"/>
			<point x="692.2305744568" y="708"/>
			<point x="601.2305744568" y="708" type="curve" smooth="yes"/>
			<point x="364.2305744568" y="708"/>
			<point x="85.2305744568" y="479"/>
			<point x="36.2305744568" y="237" type="curve" smooth="yes" identifier="yhBa335eJA"/>
			<point x="7.2305744568" y="88"/>
			<point x="80.2305744568" y="-10"/>
			<point x="239.2305744568" y="-10" type="curve" smooth="yes"/>
			<point x="350.2305744568" y="-10"/>
			<point x="469.2305744568" y="27"/>
			<point x="568.2305744568" y="100" type="curve"/>
			<point x="524.2305744568" y="124" type="line"/>
			<point x="520.2305744568" y="32"/>
			<point x="528.2305744568" y="-8"/>
			<point x="543.2305744568" y="-48" type="curve" smooth="yes"/>
			<point x="563.2305744568" y="-94"/>
			<point x="588.2305744568" y="-118"/>
		</contour>
	</outline>
	<anchor name="top" x="540.2314324419" y="700"/>
	<anchor name="bottom" x="349.2305744568" y="0"/>
</glyph>
<glyph name="H" format="2">
	<unicode hex="0048"/>
	<advance width="715"/>
	<outline>
		<contour>
			<point x="136.895334139" y="-12" type="curve" smooth="yes"/>
			<point x="182.895334139" y="-12"/>
			<point x="216.895334139" y="15"/>
			<point x="225.895334139" y="61" type="curve" smooth="yes" identifier="Wc4ytPp2Ar"/>
			<point x="252.895334139" y="193"/>
			<point x="286.895334139" y="385"/>
			<point x="325.895334139" y="580" type="curve" smooth="yes" identifier="JkTo6VLruv"/>
			<point x="343.895334139" y="670"/>
			<point x="307.895334139" y="709"/>
			<point x="246.895334139" y="709" type="curve" smooth="yes"/>
			<point x="188.895334139" y="709"/>
			<point x="156.895334139" y="681"/>
			<point x="142.895334139" y="612" type="curve" smooth="yes" identifier="xdQ4SX3SxJ"/>
			<point x="132.895334139" y="558"/>
			<point x="88.895334139" y="259"/>
			<point x="52.895334139" y="119" type="curve" smooth="yes"/>
			<point x="29.895334139" y="31"/>
			<point x="70.895334139" y="-12"/>
		</contour>
		<contour>
			<point x="527.895334139" y="-10" type="curve" smooth="yes"/>
			<point x="575.895334139" y="-10"/>
			<point x="601.895334139" y="15"/>
			<point x="609.895334139" y="57" type="curve" smooth="yes" identifier="sMFSm8e3Rw"/>
			<point x="622.895334139" y="118"/>
			<point x="608.895334139" y="146"/>
			<point x="626.895334139" y="233" type="curve" smooth="yes" identifier="JBx2fRuYwe"/>
			<point x="642.895334139" y="316"/>
			<point x="675.895334139" y="448"/>
			<point x="696.895334139" y="554" type="curve" smooth="yes" identifier="8BfXFk3TMw"/>
			<point x="716.895334139" y="655"/>
			<point x="684.895334139" y="704"/>
			<point x="626.895334139" y="704" type="curve" smooth="yes"/>
			<point x="572.895334139" y="704"/>
			<point x="542.895334139" y="672"/>
			<point x="531.895334139" y="613" type="curve" smooth="yes" identifier="LLc9Bgv95L"/>
			<point x="515.895334139" y="534"/>
			<point x="483.895334139" y="417"/>
			<point x="448.895334139" y="239" type="curve" smooth="yes" identifier="W4zq0MxYUS"/>
			<point x="415.895334139" y="77"/>
			<point x="441.895334139" y="-10"/>
		</contour>
		<contour>
			<point x="190.895334139" y="236" type="curve" smooth="yes"/>
			<point x="251.895334139" y="236"/>
			<point x="356.895334139" y="266"/>
			<point x="628.895334139" y="266" type="curve" smooth="yes"/>
			<point x="659.895334139" y="266"/>
			<point x="682.895334139" y="289"/>
			<point x="689.895334139" y="324" type="curve" smooth="yes" identifier="0m1dceicLu"/>
			<point x="700.895334139" y="382"/>
			<point x="651.895334139" y="429"/>
			<point x="548.895334139" y="429" type="curve" smooth="yes"/>
			<point x="398.895334139" y="429"/>
			<point x="242.895334139" y="427"/>
			<point x="91.895334139" y="383" type="curve" smooth="yes"/>
			<point x="61.895334139" y="375"/>
			<point x="52.895334139" y="359"/>
			<point x="47.895334139" y="334" type="curve" smooth="yes" identifier="szBlSFzGku"/>
			<point x="37.895334139" y="283"/>
			<point x="64.895334139" y="236"/>
		</contour>
	</outline>
	<anchor name="top" x="447.8961921241" y="700"/>
	<anchor name="bottom" x="307.895334139" y="0"/>
</glyph>
<glyph name="I" format="2">
	<unicode hex="0049"/>
	<advance width="565"/>
	<outline>
		<contour>
			<point x="127.201635577" y="-11" type="curve" smooth="yes"/>
			<point x="164.201635577" y="-11"/>
			<point x="250.201635577" y="0"/>
			<point x="352.201635577" y="0" type="curve" smooth="yes"/>
			<point x="446.201635577" y="0"/>
			<point x="494.201635577" y="41"/>
			<point x="504.201635577" y="91" type="curve" smooth="yes" identifier="adCJjvrWAJ"/>
			<point x="512.201635577" y="132"/>
			<point x="496.201635577" y="164"/>
			<point x="394.201635577" y="164" type="curve" smooth="yes"/>
			<point x="261.201635577" y="164"/>
			<point x="233.201635577" y="170"/>
			<point x="70.201635577" y="152" type="curve" smooth="yes"/>
			<point x="25.201635577" y="147"/>
			<point x="-0.798364423" y="122"/>
			<point x="-6.798364423" y="88" type="curve" smooth="yes" identifier="S6ClHUedND"/>
			<point x="-18.798364423" y="31"/>
			<point x="17.201635577" y="-11"/>
		</contour>
		<contour>
			<point x="186.201635577" y="519" type="curve" smooth="yes"/>
			<point x="235.201635577" y="519"/>
			<point x="307.201635577" y="531"/>
			<point x="454.201635577" y="531" type="curve" smooth="yes"/>
			<point x="532.201635577" y="531"/>
			<point x="599.201635577" y="572"/>
			<point x="612.201635577" y="635" type="curve" smooth="yes" identifier="Bs8pnun78s"/>
			<point x="623.201635577" y="690"/>
			<point x="592.201635577" y="710"/>
			<point x="507.201635577" y="710" type="curve" smooth="yes"/>
			<point x="432.201635577" y="710"/>
			<point x="319.201635577" y="702"/>
			<point x="196.201635577" y="687" type="curve" smooth="yes"/>
			<point x="144.201635577" y="681"/>
			<point x="107.201635577" y="653"/>
			<point x="98.201635577" y="608" type="curve" smooth="yes" identifier="FqutgryxsS"/>
			<point x="88.201635577" y="560"/>
			<point x="107.201635577" y="519"/>
		</contour>
		<contour>
			<point x="273.201635577" y="120" type="curve" smooth="yes"/>
			<point x="314.201635577" y="120"/>
			<point x="342.201635577" y="143"/>
			<point x="351.201635577" y="189" type="curve" smooth="yes" identifier="b8DosPSEKh"/>
			<point x="378.201635577" y="327"/>
			<point x="417.201635577" y="437"/>
			<point x="429.201635577" y="495" type="curve" smooth="yes" identifier="0uCivhc37n"/>
			<point x="439.201635577" y="545"/>
			<point x="398.201635577" y="585"/>
			<point x="339.201635577" y="585" type="curve" smooth="yes"/>
			<point x="288.201635577" y="585"/>
			<point x="267.201635577" y="558"/>
			<point x="256.201635577" y="504" type="curve" smooth="yes" identifier="6wwhas06dO"/>
			<point x="239.201635577" y="422"/>
			<point x="202.201635577" y="310"/>
			<point x="179.201635577" y="197" type="curve" smooth="yes" identifier="CrJuM5eWbl"/>
			<point x="170.201635577" y="150"/>
			<point x="207.201635577" y="120"/>
		</contour>
	</outline>
	<anchor name="top" x="380.2024935621" y="700"/>
	<anchor name="bottom" x="240.201635577" y="0"/>
	<anchor name="ogonek" x="430.4016551881" y="16"/>
</glyph>
<glyph name="J" format="2">
	<unicode hex="004A"/>
	<advance width="648"/>
	<outline>
		<contour>
			<point x="240.445151362" y="-12" type="curve" smooth="yes"/>
			<point x="430.445151362" y="-12"/>
			<point x="547.445151362" y="68"/>
			<point x="582.445151362" y="246" type="curve" smooth="yes" identifier="4GoNOYXvx9"/>
			<point x="600.445151362" y="336"/>
			<point x="594.445151362" y="502"/>
			<point x="579.445151362" y="591" type="curve" smooth="yes"/>
			<point x="568.445151362" y="656"/>
			<point x="531.445151362" y="674"/>
			<point x="456.445151362" y="676" type="curve" smooth="yes"/>
			<point x="422.445151362" y="676"/>
			<point x="388.445151362" y="644"/>
			<point x="394.445151362" y="607" type="curve" smooth="yes"/>
			<point x="415.445151362" y="514"/>
			<point x="426.445151362" y="356"/>
			<point x="409.445151362" y="272" type="curve" smooth="yes" identifier="KWA2DPxg5C"/>
			<point x="394.445151362" y="195"/>
			<point x="359.445151362" y="161"/>
			<point x="274.445151362" y="161" type="curve" smooth="yes"/>
			<point x="200.445151362" y="161"/>
			<point x="185.445151362" y="183"/>
			<point x="189.445151362" y="204" type="curve" smooth="yes" identifier="n67FfCqXvN"/>
			<point x="195.445151362" y="234"/>
			<point x="226.445151362" y="258"/>
			<point x="232.445151362" y="289" type="curve" smooth="yes" identifier="0iATiNf0sp"/>
			<point x="237.445151362" y="316"/>
			<point x="223.445151362" y="330"/>
			<point x="190.445151362" y="330" type="curve" smooth="yes"/>
			<point x="85.445151362" y="330"/>
			<point x="25.445151362" y="232"/>
			<point x="13.445151362" y="171" type="curve" smooth="yes" identifier="5nUwLsRPK8"/>
			<point x="-9.554848638" y="57"/>
			<point x="84.445151362" y="-12"/>
		</contour>
		<contour>
			<point x="271.445151362" y="526" type="curve" smooth="yes"/>
			<point x="351.445151362" y="526"/>
			<point x="482.445151362" y="544"/>
			<point x="613.445151362" y="544" type="curve" smooth="yes"/>
			<point x="659.445151362" y="544"/>
			<point x="687.445151362" y="565"/>
			<point x="695.445151362" y="604" type="curve" smooth="yes" identifier="vCst0Q6evF"/>
			<point x="713.445151362" y="693"/>
			<point x="628.445151362" y="712"/>
			<point x="550.445151362" y="712" type="curve" smooth="yes"/>
			<point x="450.445151362" y="712"/>
			<point x="397.445151362" y="700"/>
			<point x="325.445151362" y="700" type="curve" smooth="yes"/>
			<point x="284.445151362" y="700"/>
			<point x="247.445151362" y="713"/>
			<point x="198.445151362" y="713" type="curve" smooth="yes"/>
			<point x="166.445151362" y="713"/>
			<point x="143.445151362" y="691"/>
			<point x="136.445151362" y="657" type="curve" smooth="yes" identifier="4BMnzZzAUi"/>
			<point x="117.445151362" y="561"/>
			<point x="205.445151362" y="526"/>
		</contour>
	</outline>
	<anchor name="top" x="428.4460093471" y="700"/>
	<anchor name="bottom" x="258.445151362" y="0"/>
</glyph>
<glyph name="K" format="2">
	<unicode hex="004B"/>
	<advance width="684"/>
	<outline>
		<contour>
			<point x="109.7696905418" y="-12" type="curve" smooth="yes"/>
			<point x="156.7696905418" y="-12"/>
			<point x="191.7696905418" y="13"/>
			<point x="199.7696905418" y="56" type="curve" smooth="yes" identifier="3NVA03HO7k"/>
			<point x="208.7696905418" y="99"/>
			<point x="203.7696905418" y="131"/>
			<point x="216.7696905418" y="193" type="curve" smooth="yes" identifier="WbZv63iT7x"/>
			<point x="243.7696905418" y="332"/>
			<point x="293.7696905418" y="467"/>
			<point x="310.7696905418" y="552" type="curve" smooth="yes" identifier="WGJdoffJkk"/>
			<point x="323.7696905418" y="617"/>
			<point x="328.7696905418" y="711"/>
			<point x="227.7696905418" y="711" type="curve" smooth="yes"/>
			<point x="175.7696905418" y="711"/>
			<point x="153.7696905418" y="688"/>
			<point x="145.7696905418" y="650" type="curve" smooth="yes" identifier="0nErAZn6eH"/>
			<point x="139.7696905418" y="620"/>
			<point x="145.7696905418" y="598"/>
			<point x="132.7696905418" y="537" type="curve" smooth="yes" identifier="fl2mf8EykS"/>
			<point x="119.7696905418" y="471"/>
			<point x="71.7696905418" y="339"/>
			<point x="40.7696905418" y="187" type="curve" smooth="yes" identifier="n3cdwygS22"/>
			<point x="11.7696905418" y="40"/>
			<point x="25.7696905418" y="-12"/>
		</contour>
		<contour>
			<point x="559.7696905418" y="-11" type="curve" smooth="yes"/>
			<point x="617.7696905418" y="-11"/>
			<point x="646.7696905418" y="21"/>
			<point x="656.7696905418" y="72" type="curve" smooth="yes" identifier="ovISCsofHD"/>
			<point x="666.7696905418" y="120"/>
			<point x="650.7696905418" y="151"/>
			<point x="610.7696905418" y="163" type="curve" smooth="yes"/>
			<point x="495.7696905418" y="197"/>
			<point x="383.7696905418" y="289"/>
			<point x="390.7696905418" y="324" type="curve" smooth="yes" identifier="OYlQ83MHR9"/>
			<point x="398.7696905418" y="364"/>
			<point x="503.7696905418" y="467"/>
			<point x="594.7696905418" y="521" type="curve" smooth="yes"/>
			<point x="654.7696905418" y="556"/>
			<point x="679.7696905418" y="584"/>
			<point x="687.7696905418" y="627" type="curve" smooth="yes" identifier="dPKoQLpmDb"/>
			<point x="700.7696905418" y="691"/>
			<point x="672.7696905418" y="713"/>
			<point x="626.7696905418" y="713" type="curve" smooth="yes"/>
			<point x="599.7696905418" y="713"/>
			<point x="568.7696905418" y="704"/>
			<point x="535.7696905418" y="680" type="curve" smooth="yes"/>
			<point x="403.7696905418" y="586"/>
			<point x="242.7696905418" y="424"/>
			<point x="215.7696905418" y="292" type="curve" smooth="yes" identifier="44kkpn9GWM"/>
			<point x="189.7696905418" y="162"/>
			<point x="445.7696905418" y="-11"/>
		</contour>
	</outline>
	<anchor name="top" x="419.7705485269" y="700"/>
	<anchor name="bottom" x="279.7696905418" y="0"/>
</glyph>
<glyph name="L" format="2">
	<unicode hex="004C"/>
	<advance width="536"/>
	<outline>
		<contour>
			<point x="236.74244457" y="-9" type="curve" smooth="yes"/>
			<point x="299.74244457" y="-9"/>
			<point x="377.74244457" y="6"/>
			<point x="427.74244457" y="42" type="curve" smooth="yes"/>
			<point x="468.74244457" y="72"/>
			<point x="489.74244457" y="111"/>
			<point x="498.74244457" y="153" type="curve" smooth="yes" identifier="DyqnOO7UND"/>
			<point x="505.74244457" y="188"/>
			<point x="489.74244457" y="222"/>
			<point x="457.74244457" y="222" type="curve" smooth="yes"/>
			<point x="395.74244457" y="222"/>
			<point x="377.74244457" y="164"/>
			<point x="278.74244457" y="164" type="curve" smooth="yes"/>
			<point x="217.74244457" y="164"/>
			<point x="199.74244457" y="186"/>
			<point x="209.74244457" y="237" type="curve" smooth="yes" identifier="ThuZuocol5"/>
			<point x="222.74244457" y="300"/>
			<point x="310.74244457" y="457"/>
			<point x="338.74244457" y="594" type="curve" smooth="yes" identifier="4N1uCVhsRx"/>
			<point x="348.74244457" y="644"/>
			<point x="328.74244457" y="710"/>
			<point x="259.74244457" y="710" type="curve" smooth="yes"/>
			<point x="202.74244457" y="710"/>
			<point x="172.74244457" y="676"/>
			<point x="163.74244457" y="629" type="curve" smooth="yes" identifier="4d0xRwDbS7"/>
			<point x="142.74244457" y="526"/>
			<point x="68.74244457" y="398"/>
			<point x="38.74244457" y="251" type="curve" smooth="yes" identifier="sKfBaeMylR"/>
			<point x="4.74244457" y="78"/>
			<point x="69.74244457" y="-9"/>
		</contour>
	</outline>
	<anchor name="top" x="272.7433025551" y="700"/>
	<anchor name="bottom" x="238.74244457" y="0"/>
</glyph>
<glyph name="M" format="2">
	<advance width="1050"/>
	<unicode hex="004D"/>
	<anchor x="642.57981" y="700" name="top"/>
	<anchor x="482.57896" y="0" name="bottom"/>
	<outline>
		<contour>
			<point x="274.57896" y="529" type="line"/>
			<point x="284.57896" y="581"/>
			<point x="257.57896" y="642"/>
			<point x="192.57896" y="642" type="curve" smooth="yes"/>
			<point x="143.57896" y="642"/>
			<point x="121.57896" y="613"/>
			<point x="112.57896" y="572" type="curve" smooth="yes"/>
			<point x="105.57896" y="536"/>
			<point x="108.57896" y="490"/>
			<point x="99.57896" y="444" type="curve" smooth="yes"/>
			<point x="86.57896" y="382"/>
			<point x="65.57896" y="313"/>
			<point x="51.57896" y="243" type="curve" smooth="yes"/>
			<point x="11.57896" y="45"/>
			<point x="30.57896" y="-12"/>
			<point x="102.57896" y="-12" type="curve" smooth="yes"/>
			<point x="152" y="-12"/>
			<point x="188" y="12"/>
			<point x="205" y="77" type="curve" smooth="yes"/>
			<point x="246" y="232"/>
			<point x="291" y="364"/>
			<point x="391.57896" y="485" type="curve"/>
			<point x="377.57896" y="487" type="line"/>
			<point x="390.57896" y="431"/>
			<point x="387.57896" y="379"/>
			<point x="383.57896" y="300" type="curve" smooth="yes"/>
			<point x="378.57896" y="180"/>
			<point x="384.57896" y="101"/>
			<point x="409.57896" y="37" type="curve" smooth="yes"/>
			<point x="422.57896" y="4"/>
			<point x="441.57896" y="-10"/>
			<point x="480.57896" y="-10" type="curve" smooth="yes"/>
			<point x="519.57896" y="-10"/>
			<point x="550" y="8"/>
			<point x="576" y="54" type="curve" smooth="yes"/>
			<point x="709" y="282"/>
			<point x="760" y="444"/>
			<point x="851" y="528" type="curve"/>
			<point x="796" y="555" type="line"/>
			<point x="814" y="510"/>
			<point x="813" y="462"/>
			<point x="807" y="407" type="curve" smooth="yes"/>
			<point x="799" y="309"/>
			<point x="769.57896" y="150"/>
			<point x="797.57896" y="67" type="curve" smooth="yes"/>
			<point x="814.57896" y="17"/>
			<point x="843.57896" y="-9"/>
			<point x="897.57896" y="-9" type="curve" smooth="yes"/>
			<point x="966.57896" y="-9"/>
			<point x="1000.57896" y="42"/>
			<point x="988.57896" y="104" type="curve" smooth="yes"/>
			<point x="970.57896" y="194"/>
			<point x="980.57896" y="338"/>
			<point x="993.57896" y="486" type="curve" smooth="yes"/>
			<point x="1008.57896" y="649"/>
			<point x="966.57896" y="716"/>
			<point x="877.57896" y="716" type="curve" smooth="yes"/>
			<point x="793.57896" y="716"/>
			<point x="728" y="643"/>
			<point x="672" y="565" type="curve" smooth="yes"/>
			<point x="605" y="468"/>
			<point x="553" y="338"/>
			<point x="505" y="253" type="curve"/>
			<point x="562" y="215" type="line"/>
			<point x="543" y="298"/>
			<point x="558" y="363"/>
			<point x="556" y="504" type="curve" smooth="yes"/>
			<point x="555" y="668"/>
			<point x="531.57896" y="709"/>
			<point x="466.57896" y="709" type="curve" smooth="yes"/>
			<point x="392.57896" y="709"/>
			<point x="308" y="627"/>
			<point x="241" y="516" type="curve"/>
		</contour>
	</outline>
</glyph>
<glyph name="N" format="2">
	<unicode hex="004E"/>
	<advance width="801"/>
	<outline>
		<contour>
			<point x="86" y="-20" type="curve" smooth="yes"/>
			<point x="142" y="-20"/>
			<point x="169" y="6"/>
			<point x="188" y="47" type="curve" smooth="yes"/>
			<point x="213" y="118"/>
			<point x="239" y="220"/>
			<point x="273" y="342" type="curve" smooth="yes"/>
			<point x="283" y="392"/>
			<point x="287" y="420"/>
			<point x="290" y="488" type="curve"/>
			<point x="257" y="482" type="line"/>
			<point x="363" y="257"/>
			<point x="357" y="-17"/>
			<point x="526.33242" y="-17" type="curve" smooth="yes"/>
			<point x="656.33242" y="-17"/>
			<point x="698.33242" y="92"/>
			<point x="728.33242" y="242" type="curve" smooth="yes"/>
			<point x="758.33242" y="391"/>
			<point x="753.33242" y="468"/>
			<point x="804.33242" y="597" type="curve" smooth="yes"/>
			<point x="822.33242" y="640"/>
			<point x="811" y="715"/>
			<point x="727" y="715" type="curve" smooth="yes"/>
			<point x="690" y="715"/>
			<point x="664" y="695"/>
			<point x="640" y="643" type="curve" smooth="yes"/>
			<point x="576" y="505"/>
			<point x="588" y="389"/>
			<point x="555" y="227" type="curve" smooth="yes"/>
			<point x="538" y="139"/>
			<point x="496" y="116"/>
			<point x="471" y="106" type="curve"/>
			<point x="579" y="152" type="line"/>
			<point x="466" y="236"/>
			<point x="464" y="710"/>
			<point x="230.33242" y="710" type="curve" smooth="yes"/>
			<point x="178.33242" y="710"/>
			<point x="145.33242" y="678"/>
			<point x="137.33242" y="638" type="curve" smooth="yes"/>
			<point x="130.33242" y="605"/>
			<point x="116.33242" y="457"/>
			<point x="93.33242" y="342" type="curve" smooth="yes"/>
			<point x="55" y="145"/>
			<point x="25" y="116"/>
			<point x="14" y="63" type="curve" smooth="yes"/>
			<point x="7" y="22"/>
			<point x="32" y="-20"/>
		</contour>
	</outline>
	<anchor name="top" x="476.33327" y="700"/>
	<anchor name="bottom" x="336.33242" y="0"/>
</glyph>
<glyph name="O" format="2">
	<advance width="756"/>
	<unicode hex="004F"/>
	<anchor x="455.88187" y="700" name="top"/>
	<anchor x="315.88102" y="0" name="bottom"/>
	<anchor x="464.68105" y="29" name="ogonek"/>
	<outline>
		<contour>
			<point x="378.88102" y="486" type="curve" smooth="yes"/>
			<point x="416.88102" y="509"/>
			<point x="438.88102" y="542"/>
			<point x="417.88102" y="584" type="curve" smooth="yes"/>
			<point x="403.88102" y="611"/>
			<point x="388.88102" y="619"/>
			<point x="354.88102" y="619" type="curve" smooth="yes"/>
			<point x="288.88102" y="619"/>
			<point x="93" y="507"/>
			<point x="55" y="316" type="curve" smooth="yes"/>
			<point x="18" y="131"/>
			<point x="139" y="-10"/>
			<point x="329" y="-10" type="curve" smooth="yes"/>
			<point x="509" y="-10"/>
			<point x="680" y="101"/>
			<point x="715" y="278" type="curve" smooth="yes"/>
			<point x="756" y="483"/>
			<point x="659.88102" y="711"/>
			<point x="459.88102" y="711" type="curve" smooth="yes"/>
			<point x="364.88102" y="711"/>
			<point x="300.88102" y="661"/>
			<point x="289.88102" y="606" type="curve" smooth="yes"/>
			<point x="271.88102" y="515"/>
			<point x="317.88102" y="469"/>
			<point x="371.88102" y="469" type="curve" smooth="yes"/>
			<point x="397.88102" y="469"/>
			<point x="416.88102" y="484"/>
			<point x="421.88102" y="512" type="curve" smooth="yes"/>
			<point x="425.88102" y="528"/>
			<point x="433.88102" y="536"/>
			<point x="444.88102" y="536" type="curve" smooth="yes"/>
			<point x="515.88102" y="536"/>
			<point x="564" y="411"/>
			<point x="542" y="300" type="curve" smooth="yes"/>
			<point x="526" y="214"/>
			<point x="433" y="156"/>
			<point x="342" y="156" type="curve" smooth="yes"/>
			<point x="261" y="156"/>
			<point x="206.88102" y="199"/>
			<point x="224.88102" y="290" type="curve" smooth="yes"/>
			<point x="239.88102" y="365"/>
			<point x="272.88102" y="420"/>
		</contour>
	</outline>
</glyph>
<glyph name="P" format="2">
	<unicode hex="0050"/>
	<advance width="642"/>
	<outline>
		<contour>
			<point x="55.6642215333" y="135" type="curve" smooth="yes" identifier="aA5UWJBqQ8"/>
			<point x="34.6642215333" y="30"/>
			<point x="74.6642215333" y="-10"/>
			<point x="132.6642215333" y="-10" type="curve" smooth="yes"/>
			<point x="194.6642215333" y="-10"/>
			<point x="213.6642215333" y="34"/>
			<point x="225.6642215333" y="97" type="curve" smooth="yes" identifier="QmugsPoUd6"/>
			<point x="260.6642215333" y="270"/>
			<point x="235.6642215333" y="365"/>
			<point x="255.6642215333" y="466" type="curve" smooth="yes" identifier="UI2l2tm4EJ"/>
			<point x="264.6642215333" y="509"/>
			<point x="310.6642215333" y="533"/>
			<point x="393.6642215333" y="533" type="curve" smooth="yes"/>
			<point x="443.6642215333" y="533"/>
			<point x="487.6642215333" y="516"/>
			<point x="480.6642215333" y="480" type="curve" smooth="yes" identifier="34ojTQZgY3"/>
			<point x="467.6642215333" y="415"/>
			<point x="383.6642215333" y="348"/>
			<point x="302.6642215333" y="348" type="curve" smooth="yes"/>
			<point x="245.6642215333" y="348"/>
			<point x="236.6642215333" y="366"/>
			<point x="211.6642215333" y="366" type="curve" smooth="yes"/>
			<point x="176.6642215333" y="366"/>
			<point x="144.6642215333" y="344"/>
			<point x="136.6642215333" y="303" type="curve" smooth="yes" identifier="6q2hibtfeM"/>
			<point x="123.6642215333" y="241"/>
			<point x="182.6642215333" y="183"/>
			<point x="276.6642215333" y="183" type="curve" smooth="yes"/>
			<point x="447.6642215333" y="183"/>
			<point x="620.6642215333" y="317"/>
			<point x="653.6642215333" y="480" type="curve" smooth="yes" identifier="KR4KvBGsai"/>
			<point x="682.6642215333" y="625"/>
			<point x="576.6642215333" y="708"/>
			<point x="427.6642215333" y="708" type="curve" smooth="yes"/>
			<point x="210.6642215333" y="708"/>
			<point x="111.6642215333" y="612"/>
			<point x="82.6642215333" y="466" type="curve" smooth="yes" identifier="YXqstc9vLy"/>
			<point x="62.6642215333" y="363"/>
			<point x="90.6642215333" y="311"/>
		</contour>
	</outline>
	<anchor name="top" x="427.6650795184" y="700"/>
	<anchor name="bottom" x="134.6642215333" y="0"/>
</glyph>
<glyph name="Q" format="2">
	<unicode hex="0051"/>
	<advance width="784"/>
	<outline>
		<contour>
			<point x="505.5454203414" y="257" type="curve" smooth="yes"/>
			<point x="479.5454203414" y="302"/>
			<point x="453.5454203414" y="324"/>
			<point x="399.5454203414" y="324" type="curve" smooth="yes"/>
			<point x="325.5454203414" y="324"/>
			<point x="297.5454203414" y="271"/>
			<point x="334.5454203414" y="200" type="curve" smooth="yes"/>
			<point x="372.5454203414" y="128"/>
			<point x="401.5454203414" y="2"/>
			<point x="444.5454203414" y="-59" type="curve" smooth="yes"/>
			<point x="472.5454203414" y="-99"/>
			<point x="490.5454203414" y="-108"/>
			<point x="526.5454203414" y="-108" type="curve" smooth="yes"/>
			<point x="606.5454203414" y="-108"/>
			<point x="631.5454203414" y="-15"/>
			<point x="581.5454203414" y="73" type="curve" smooth="yes"/>
			<point x="546.5454203414" y="134"/>
			<point x="523.5454203414" y="227"/>
		</contour>
		<contour>
			<point x="384.5454203414" y="510" type="curve" smooth="yes"/>
			<point x="434.5454203414" y="531"/>
			<point x="442.5454203414" y="547"/>
			<point x="448.5454203414" y="574" type="curve" smooth="yes" identifier="HoBQIO1hit"/>
			<point x="456.5454203414" y="617"/>
			<point x="406.5454203414" y="656"/>
			<point x="367.5454203414" y="656" type="curve" smooth="yes"/>
			<point x="277.5454203414" y="656"/>
			<point x="92.5454203414" y="496"/>
			<point x="56.5454203414" y="313" type="curve" smooth="yes" identifier="xOoNU7pFo7"/>
			<point x="22.5454203414" y="144"/>
			<point x="84.5454203414" y="-9"/>
			<point x="341.5454203414" y="-9" type="curve" smooth="yes"/>
			<point x="556.5454203414" y="-9"/>
			<point x="718.5454203414" y="156"/>
			<point x="752.5454203414" y="327" type="curve" smooth="yes" identifier="kUuYn0Kqhu"/>
			<point x="796.5454203414" y="546"/>
			<point x="689.5454203414" y="709"/>
			<point x="524.5454203414" y="709" type="curve" smooth="yes"/>
			<point x="403.5454203414" y="709"/>
			<point x="258.5454203414" y="587"/>
			<point x="240.5454203414" y="497" type="curve" smooth="yes" identifier="Ibg445LkKq"/>
			<point x="229.5454203414" y="438"/>
			<point x="251.5454203414" y="414"/>
			<point x="305.5454203414" y="414" type="curve" smooth="yes"/>
			<point x="328.5454203414" y="414"/>
			<point x="345.5454203414" y="424"/>
			<point x="367.5454203414" y="455" type="curve" smooth="yes"/>
			<point x="399.5454203414" y="500"/>
			<point x="427.5454203414" y="524"/>
			<point x="472.5454203414" y="524" type="curve" smooth="yes"/>
			<point x="553.5454203414" y="524"/>
			<point x="594.5454203414" y="410"/>
			<point x="575.5454203414" y="315" type="curve" smooth="yes" identifier="OQqjMbTHlH"/>
			<point x="560.5454203414" y="239"/>
			<point x="480.5454203414" y="166"/>
			<point x="376.5454203414" y="166" type="curve" smooth="yes"/>
			<point x="245.5454203414" y="166"/>
			<point x="211.5454203414" y="237"/>
			<point x="227.5454203414" y="313" type="curve" smooth="yes" identifier="hNv3DYjXtu"/>
			<point x="242.5454203414" y="392"/>
			<point x="302.5454203414" y="476"/>
		</contour>
	</outline>
	<anchor name="top" x="522.5462783265" y="700"/>
	<anchor name="bottom" x="382.5454203414" y="0"/>
</glyph>
<glyph name="R" format="2">
	<unicode hex="0052"/>
	<advance width="756"/>
	<outline>
		<contour>
			<point x="201.2204231485" y="679" type="curve" smooth="yes"/>
			<point x="137.2204231485" y="679"/>
			<point x="110.2204231485" y="643"/>
			<point x="114.2204231485" y="588" type="curve" smooth="yes"/>
			<point x="122.2204231485" y="489"/>
			<point x="134.2204231485" y="422"/>
			<point x="110.2204231485" y="313" type="curve"/>
			<point x="60.2204231485" y="240"/>
			<point x="31.2204231485" y="175"/>
			<point x="21.2204231485" y="126" type="curve" smooth="yes" identifier="pxzOF0upWD"/>
			<point x="3.2204231485" y="35"/>
			<point x="45.2204231485" y="-13"/>
			<point x="101.2204231485" y="-13" type="curve" smooth="yes"/>
			<point x="152.2204231485" y="-13"/>
			<point x="184.2204231485" y="15"/>
			<point x="194.2204231485" y="65" type="curve" smooth="yes" identifier="QlICRKhfWj"/>
			<point x="276.2204231485" y="473"/>
			<point x="535.2204231485" y="540"/>
			<point x="562.2204231485" y="540" type="curve" smooth="yes"/>
			<point x="576.2204231485" y="540"/>
			<point x="581.2204231485" y="534"/>
			<point x="578.2204231485" y="520" type="curve" smooth="yes" identifier="7yThTYKyT2"/>
			<point x="570.2204231485" y="482"/>
			<point x="467.2204231485" y="371"/>
			<point x="223.2204231485" y="323" type="curve" smooth="yes"/>
			<point x="182.2204231485" y="315"/>
			<point x="151.2204231485" y="237"/>
			<point x="168.2204231485" y="206" type="curve" smooth="yes"/>
			<point x="227.2204231485" y="104"/>
			<point x="473.2204231485" y="-12"/>
			<point x="567.2204231485" y="-12" type="curve" smooth="yes"/>
			<point x="640.2204231485" y="-12"/>
			<point x="686.2204231485" y="22"/>
			<point x="697.2204231485" y="77" type="curve" smooth="yes" identifier="MvzwwbVIgm"/>
			<point x="704.2204231485" y="111"/>
			<point x="689.2204231485" y="130"/>
			<point x="623.2204231485" y="146" type="curve" smooth="yes"/>
			<point x="551.2204231485" y="165"/>
			<point x="471.2204231485" y="193"/>
			<point x="398.2204231485" y="233" type="curve"/>
			<point x="583.2204231485" y="286"/>
			<point x="728.2204231485" y="400"/>
			<point x="754.2204231485" y="529" type="curve" smooth="yes" identifier="IvYI2AH2sC"/>
			<point x="774.2204231485" y="630"/>
			<point x="738.2204231485" y="710"/>
			<point x="610.2204231485" y="710" type="curve" smooth="yes"/>
			<point x="493.2204231485" y="710"/>
			<point x="369.2204231485" y="636"/>
			<point x="277.2204231485" y="528" type="curve"/>
			<point x="306.2204231485" y="524" type="line"/>
			<point x="303.2204231485" y="640"/>
			<point x="276.2204231485" y="679"/>
		</contour>
	</outline>
	<anchor name="top" x="457.2212811336" y="700"/>
	<anchor name="bottom" x="317.2204231485" y="0"/>
</glyph>
<glyph name="S" format="2">
	<unicode hex="0053"/>
	<advance width="578"/>
	<outline>
		<contour>
			<point x="199.3697352058" y="-9" type="curve" smooth="yes"/>
			<point x="396.3697352058" y="-9"/>
			<point x="504.3697352058" y="46"/>
			<point x="529.3697352058" y="168" type="curve" smooth="yes" identifier="5qzu9TiCxe"/>
			<point x="567.3697352058" y="362"/>
			<point x="242.3697352058" y="385"/>
			<point x="255.3697352058" y="451" type="curve" smooth="yes" identifier="IgaNuA52hn"/>
			<point x="261.3697352058" y="481"/>
			<point x="374.3697352058" y="518"/>
			<point x="528.3697352058" y="546" type="curve" smooth="yes"/>
			<point x="567.3697352058" y="553"/>
			<point x="589.3697352058" y="581"/>
			<point x="596.3697352058" y="615" type="curve" smooth="yes" identifier="mgCDOZLaEk"/>
			<point x="606.3697352058" y="664"/>
			<point x="591.3697352058" y="710"/>
			<point x="519.3697352058" y="710" type="curve" smooth="yes"/>
			<point x="396.3697352058" y="710"/>
			<point x="108.3697352058" y="612"/>
			<point x="77.3697352058" y="455" type="curve" smooth="yes" identifier="K2RLqACkbT"/>
			<point x="37.3697352058" y="257"/>
			<point x="328.3697352058" y="236"/>
			<point x="348.3697352058" y="172" type="curve"/>
			<point x="303.3697352058" y="161"/>
			<point x="277.3697352058" y="158"/>
			<point x="217.3697352058" y="158" type="curve" smooth="yes"/>
			<point x="139.3697352058" y="158"/>
			<point x="126.3697352058" y="185"/>
			<point x="84.3697352058" y="185" type="curve" smooth="yes"/>
			<point x="50.3697352058" y="185"/>
			<point x="32.3697352058" y="163"/>
			<point x="25.3697352058" y="129" type="curve" smooth="yes" identifier="cHc79LuD2D"/>
			<point x="10.3697352058" y="54"/>
			<point x="66.3697352058" y="-9"/>
		</contour>
	</outline>
	<anchor name="top" x="382.3705931909" y="700"/>
	<anchor name="bottom" x="242.3697352058" y="0"/>
</glyph>
<glyph name="T" format="2">
	<unicode hex="0054"/>
	<advance width="625"/>
	<outline>
		<contour>
			<point x="279.637867598" y="568" type="curve" smooth="yes"/>
			<point x="198.637867598" y="286"/>
			<point x="177.637867598" y="195"/>
			<point x="184.637867598" y="85" type="curve" smooth="yes"/>
			<point x="192.637867598" y="10"/>
			<point x="227.637867598" y="-13"/>
			<point x="272.637867598" y="-13" type="curve" smooth="yes"/>
			<point x="323.637867598" y="-13"/>
			<point x="351.637867598" y="6"/>
			<point x="362.637867598" y="61" type="curve" smooth="yes" identifier="RvuRuaP4WE"/>
			<point x="376.637867598" y="130"/>
			<point x="355.637867598" y="173"/>
			<point x="445.637867598" y="514" type="curve" smooth="yes"/>
			<point x="467.637867598" y="602"/>
			<point x="448.637867598" y="640"/>
			<point x="365.637867598" y="640" type="curve" smooth="yes"/>
			<point x="324.637867598" y="640"/>
			<point x="290.637867598" y="610"/>
		</contour>
		<contour>
			<point x="180.637867598" y="543" type="curve" smooth="yes"/>
			<point x="288.637867598" y="532"/>
			<point x="392.637867598" y="532"/>
			<point x="528.637867598" y="532" type="curve" smooth="yes"/>
			<point x="596.637867598" y="532"/>
			<point x="674.637867598" y="566"/>
			<point x="691.637867598" y="649" type="curve" smooth="yes" identifier="HEZY4Cgrkd"/>
			<point x="698.637867598" y="686"/>
			<point x="683.637867598" y="711"/>
			<point x="641.637867598" y="711" type="curve" smooth="yes"/>
			<point x="558.637867598" y="711"/>
			<point x="507.637867598" y="700"/>
			<point x="443.637867598" y="700" type="curve" smooth="yes"/>
			<point x="351.637867598" y="700"/>
			<point x="268.637867598" y="710"/>
			<point x="155.637867598" y="710" type="curve" smooth="yes"/>
			<point x="117.637867598" y="710"/>
			<point x="97.637867598" y="683"/>
			<point x="90.637867598" y="651" type="curve" smooth="yes" identifier="1XQWVUNRrp"/>
			<point x="77.637867598" y="585"/>
			<point x="97.637867598" y="551"/>
		</contour>
	</outline>
	<anchor name="top" x="407.6387255831" y="700"/>
	<anchor name="bottom" x="278.637867598" y="0"/>
</glyph>
<glyph name="U" format="2">
	<advance width="689"/>
	<unicode hex="0055"/>
	<anchor x="443.98671" y="700" name="top"/>
	<anchor x="303.98586" y="0" name="bottom"/>
	<anchor x="433.18587" y="11" name="ogonek"/>
	<outline>
		<contour>
			<point x="330" y="-13" type="curve" smooth="yes"/>
			<point x="516" y="-13"/>
			<point x="611" y="97"/>
			<point x="648" y="281" type="curve" smooth="yes"/>
			<point x="664" y="365"/>
			<point x="672.98586" y="448"/>
			<point x="686.98586" y="520" type="curve" smooth="yes"/>
			<point x="698.98586" y="578"/>
			<point x="712.98586" y="605"/>
			<point x="719.98586" y="638" type="curve" smooth="yes"/>
			<point x="728.98586" y="687"/>
			<point x="702.98586" y="712"/>
			<point x="652.98586" y="712" type="curve" smooth="yes"/>
			<point x="581.98586" y="712"/>
			<point x="537.98586" y="655"/>
			<point x="521.98586" y="574" type="curve" smooth="yes"/>
			<point x="500.98586" y="472"/>
			<point x="495.98586" y="413"/>
			<point x="473.98586" y="305" type="curve" smooth="yes"/>
			<point x="452.98586" y="198"/>
			<point x="409.98586" y="165"/>
			<point x="339.98586" y="165" type="curve" smooth="yes"/>
			<point x="260.98586" y="165"/>
			<point x="231.98586" y="194"/>
			<point x="258.98586" y="332" type="curve" smooth="yes"/>
			<point x="271.98586" y="395"/>
			<point x="299" y="483"/>
			<point x="311" y="544" type="curve" smooth="yes"/>
			<point x="338" y="673"/>
			<point x="292" y="716"/>
			<point x="225" y="716" type="curve" smooth="yes"/>
			<point x="172" y="716"/>
			<point x="138.98586" y="696"/>
			<point x="128.98586" y="645" type="curve" smooth="yes"/>
			<point x="118.98586" y="595"/>
			<point x="130.98586" y="583"/>
			<point x="110.98586" y="486" type="curve" smooth="yes"/>
			<point x="103.98586" y="450"/>
			<point x="87.98586" y="396"/>
			<point x="76.98586" y="342" type="curve" smooth="yes"/>
			<point x="32.98586" y="122"/>
			<point x="111" y="-13"/>
		</contour>
	</outline>
</glyph>
<glyph name="V" format="2">
	<unicode hex="0056"/>
	<advance width="714"/>
	<outline>
		<contour>
			<point x="313.325086906" y="-12" type="curve" smooth="yes"/>
			<point x="370.325086906" y="-12"/>
			<point x="395.325086906" y="17"/>
			<point x="422.325086906" y="70" type="curve" smooth="yes"/>
			<point x="514.325086906" y="244"/>
			<point x="603.325086906" y="358"/>
			<point x="707.325086906" y="487" type="curve" smooth="yes"/>
			<point x="754.325086906" y="545"/>
			<point x="761.325086906" y="555"/>
			<point x="771.325086906" y="606" type="curve" smooth="yes" identifier="2OZhOglV97"/>
			<point x="783.325086906" y="666"/>
			<point x="761.325086906" y="715"/>
			<point x="708.325086906" y="715" type="curve" smooth="yes"/>
			<point x="677.325086906" y="715"/>
			<point x="651.325086906" y="709"/>
			<point x="587.325086906" y="633" type="curve" smooth="yes"/>
			<point x="478.325086906" y="504"/>
			<point x="382.325086906" y="366"/>
			<point x="305.325086906" y="198" type="curve"/>
			<point x="362.325086906" y="257" type="line"/>
			<point x="322.325086906" y="337"/>
			<point x="337.325086906" y="563"/>
			<point x="266.325086906" y="669" type="curve" smooth="yes"/>
			<point x="243.325086906" y="703"/>
			<point x="218.325086906" y="712"/>
			<point x="187.325086906" y="712" type="curve" smooth="yes"/>
			<point x="128.325086906" y="712"/>
			<point x="94.325086906" y="671"/>
			<point x="86.325086906" y="629" type="curve" smooth="yes" identifier="Cf1q0zL7zH"/>
			<point x="77.325086906" y="586"/>
			<point x="96.325086906" y="554"/>
			<point x="111.325086906" y="524" type="curve" smooth="yes"/>
			<point x="163.325086906" y="417"/>
			<point x="126.325086906" y="315"/>
			<point x="205.325086906" y="89" type="curve" smooth="yes"/>
			<point x="230.325086906" y="15"/>
			<point x="253.325086906" y="-12"/>
		</contour>
	</outline>
	<anchor name="top" x="448.3259448911" y="700"/>
	<anchor name="bottom" x="308.325086906" y="0"/>
</glyph>
<glyph name="W" format="2">
	<unicode hex="0057"/>
	<advance width="1005"/>
	<outline>
		<contour>
			<point x="298.9243484225" y="599" type="curve" smooth="yes"/>
			<point x="306.9243484225" y="660"/>
			<point x="281.9243484225" y="712"/>
			<point x="211.9243484225" y="712" type="curve" smooth="yes"/>
			<point x="145.9243484225" y="712"/>
			<point x="114.9243484225" y="676"/>
			<point x="108.9243484225" y="631" type="curve" smooth="yes"/>
			<point x="84.9243484225" y="450"/>
			<point x="95.9243484225" y="255"/>
			<point x="128.9243484225" y="84" type="curve" smooth="yes"/>
			<point x="144.9243484225" y="3"/>
			<point x="182.9243484225" y="-8"/>
			<point x="209.9243484225" y="-8" type="curve" smooth="yes"/>
			<point x="252.9243484225" y="-8"/>
			<point x="278.9243484225" y="13"/>
			<point x="301.9243484225" y="59" type="curve" smooth="yes"/>
			<point x="384.9243484225" y="222"/>
			<point x="466.9243484225" y="352"/>
			<point x="560.9243484225" y="441" type="curve"/>
			<point x="506.9243484225" y="460" type="line"/>
			<point x="553.9243484225" y="375"/>
			<point x="544.9243484225" y="166"/>
			<point x="608.9243484225" y="59" type="curve" smooth="yes"/>
			<point x="637.9243484225" y="10"/>
			<point x="665.9243484225" y="-12"/>
			<point x="718.9243484225" y="-12" type="curve" smooth="yes"/>
			<point x="743.9243484225" y="-12"/>
			<point x="771.9243484225" y="-1"/>
			<point x="797.9243484225" y="42" type="curve" smooth="yes"/>
			<point x="889.9243484225" y="193"/>
			<point x="951.9243484225" y="415"/>
			<point x="1020.9243484225" y="559" type="curve" smooth="yes"/>
			<point x="1056.9243484225" y="634"/>
			<point x="1055.9243484225" y="712"/>
			<point x="965.9243484225" y="712" type="curve" smooth="yes"/>
			<point x="921.9243484225" y="712"/>
			<point x="889.9243484225" y="692"/>
			<point x="861.9243484225" y="645" type="curve" smooth="yes"/>
			<point x="814.9243484225" y="570"/>
			<point x="764.9243484225" y="367"/>
			<point x="697.9243484225" y="242" type="curve"/>
			<point x="761.9243484225" y="245" type="line"/>
			<point x="713.9243484225" y="336"/>
			<point x="726.9243484225" y="498"/>
			<point x="700.9243484225" y="578" type="curve" smooth="yes"/>
			<point x="680.9243484225" y="635"/>
			<point x="657.9243484225" y="655"/>
			<point x="618.9243484225" y="655" type="curve" smooth="yes"/>
			<point x="560.9243484225" y="655"/>
			<point x="517.9243484225" y="630"/>
			<point x="474.9243484225" y="590" type="curve" smooth="yes"/>
			<point x="386.9243484225" y="509"/>
			<point x="310.9243484225" y="407"/>
			<point x="248.9243484225" y="280" type="curve"/>
			<point x="288.9243484225" y="294" type="line"/>
			<point x="278.9243484225" y="405"/>
			<point x="281.9243484225" y="475"/>
		</contour>
	</outline>
	<anchor name="top" x="605.9252064076" y="700"/>
	<anchor name="bottom" x="465.9243484225" y="0"/>
</glyph>
<glyph name="X" format="2">
	<unicode hex="0058"/>
	<advance width="672"/>
	<outline>
		<contour>
			<point x="296.8025446925" y="635" type="curve" smooth="yes"/>
			<point x="284.8025446925" y="687"/>
			<point x="257.8025446925" y="713"/>
			<point x="207.8025446925" y="712" type="curve" smooth="yes"/>
			<point x="121.8025446925" y="711"/>
			<point x="82.8025446925" y="650"/>
			<point x="101.8025446925" y="546" type="curve" smooth="yes"/>
			<point x="133.8025446925" y="381"/>
			<point x="358.8025446925" y="193"/>
			<point x="405.8025446925" y="66" type="curve" smooth="yes"/>
			<point x="427.8025446925" y="8"/>
			<point x="458.8025446925" y="-12"/>
			<point x="499.8025446925" y="-12" type="curve" smooth="yes"/>
			<point x="578.8025446925" y="-12"/>
			<point x="635.8025446925" y="67"/>
			<point x="582.8025446925" y="180" type="curve" smooth="yes"/>
			<point x="519.8025446925" y="315"/>
			<point x="351.8025446925" y="392"/>
		</contour>
		<contour>
			<point x="669.8025446925" y="536" type="curve" smooth="yes"/>
			<point x="755.8025446925" y="610"/>
			<point x="715.8025446925" y="706"/>
			<point x="644.8025446925" y="707" type="curve" smooth="yes"/>
			<point x="610.8025446925" y="707"/>
			<point x="587.8025446925" y="695"/>
			<point x="550.8025446925" y="663" type="curve" smooth="yes"/>
			<point x="455.8025446925" y="587"/>
			<point x="273.8025446925" y="423"/>
			<point x="58.8025446925" y="183" type="curve" smooth="yes"/>
			<point x="-28.1974553075" y="87"/>
			<point x="6.8025446925" y="-5"/>
			<point x="72.8025446925" y="-5" type="curve" smooth="yes"/>
			<point x="112.8025446925" y="-5"/>
			<point x="133.8025446925" y="11"/>
			<point x="164.8025446925" y="52" type="curve" smooth="yes"/>
			<point x="282.8025446925" y="205"/>
			<point x="516.8025446925" y="404"/>
		</contour>
	</outline>
	<anchor name="top" x="428.8034026776" y="700"/>
	<anchor name="bottom" x="288.8025446925" y="0"/>
</glyph>
<glyph name="Y" format="2">
	<unicode hex="0059"/>
	<advance width="626"/>
	<outline>
		<contour>
			<point x="617.3706557504" y="523" type="curve" smooth="yes"/>
			<point x="664.3706557504" y="561"/>
			<point x="681.3706557504" y="588"/>
			<point x="688.3706557504" y="625" type="curve" smooth="yes" identifier="V18jAATkii"/>
			<point x="699.3706557504" y="679"/>
			<point x="680.3706557504" y="713"/>
			<point x="637.3706557504" y="713" type="curve" smooth="yes"/>
			<point x="615.3706557504" y="713"/>
			<point x="596.3706557504" y="706"/>
			<point x="563.3706557504" y="683" type="curve" smooth="yes"/>
			<point x="368.3706557504" y="551"/>
			<point x="184.3706557504" y="295"/>
			<point x="121.3706557504" y="133" type="curve" smooth="yes"/>
			<point x="85.3706557504" y="45"/>
			<point x="105.3706557504" y="-16"/>
			<point x="170.3706557504" y="-16" type="curve" smooth="yes"/>
			<point x="210.3706557504" y="-16"/>
			<point x="233.3706557504" y="0"/>
			<point x="255.3706557504" y="52" type="curve" smooth="yes"/>
			<point x="323.3706557504" y="214"/>
			<point x="447.3706557504" y="398"/>
		</contour>
		<contour>
			<point x="246.3706557504" y="661" type="curve" smooth="yes"/>
			<point x="231.3706557504" y="704"/>
			<point x="203.3706557504" y="710"/>
			<point x="173.3706557504" y="710" type="curve" smooth="yes"/>
			<point x="133.3706557504" y="710"/>
			<point x="98.3706557504" y="676"/>
			<point x="88.3706557504" y="627" type="curve" smooth="yes" identifier="sxmFkaQJ0F"/>
			<point x="80.3706557504" y="586"/>
			<point x="87.3706557504" y="559"/>
			<point x="101.3706557504" y="532" type="curve" smooth="yes"/>
			<point x="150.3706557504" y="440"/>
			<point x="179.3706557504" y="430"/>
			<point x="242.3706557504" y="274" type="curve" smooth="yes"/>
			<point x="250.3706557504" y="253"/>
			<point x="267.3706557504" y="242"/>
			<point x="293.3706557504" y="242" type="curve" smooth="yes"/>
			<point x="350.3706557504" y="242"/>
			<point x="394.3706557504" y="329"/>
			<point x="379.3706557504" y="379" type="curve" smooth="yes"/>
			<point x="331.3706557504" y="531"/>
			<point x="292.3706557504" y="535"/>
		</contour>
	</outline>
	<anchor name="top" x="389.3715137355" y="700"/>
	<anchor name="bottom" x="191.3706557504" y="0"/>
</glyph>
<glyph name="Z" format="2">
	<unicode hex="005A"/>
	<advance width="650"/>
	<outline>
		<contour>
			<point x="183.7471911548" y="680" type="curve" smooth="yes"/>
			<point x="144.7471911548" y="673"/>
			<point x="114.7471911548" y="645"/>
			<point x="106.7471911548" y="606" type="curve" smooth="yes" identifier="Upaxl8M88O"/>
			<point x="94.7471911548" y="546"/>
			<point x="136.7471911548" y="511"/>
			<point x="193.7471911548" y="511" type="curve" smooth="yes"/>
			<point x="254.7471911548" y="511"/>
			<point x="335.7471911548" y="537"/>
			<point x="444.7471911548" y="537" type="curve" smooth="yes"/>
			<point x="495.7471911548" y="537"/>
			<point x="498.7471911548" y="531"/>
			<point x="512.7471911548" y="519" type="curve"/>
			<point x="488.7471911548" y="561" type="line"/>
			<point x="475.7471911548" y="516"/>
			<point x="470.7471911548" y="495"/>
			<point x="323.7471911548" y="413" type="curve" smooth="yes"/>
			<point x="79.7471911548" y="277"/>
			<point x="34.7471911548" y="206"/>
			<point x="16.7471911548" y="115" type="curve" smooth="yes" identifier="FoGRvOlhsG"/>
			<point x="2.7471911548" y="46"/>
			<point x="25.7471911548" y="-11"/>
			<point x="123.7471911548" y="-11" type="curve" smooth="yes"/>
			<point x="198.7471911548" y="-11"/>
			<point x="285.7471911548" y="0"/>
			<point x="378.7471911548" y="0" type="curve" smooth="yes"/>
			<point x="441.7471911548" y="0"/>
			<point x="465.7471911548" y="-7"/>
			<point x="505.7471911548" y="-7" type="curve" smooth="yes"/>
			<point x="543.7471911548" y="-7"/>
			<point x="576.7471911548" y="20"/>
			<point x="585.7471911548" y="64" type="curve" smooth="yes" identifier="peJGCXgphn"/>
			<point x="599.7471911548" y="136"/>
			<point x="548.7471911548" y="174"/>
			<point x="434.7471911548" y="174" type="curve" smooth="yes"/>
			<point x="365.7471911548" y="174"/>
			<point x="292.7471911548" y="162"/>
			<point x="239.7471911548" y="162" type="curve" smooth="yes"/>
			<point x="199.7471911548" y="162"/>
			<point x="180.7471911548" y="167"/>
			<point x="159.7471911548" y="178" type="curve"/>
			<point x="197.7471911548" y="108" type="line"/>
			<point x="215.7471911548" y="171"/>
			<point x="233.7471911548" y="192"/>
			<point x="409.7471911548" y="291" type="curve" smooth="yes"/>
			<point x="584.7471911548" y="390"/>
			<point x="646.7471911548" y="458"/>
			<point x="666.7471911548" y="559" type="curve" smooth="yes" identifier="hCR5DZ1tl1"/>
			<point x="685.7471911548" y="654"/>
			<point x="634.7471911548" y="710"/>
			<point x="497.7471911548" y="710" type="curve" smooth="yes"/>
			<point x="378.7471911548" y="710"/>
			<point x="285.7471911548" y="697"/>
		</contour>
	</outline>
	<anchor name="top" x="425.7480491399" y="700"/>
	<anchor name="bottom" x="285.7471911548" y="0"/>
</glyph>
<glyph name="bracketleft" format="2">
	<unicode hex="005B"/>
	<advance width="513"/>
	<outline>
		<contour>
			<point x="479.6849561472" y="643" type="curve" smooth="yes"/>
			<point x="542.6849561472" y="643"/>
			<point x="580.6849561472" y="706"/>
			<point x="589.6849561472" y="750" type="curve" smooth="yes" identifier="VAQF6jl0Pv"/>
			<point x="597.6849561472" y="788"/>
			<point x="578.6849561472" y="819"/>
			<point x="526.6849561472" y="819" type="curve" smooth="yes"/>
			<point x="459.6849561472" y="819"/>
			<point x="376.6849561472" y="805"/>
			<point x="293.6849561472" y="805" type="curve" smooth="yes"/>
			<point x="250.6849561472" y="805"/>
			<point x="207.6849561472" y="775"/>
			<point x="191.6849561472" y="733" type="curve" smooth="yes"/>
			<point x="143.6849561472" y="607"/>
			<point x="111.6849561472" y="351"/>
			<point x="85.6849561472" y="248" type="curve" smooth="yes"/>
			<point x="56.6849561472" y="134"/>
			<point x="-13.3150438528" y="-110"/>
			<point x="38.6849561472" y="-229" type="curve" smooth="yes"/>
			<point x="48.6849561472" y="-254"/>
			<point x="76.6849561472" y="-270"/>
			<point x="105.6849561472" y="-270" type="curve" smooth="yes"/>
			<point x="129.6849561472" y="-270"/>
			<point x="154.6849561472" y="-265"/>
			<point x="189.6849561472" y="-262" type="curve" smooth="yes"/>
			<point x="212.6849561472" y="-259"/>
			<point x="236.6849561472" y="-259"/>
			<point x="267.6849561472" y="-259" type="curve" smooth="yes"/>
			<point x="342.6849561472" y="-259"/>
			<point x="387.6849561472" y="-220"/>
			<point x="400.6849561472" y="-155" type="curve" smooth="yes" identifier="QevIw2IFI5"/>
			<point x="408.6849561472" y="-115"/>
			<point x="385.6849561472" y="-88"/>
			<point x="344.6849561472" y="-88" type="curve" smooth="yes"/>
			<point x="314.6849561472" y="-88"/>
			<point x="282.6849561472" y="-91"/>
			<point x="245.6849561472" y="-91" type="curve" smooth="yes"/>
			<point x="199.6849561472" y="-91"/>
			<point x="167.6849561472" y="-97"/>
			<point x="116.6849561472" y="-106" type="curve"/>
			<point x="205.6849561472" y="-133" type="line"/>
			<point x="164.6849561472" y="-40"/>
			<point x="237.6849561472" y="152"/>
			<point x="259.6849561472" y="238" type="curve" smooth="yes"/>
			<point x="284.6849561472" y="335"/>
			<point x="312.6849561472" y="582"/>
			<point x="358.6849561472" y="701" type="curve"/>
			<point x="259.6849561472" y="629" type="line"/>
			<point x="304.6849561472" y="629"/>
			<point x="395.6849561472" y="645"/>
			<point x="446.6849561472" y="645" type="curve" smooth="yes"/>
			<point x="459.6849561472" y="645"/>
			<point x="469.6849561472" y="643"/>
		</contour>
	</outline>
</glyph>
<glyph name="backslash" format="2">
	<unicode hex="005C"/>
	<advance width="455"/>
	<outline>
		<contour>
			<point x="334.9737868088" y="691" type="curve" smooth="yes"/>
			<point x="346.9737868088" y="770"/>
			<point x="313.9737868088" y="813"/>
			<point x="256.9737868088" y="813" type="curve" smooth="yes"/>
			<point x="193.9737868088" y="813"/>
			<point x="156.9737868088" y="767"/>
			<point x="143.9737868088" y="678" type="curve" smooth="yes"/>
			<point x="110.9737868088" y="468"/>
			<point x="121.9737868088" y="95"/>
			<point x="188.9737868088" y="-196" type="curve" smooth="yes"/>
			<point x="197.9737868088" y="-238"/>
			<point x="226.9737868088" y="-264"/>
			<point x="264.9737868088" y="-264" type="curve" smooth="yes"/>
			<point x="327.9737868088" y="-264"/>
			<point x="390.9737868088" y="-209"/>
			<point x="370.9737868088" y="-130" type="curve" smooth="yes"/>
			<point x="296.9737868088" y="159"/>
			<point x="293.9737868088" y="417"/>
		</contour>
	</outline>
</glyph>
<glyph name="bracketright" format="2">
	<unicode hex="005D"/>
	<advance width="513"/>
	<outline>
		<contour>
			<point x="27.0314138749" y="-94" type="curve" smooth="yes"/>
			<point x="-14.9685861251" y="-95"/>
			<point x="-57.9685861251" y="-131"/>
			<point x="-65.9685861251" y="-173" type="curve" smooth="yes"/>
			<point x="-74.9685861251" y="-227"/>
			<point x="-23.9685861251" y="-271"/>
			<point x="44.0314138749" y="-270" type="curve" smooth="yes"/>
			<point x="94.0314138749" y="-269"/>
			<point x="210.0314138749" y="-250"/>
			<point x="262.0314138749" y="-235" type="curve" smooth="yes"/>
			<point x="295.0314138749" y="-225"/>
			<point x="323.0314138749" y="-199"/>
			<point x="336.0314138749" y="-167" type="curve" smooth="yes"/>
			<point x="425.0314138749" y="71"/>
			<point x="405.0314138749" y="385"/>
			<point x="498.0314138749" y="715" type="curve" smooth="yes"/>
			<point x="513.0314138749" y="772"/>
			<point x="477.0314138749" y="811"/>
			<point x="420.0314138749" y="811" type="curve" smooth="yes"/>
			<point x="402.0314138749" y="811"/>
			<point x="381.0314138749" y="806"/>
			<point x="361.0314138749" y="806" type="curve" smooth="yes"/>
			<point x="311.0314138749" y="806"/>
			<point x="254.0314138749" y="809"/>
			<point x="210.0314138749" y="810" type="curve" smooth="yes"/>
			<point x="160.0314138749" y="811"/>
			<point x="127.0314138749" y="789"/>
			<point x="118.0314138749" y="749" type="curve" smooth="yes"/>
			<point x="105.0314138749" y="689"/>
			<point x="142.0314138749" y="634"/>
			<point x="201.0314138749" y="634" type="curve" smooth="yes"/>
			<point x="298.0314138749" y="634"/>
			<point x="344.0314138749" y="631"/>
			<point x="390.0314138749" y="609" type="curve"/>
			<point x="325.0314138749" y="729" type="line"/>
			<point x="235.0314138749" y="405"/>
			<point x="257.0314138749" y="98"/>
			<point x="168.0314138749" y="-135" type="curve"/>
			<point x="243.0314138749" y="-62" type="line"/>
			<point x="192.0314138749" y="-77"/>
			<point x="77.0314138749" y="-93"/>
		</contour>
	</outline>
</glyph>
<glyph name="asciicircum" format="2">
	<unicode hex="005E"/>
	<advance width="610"/>
	<outline>
		<contour>
			<point x="333" y="584" type="line"/>
			<point x="405" y="457"/>
			<point x="451" y="416"/>
			<point x="518" y="416" type="curve" smooth="yes"/>
			<point x="564" y="416"/>
			<point x="599" y="431"/>
			<point x="607" y="467" type="curve" smooth="yes"/>
			<point x="616" y="517"/>
			<point x="556" y="520"/>
			<point x="486" y="656" type="curve" smooth="yes"/>
			<point x="466" y="696"/>
			<point x="440" y="710"/>
			<point x="407" y="710" type="curve" smooth="yes"/>
			<point x="362" y="710"/>
			<point x="329" y="697"/>
			<point x="266" y="652" type="curve" smooth="yes"/>
			<point x="117" y="545"/>
			<point x="100.89574" y="523"/>
			<point x="93.89574" y="490" type="curve" smooth="yes"/>
			<point x="86.8805885873" y="453.9220784489"/>
			<point x="123.5143214085" y="411"/>
			<point x="169" y="411" type="curve" smooth="yes"/>
			<point x="208" y="411"/>
			<point x="226" y="423"/>
			<point x="405" y="582" type="curve"/>
		</contour>
	</outline>
</glyph>
<glyph name="grave" format="2">
	<advance width="350"/>
	<unicode hex="0060"/>
	<outline>
		<contour>
			<point x="102.63887" y="667" type="curve" smooth="yes"/>
			<point x="118.63887" y="602"/>
			<point x="166.63887" y="541"/>
			<point x="211.63887" y="510" type="curve" smooth="yes"/>
			<point x="242.63887" y="489"/>
			<point x="276.63887" y="477"/>
			<point x="308.63887" y="477" type="curve" smooth="yes"/>
			<point x="383.63887" y="477"/>
			<point x="418.63887" y="552"/>
			<point x="369.63887" y="607" type="curve" smooth="yes"/>
			<point x="335.63887" y="645"/>
			<point x="310.63887" y="686"/>
			<point x="300.63887" y="749" type="curve" smooth="yes"/>
			<point x="292.63887" y="796"/>
			<point x="257.63887" y="810"/>
			<point x="213.63887" y="810" type="curve" smooth="yes"/>
			<point x="148.63887" y="810"/>
			<point x="82.63887" y="747"/>
		</contour>
	</outline>
</glyph>
<glyph name="a" format="2">
	<unicode hex="0061"/>
	<advance width="704"/>
	<outline>
		<contour>
			<point x="388.40132" y="392" type="curve" smooth="yes"/>
			<point x="335.40132" y="238"/>
			<point x="256.40132" y="158"/>
			<point x="194.40132" y="158" type="curve" smooth="yes"/>
			<point x="162.40132" y="158"/>
			<point x="141.40132" y="164"/>
			<point x="112.40132" y="187" type="curve"/>
			<point x="164.40132" y="73" type="line"/>
			<point x="161.40132" y="95"/>
			<point x="162.40132" y="108"/>
			<point x="165.40132" y="127" type="curve" smooth="yes"/>
			<point x="188.40132" y="242"/>
			<point x="301.40132" y="358"/>
			<point x="429.40132" y="381" type="curve" smooth="yes"/>
			<point x="447.40132" y="385"/>
			<point x="464.40132" y="397"/>
			<point x="469.40132" y="420" type="curve" smooth="yes"/>
			<point x="483.40132" y="488"/>
			<point x="446.40132" y="526"/>
			<point x="390.40132" y="526" type="curve" smooth="yes"/>
			<point x="239.40132" y="526"/>
			<point x="41" y="338"/>
			<point x="6" y="163" type="curve" smooth="yes"/>
			<point x="-13" y="71"/>
			<point x="45.40132" y="-10"/>
			<point x="153.40132" y="-10" type="curve" smooth="yes"/>
			<point x="261.40132" y="-10"/>
			<point x="390" y="44"/>
			<point x="482.40132" y="255" type="curve"/>
			<point x="421.40132" y="249" type="line"/>
			<point x="438.40132" y="141"/>
			<point x="458" y="87"/>
			<point x="495" y="22" type="curve" smooth="yes"/>
			<point x="505" y="4"/>
			<point x="524" y="-7"/>
			<point x="549.40132" y="-7" type="curve" smooth="yes"/>
			<point x="640" y="-7"/>
			<point x="675" y="95"/>
			<point x="644" y="137" type="curve" smooth="yes"/>
			<point x="589" y="213"/>
			<point x="585" y="275"/>
			<point x="562" y="362" type="curve" smooth="yes"/>
			<point x="554" y="403"/>
			<point x="521" y="446"/>
			<point x="469.40132" y="446" type="curve" smooth="yes"/>
			<point x="436.40132" y="446"/>
			<point x="400.40132" y="426"/>
		</contour>
	</outline>
	<anchor name="top" x="389.40195" y="515"/>
	<anchor name="bottom" x="295.40132" y="0"/>
	<anchor name="ogonek" x="570.40132" y="0"/>
</glyph>
<glyph name="b" format="2">
	<advance width="635"/>
	<unicode hex="0062"/>
	<anchor x="233.99313" y="750" name="top"/>
	<anchor x="260.99221" y="0" name="bottom"/>
	<outline>
		<contour>
			<point x="308" y="643" type="curve" smooth="yes"/>
			<point x="324" y="724"/>
			<point x="288" y="761"/>
			<point x="213.99221" y="761" type="curve" smooth="yes"/>
			<point x="162.99221" y="761"/>
			<point x="142.99221" y="730"/>
			<point x="138.99221" y="690" type="curve" smooth="yes"/>
			<point x="132.99221" y="629"/>
			<point x="102.99221" y="582"/>
			<point x="79.99221" y="464" type="curve" smooth="yes"/>
			<point x="66.99221" y="402"/>
			<point x="55.99221" y="292"/>
			<point x="53.99221" y="190" type="curve" smooth="yes"/>
			<point x="52.99221" y="139"/>
			<point x="83.99221" y="110"/>
			<point x="121.99221" y="110" type="curve" smooth="yes"/>
			<point x="150.99221" y="110"/>
			<point x="171.99221" y="129"/>
			<point x="183.99221" y="158" type="curve" smooth="yes"/>
			<point x="230.99221" y="273"/>
			<point x="309.99221" y="353"/>
			<point x="402.99221" y="353" type="curve" smooth="yes"/>
			<point x="430.99221" y="353"/>
			<point x="436.99221" y="339"/>
			<point x="431.99221" y="314" type="curve" smooth="yes"/>
			<point x="409.99221" y="206"/>
			<point x="268.99221" y="163"/>
			<point x="189.99221" y="163" type="curve" smooth="yes"/>
			<point x="157.99221" y="163"/>
			<point x="125.99221" y="171"/>
			<point x="100.99221" y="171" type="curve" smooth="yes"/>
			<point x="50.99221" y="171"/>
			<point x="12.99221" y="150"/>
			<point x="3.99221" y="105" type="curve" smooth="yes"/>
			<point x="-13.00779" y="20"/>
			<point x="93" y="-10"/>
			<point x="187" y="-10" type="curve" smooth="yes"/>
			<point x="368" y="-10"/>
			<point x="567" y="101"/>
			<point x="604" y="285" type="curve" smooth="yes"/>
			<point x="635" y="441"/>
			<point x="554.99221" y="527"/>
			<point x="439.99221" y="527" type="curve" smooth="yes"/>
			<point x="340" y="527"/>
			<point x="243" y="449"/>
			<point x="202" y="387" type="curve" smooth="yes"/>
			<point x="179" y="351"/>
			<point x="234" y="318"/>
			<point x="235" y="346" type="curve" smooth="yes"/>
			<point x="238" y="396"/>
			<point x="248" y="428"/>
			<point x="258" y="480" type="curve" smooth="yes"/>
			<point x="271" y="545"/>
			<point x="301" y="608"/>
		</contour>
	</outline>
</glyph>
<glyph name="c" format="2">
	<unicode hex="0063"/>
	<advance width="539"/>
	<outline>
		<contour>
			<point x="472.408599761" y="148" type="curve" smooth="yes" identifier="jCwnRnhCI6"/>
			<point x="483.408599761" y="206"/>
			<point x="471.408599761" y="228"/>
			<point x="435.408599761" y="228" type="curve" smooth="yes"/>
			<point x="381.408599761" y="228"/>
			<point x="377.408599761" y="166"/>
			<point x="268.408599761" y="166" type="curve" smooth="yes"/>
			<point x="190.408599761" y="166"/>
			<point x="184.408599761" y="189"/>
			<point x="189.408599761" y="216" type="curve" smooth="yes" identifier="nTKYcdyvcr"/>
			<point x="203.408599761" y="284"/>
			<point x="286.408599761" y="353"/>
			<point x="380.408599761" y="353" type="curve" smooth="yes"/>
			<point x="410.408599761" y="353"/>
			<point x="405.408599761" y="324"/>
			<point x="426.408599761" y="324" type="curve" smooth="yes"/>
			<point x="472.408599761" y="324"/>
			<point x="505.408599761" y="368"/>
			<point x="516.408599761" y="424" type="curve" smooth="yes" identifier="QlNLms02MO"/>
			<point x="532.408599761" y="506"/>
			<point x="480.408599761" y="525"/>
			<point x="424.408599761" y="525" type="curve" smooth="yes"/>
			<point x="238.408599761" y="525"/>
			<point x="52.408599761" y="390"/>
			<point x="18.408599761" y="220" type="curve" smooth="yes" identifier="M4INKBTiH1"/>
			<point x="-8.591400239" y="86"/>
			<point x="65.408599761" y="-9"/>
			<point x="242.408599761" y="-9" type="curve" smooth="yes"/>
			<point x="357.408599761" y="-9"/>
			<point x="452.408599761" y="49"/>
		</contour>
	</outline>
	<anchor name="top" x="346.4092309929" y="515"/>
	<anchor name="bottom" x="243.408599761" y="0"/>
</glyph>
<glyph name="d" format="2">
	<unicode hex="0064"/>
	<advance width="708"/>
	<outline>
		<contour>
			<point x="239.5397132174" y="-9" type="curve" smooth="yes"/>
			<point x="315.5397132174" y="-9"/>
			<point x="437.5397132174" y="42"/>
			<point x="515.5397132174" y="192" type="curve"/>
			<point x="413.5397132174" y="163" type="line"/>
			<point x="393.5397132174" y="67"/>
			<point x="437.5397132174" y="-20"/>
			<point x="521.5397132174" y="-20" type="curve" smooth="yes"/>
			<point x="578.5397132174" y="-20"/>
			<point x="623.5397132174" y="15"/>
			<point x="634.5397132174" y="71" type="curve" smooth="yes" identifier="v8cfjV8bW7"/>
			<point x="648.5397132174" y="138"/>
			<point x="564.5397132174" y="93"/>
			<point x="604.5397132174" y="294" type="curve" smooth="yes" identifier="cJ4UjMWfDW"/>
			<point x="625.5397132174" y="401"/>
			<point x="671.5397132174" y="467"/>
			<point x="705.5397132174" y="593" type="curve" smooth="yes"/>
			<point x="732.5397132174" y="702"/>
			<point x="699.5397132174" y="760"/>
			<point x="612.5397132174" y="760" type="curve" smooth="yes"/>
			<point x="581.5397132174" y="760"/>
			<point x="555.5397132174" y="744"/>
			<point x="544.5397132174" y="691" type="curve" smooth="yes" identifier="2HvEIhmX5j"/>
			<point x="477.5397132174" y="353"/>
			<point x="366.5397132174" y="166"/>
			<point x="269.5397132174" y="166" type="curve" smooth="yes"/>
			<point x="238.5397132174" y="166"/>
			<point x="208.5397132174" y="229"/>
			<point x="218.5397132174" y="279" type="curve" smooth="yes" identifier="GYb4J7CYWE"/>
			<point x="227.5397132174" y="326"/>
			<point x="277.5397132174" y="352"/>
			<point x="345.5397132174" y="352" type="curve" smooth="yes"/>
			<point x="406.5397132174" y="352"/>
			<point x="414.5397132174" y="333"/>
			<point x="441.5397132174" y="333" type="curve" smooth="yes"/>
			<point x="461.5397132174" y="333"/>
			<point x="481.5397132174" y="356"/>
			<point x="488.5397132174" y="389" type="curve" smooth="yes" identifier="2XRm8aDP3s"/>
			<point x="506.5397132174" y="480"/>
			<point x="446.5397132174" y="527"/>
			<point x="335.5397132174" y="527" type="curve" smooth="yes"/>
			<point x="185.5397132174" y="529"/>
			<point x="64.5397132174" y="429"/>
			<point x="34.5397132174" y="279" type="curve" smooth="yes" identifier="VQTCaS93SQ"/>
			<point x="3.5397132174" y="124"/>
			<point x="84.5397132174" y="-9"/>
		</contour>
	</outline>
	<anchor name="top" x="626.5406324871" y="750"/>
	<anchor name="bottom" x="257.5397132174" y="0"/>
</glyph>
<glyph name="e" format="2">
	<unicode hex="0065"/>
	<advance width="611"/>
	<outline>
		<contour>
			<point x="261.6561919482" y="186" type="curve" smooth="yes"/>
			<point x="401.6561919482" y="186"/>
			<point x="530.6561919482" y="234"/>
			<point x="553.6561919482" y="349" type="curve" smooth="yes" identifier="VE2wuOSR4K"/>
			<point x="576.6561919482" y="464"/>
			<point x="505.6561919482" y="525"/>
			<point x="385.6561919482" y="525" type="curve" smooth="yes"/>
			<point x="203.6561919482" y="525"/>
			<point x="53.6561919482" y="357"/>
			<point x="24.6561919482" y="210" type="curve" smooth="yes" identifier="5W5PjBW8LS"/>
			<point x="-1.3438080518" y="82"/>
			<point x="60.6561919482" y="-10"/>
			<point x="244.6561919482" y="-10" type="curve" smooth="yes"/>
			<point x="418.6561919482" y="-10"/>
			<point x="544.6561919482" y="69"/>
			<point x="559.6561919482" y="145" type="curve" smooth="yes" identifier="tKx5fyTRo1"/>
			<point x="566.6561919482" y="181"/>
			<point x="556.6561919482" y="199"/>
			<point x="527.6561919482" y="199" type="curve" smooth="yes"/>
			<point x="473.6561919482" y="199"/>
			<point x="417.6561919482" y="132"/>
			<point x="259.6561919482" y="132" type="curve" smooth="yes"/>
			<point x="197.6561919482" y="132"/>
			<point x="181.6561919482" y="148"/>
			<point x="188.6561919482" y="187" type="curve" smooth="yes" identifier="RnBdp3eGe5"/>
			<point x="207.6561919482" y="281"/>
			<point x="281.6561919482" y="374"/>
			<point x="358.6561919482" y="374" type="curve" smooth="yes"/>
			<point x="387.6561919482" y="374"/>
			<point x="396.6561919482" y="362"/>
			<point x="392.6561919482" y="338" type="curve" smooth="yes" identifier="jArUvYPh9n"/>
			<point x="385.6561919482" y="305"/>
			<point x="316.6561919482" y="281"/>
			<point x="261.6561919482" y="281" type="curve" smooth="yes"/>
			<point x="229.6561919482" y="281"/>
			<point x="212.6561919482" y="286"/>
			<point x="198.6561919482" y="286" type="curve" smooth="yes"/>
			<point x="177.6561919482" y="286"/>
			<point x="166.6561919482" y="276"/>
			<point x="162.6561919482" y="256" type="curve" smooth="yes" identifier="EaP7lRTWVP"/>
			<point x="155.6561919482" y="219"/>
			<point x="191.6561919482" y="186"/>
		</contour>
	</outline>
	<anchor name="top" x="360.6568231801" y="515"/>
	<anchor name="bottom" x="257.6561919482" y="0"/>
	<anchor name="ogonek" x="461.8562422016" y="41"/>
</glyph>
<glyph name="f" format="2">
	<unicode hex="0066"/>
	<advance width="417"/>
	<outline>
		<contour>
			<point x="367.2479653044" y="366" type="curve" smooth="yes"/>
			<point x="400.2479653044" y="369"/>
			<point x="420.2479653044" y="395"/>
			<point x="426.2479653044" y="424" type="curve" smooth="yes" identifier="xRbJYTvZ7Q"/>
			<point x="438.2479653044" y="484"/>
			<point x="389.2479653044" y="516"/>
			<point x="348.2479653044" y="516" type="curve" smooth="yes"/>
			<point x="312.2479653044" y="516"/>
			<point x="266.2479653044" y="508"/>
			<point x="206.2479653044" y="488" type="curve" smooth="yes"/>
			<point x="155.2479653044" y="471"/>
			<point x="120.2479653044" y="428"/>
			<point x="109.2479653044" y="377" type="curve" smooth="yes" identifier="nHy0qh5Haj"/>
			<point x="102.2479653044" y="340"/>
			<point x="135.2479653044" y="314"/>
			<point x="178.2479653044" y="314" type="curve" smooth="yes"/>
			<point x="208.2479653044" y="314"/>
			<point x="243.2479653044" y="355"/>
		</contour>
		<contour>
			<point x="126.2479653044" y="-10" type="curve" smooth="yes"/>
			<point x="174.2479653044" y="-10"/>
			<point x="202.2479653044" y="14"/>
			<point x="220.2479653044" y="104" type="curve" smooth="yes" identifier="33EULQNb0p"/>
			<point x="246.2479653044" y="236"/>
			<point x="231.2479653044" y="310"/>
			<point x="247.2479653044" y="390" type="curve" smooth="yes" identifier="Zgt0cDUrjI"/>
			<point x="275.2479653044" y="530"/>
			<point x="299.2479653044" y="562"/>
			<point x="429.2479653044" y="606" type="curve" smooth="yes"/>
			<point x="461.2479653044" y="617"/>
			<point x="483.2479653044" y="638"/>
			<point x="490.2479653044" y="673" type="curve" smooth="yes" identifier="WUwI37WnSf"/>
			<point x="502.2479653044" y="736"/>
			<point x="461.2479653044" y="760"/>
			<point x="412.2479653044" y="760" type="curve" smooth="yes"/>
			<point x="280.2479653044" y="760"/>
			<point x="125.2479653044" y="626"/>
			<point x="85.2479653044" y="424" type="curve" smooth="yes" identifier="vfurhZHyH2"/>
			<point x="63.2479653044" y="314"/>
			<point x="79.2479653044" y="271"/>
			<point x="54.2479653044" y="145" type="curve" smooth="yes" identifier="wKyyg9ZSFW"/>
			<point x="34.2479653044" y="45"/>
			<point x="74.2479653044" y="-10"/>
		</contour>
	</outline>
	<anchor name="top" x="387.2488845742" y="750"/>
	<anchor name="bottom" x="120.2479653044" y="0"/>
</glyph>
<glyph name="g" format="2">
	<unicode hex="0067"/>
	<advance width="660"/>
	<outline>
		<contour>
			<point x="513.10788" y="467" type="curve" smooth="yes"/>
			<point x="478.10788" y="467"/>
			<point x="464.10788" y="448"/>
			<point x="455.10788" y="404" type="curve" smooth="yes"/>
			<point x="430.10788" y="281"/>
			<point x="340.10788" y="216"/>
			<point x="235.10788" y="216" type="curve" smooth="yes"/>
			<point x="204.10788" y="216"/>
			<point x="193.10788" y="230"/>
			<point x="198.10788" y="256" type="curve" smooth="yes"/>
			<point x="208.10788" y="307"/>
			<point x="295.10788" y="366"/>
			<point x="355.10788" y="366" type="curve" smooth="yes"/>
			<point x="400.10788" y="366"/>
			<point x="400.10788" y="332"/>
			<point x="435.10788" y="332" type="curve" smooth="yes"/>
			<point x="452.10788" y="332"/>
			<point x="477.10788" y="356"/>
			<point x="485.10788" y="395" type="curve" smooth="yes"/>
			<point x="498.10788" y="460"/>
			<point x="474.10788" y="530"/>
			<point x="363.10788" y="530" type="curve" smooth="yes"/>
			<point x="214.10788" y="530"/>
			<point x="59" y="425"/>
			<point x="26" y="262" type="curve" smooth="yes"/>
			<point x="2" y="139"/>
			<point x="72" y="47"/>
			<point x="219" y="47" type="curve" smooth="yes"/>
			<point x="297" y="47"/>
			<point x="419" y="81"/>
			<point x="479.10788" y="205" type="curve"/>
			<point x="416.10788" y="212" type="line"/>
			<point x="409.10788" y="113"/>
			<point x="425.10788" y="71"/>
			<point x="408.10788" y="-16" type="curve" smooth="yes"/>
			<point x="398" y="-66"/>
			<point x="361" y="-93"/>
			<point x="297" y="-93" type="curve" smooth="yes"/>
			<point x="203" y="-93"/>
			<point x="192" y="-74"/>
			<point x="197" y="-51" type="curve" smooth="yes"/>
			<point x="202" y="-27"/>
			<point x="192" y="0"/>
			<point x="146" y="0" type="curve" smooth="yes"/>
			<point x="91" y="0"/>
			<point x="49" y="-37"/>
			<point x="37" y="-95" type="curve" smooth="yes"/>
			<point x="25" y="-154"/>
			<point x="45" y="-256"/>
			<point x="298" y="-256" type="curve" smooth="yes"/>
			<point x="448" y="-256"/>
			<point x="546" y="-187"/>
			<point x="575" y="-43" type="curve" smooth="yes"/>
			<point x="612" y="142"/>
			<point x="595" y="229"/>
			<point x="613" y="385" type="curve" smooth="yes"/>
			<point x="618" y="425"/>
			<point x="584.10788" y="467"/>
		</contour>
	</outline>
	<anchor name="top" x="359.10851" y="515"/>
	<anchor name="bottom" x="267.10757" y="-250"/>
</glyph>
<glyph name="h" format="2">
  <advance width="693"/>
  <unicode hex="0068"/>
  <anchor x="298.388" y="0" name="bottom"/>
  <anchor x="241.389" y="750" name="top"/>
  <outline>
    <contour>
      <point x="529.388" y="-12" type="curve" smooth="yes"/>
      <point x="579.388" y="-12"/>
      <point x="613.388" y="10"/>
      <point x="620.388" y="45" type="curve" smooth="yes"/>
      <point x="623.388" y="61"/>
      <point x="622.388" y="78"/>
      <point x="617.388" y="93" type="curve" smooth="yes"/>
      <point x="605.388" y="124"/>
      <point x="592.388" y="156"/>
      <point x="601.388" y="267" type="curve" smooth="yes"/>
      <point x="616.388" y="434"/>
      <point x="603.388" y="532"/>
      <point x="483.388" y="532" type="curve" smooth="yes"/>
      <point x="402" y="532"/>
      <point x="308" y="455"/>
      <point x="206" y="297" type="curve"/>
      <point x="228" y="224" type="line"/>
      <point x="267" y="418"/>
      <point x="305" y="490"/>
      <point x="319" y="561" type="curve" smooth="yes"/>
      <point x="349" y="705"/>
      <point x="291" y="760"/>
      <point x="236.388" y="760" type="curve" smooth="yes"/>
      <point x="182.388" y="760"/>
      <point x="157.388" y="731"/>
      <point x="151.388" y="701" type="curve" smooth="yes"/>
      <point x="143.388" y="660"/>
      <point x="152.388" y="632"/>
      <point x="137.388" y="555" type="curve" smooth="yes"/>
      <point x="116.388" y="451"/>
      <point x="68.388" y="324"/>
      <point x="30.388" y="135" type="curve" smooth="yes"/>
      <point x="14.388" y="53"/>
      <point x="42.388" y="-6"/>
      <point x="110.388" y="-6" type="curve" smooth="yes"/>
      <point x="144.388" y="-6"/>
      <point x="164.388" y="3"/>
      <point x="189.388" y="41" type="curve" smooth="yes"/>
      <point x="298.388" y="210"/>
      <point x="389.388" y="308"/>
      <point x="428.388" y="321" type="curve"/>
      <point x="429.388" y="289"/>
      <point x="426.388" y="251"/>
      <point x="417.388" y="143" type="curve" smooth="yes"/>
      <point x="410.388" y="50"/>
      <point x="437.388" y="-12"/>
    </contour>
  </outline>
</glyph>
<glyph name="k" format="2">
	<unicode hex="006B"/>
	<advance width="678"/>
	<outline>
		<contour>
			<point x="502.8193510122" y="-7" type="curve" smooth="yes"/>
			<point x="549.8193510122" y="-7"/>
			<point x="579.8193510122" y="21"/>
			<point x="588.8193510122" y="65" type="curve" smooth="yes" identifier="1GYoozwXxR"/>
			<point x="598.8193510122" y="114"/>
			<point x="582.8193510122" y="166"/>
			<point x="517.8193510122" y="180" type="curve" smooth="yes"/>
			<point x="395.8193510122" y="211"/>
			<point x="358.8193510122" y="233"/>
			<point x="361.8193510122" y="249" type="curve" smooth="yes" identifier="PkN02e8Dmy"/>
			<point x="365.8193510122" y="270"/>
			<point x="445.8193510122" y="322"/>
			<point x="564.8193510122" y="355" type="curve" smooth="yes"/>
			<point x="635.8193510122" y="375"/>
			<point x="656.8193510122" y="396"/>
			<point x="663.8193510122" y="432" type="curve" smooth="yes" identifier="WpxPF2acAV"/>
			<point x="676.8193510122" y="493"/>
			<point x="644.8193510122" y="527"/>
			<point x="586.8193510122" y="527" type="curve" smooth="yes"/>
			<point x="475.8193510122" y="527"/>
			<point x="195.8193510122" y="376"/>
			<point x="166.8193510122" y="229" type="curve" smooth="yes" identifier="Ajz4Jjy0OG"/>
			<point x="148.8193510122" y="138"/>
			<point x="361.8193510122" y="-7"/>
		</contour>
		<contour>
			<point x="239.8193510122" y="760" type="curve" smooth="yes"/>
			<point x="194.8193510122" y="760"/>
			<point x="168.8193510122" y="736"/>
			<point x="159.8193510122" y="691" type="curve" smooth="yes" identifier="Sqdh03Nw6t"/>
			<point x="152.8193510122" y="655"/>
			<point x="155.8193510122" y="624"/>
			<point x="139.8193510122" y="544" type="curve" smooth="yes" identifier="Hw0KzlQGpD"/>
			<point x="105.8193510122" y="376"/>
			<point x="46.8193510122" y="214"/>
			<point x="30.8193510122" y="137" type="curve" smooth="yes" identifier="P4q3Yb0Eeq"/>
			<point x="7.8193510122" y="19"/>
			<point x="56.8193510122" y="-10"/>
			<point x="110.8193510122" y="-10" type="curve" smooth="yes"/>
			<point x="152.8193510122" y="-10"/>
			<point x="179.8193510122" y="9"/>
			<point x="188.8193510122" y="53" type="curve" smooth="yes" identifier="4qiInElhX9"/>
			<point x="197.8193510122" y="102"/>
			<point x="201.8193510122" y="145"/>
			<point x="214.8193510122" y="209" type="curve" smooth="yes" identifier="oOWWtyYmnx"/>
			<point x="234.8193510122" y="310"/>
			<point x="293.8193510122" y="421"/>
			<point x="318.8193510122" y="546" type="curve" smooth="yes" identifier="ZN9NShIugd"/>
			<point x="349.8193510122" y="702"/>
			<point x="321.8193510122" y="760"/>
		</contour>
	</outline>
	<anchor name="top" x="260.820270282" y="750"/>
	<anchor name="bottom" x="280.8193510122" y="0"/>
</glyph>
<glyph name="l" format="2">
	<unicode hex="006C"/>
	<advance width="373"/>
	<outline>
		<contour>
			<point x="325.0421629119" y="625" type="curve" smooth="yes" identifier="KhdIwpuQRq"/>
			<point x="344.0421629119" y="720"/>
			<point x="318.0421629119" y="760"/>
			<point x="258.0421629119" y="760" type="curve" smooth="yes"/>
			<point x="215.0421629119" y="760"/>
			<point x="188.0421629119" y="741"/>
			<point x="171.0421629119" y="696" type="curve" smooth="yes"/>
			<point x="127.0421629119" y="581"/>
			<point x="94.0421629119" y="463"/>
			<point x="64.0421629119" y="317" type="curve" smooth="yes" identifier="0pC81DbfN2"/>
			<point x="5.0421629119" y="21"/>
			<point x="113.0421629119" y="-11"/>
			<point x="178.0421629119" y="-11" type="curve" smooth="yes"/>
			<point x="255.0421629119" y="-11"/>
			<point x="318.0421629119" y="30"/>
			<point x="331.0421629119" y="97" type="curve" smooth="yes" identifier="PKTffrKjXM"/>
			<point x="340.0421629119" y="138"/>
			<point x="335.0421629119" y="168"/>
			<point x="301.0421629119" y="168" type="curve" smooth="yes"/>
			<point x="287.0421629119" y="168"/>
			<point x="275.0421629119" y="163"/>
			<point x="256.0421629119" y="163" type="curve" smooth="yes"/>
			<point x="231.0421629119" y="163"/>
			<point x="211.0421629119" y="167"/>
			<point x="237.0421629119" y="297" type="curve" smooth="yes" identifier="WdVijS9fVx"/>
			<point x="267.0421629119" y="446"/>
			<point x="308.0421629119" y="542"/>
		</contour>
	</outline>
	<anchor name="top" x="263.0430821816" y="750"/>
	<anchor name="bottom" x="182.0421629119" y="0"/>
</glyph>
<glyph name="m" format="2">
	<unicode hex="006D"/>
	<advance width="962"/>
	<outline>
		<contour>
			<point x="246.156" y="401" type="line"/>
			<point x="253.156" y="434"/>
			<point x="235.156" y="495"/>
			<point x="161.156" y="495" type="curve" smooth="yes"/>
			<point x="123.156" y="495"/>
			<point x="99.156" y="471"/>
			<point x="94.156" y="444" type="curve" smooth="yes"/>
			<point x="89.156" y="420"/>
			<point x="89.156" y="395"/>
			<point x="83.156" y="367" type="curve" smooth="yes"/>
			<point x="72.156" y="310"/>
			<point x="49.156" y="247"/>
			<point x="38.156" y="190" type="curve" smooth="yes"/>
			<point x="18.156" y="90"/>
			<point x="25.156" y="-9"/>
			<point x="118.156" y="-9" type="curve" smooth="yes"/>
			<point x="164.156" y="-9"/>
			<point x="190.156" y="9"/>
			<point x="200.156" y="42" type="curve" smooth="yes"/>
			<point x="234.156" y="152"/>
			<point x="270.156" y="247"/>
			<point x="357.156" y="334" type="curve"/>
			<point x="327.156" y="369" type="line"/>
			<point x="349.156" y="327"/>
			<point x="349.156" y="277"/>
			<point x="339.156" y="152" type="curve" smooth="yes"/>
			<point x="330.156" y="41"/>
			<point x="351.156" y="-9"/>
			<point x="434.156" y="-9" type="curve" smooth="yes"/>
			<point x="473.156" y="-9"/>
			<point x="506.156" y="11"/>
			<point x="523.156" y="50" type="curve" smooth="yes"/>
			<point x="586.156" y="183"/>
			<point x="641.156" y="289"/>
			<point x="722.156" y="349" type="curve"/>
			<point x="688.156" y="366" type="line"/>
			<point x="700.156" y="321"/>
			<point x="703.156" y="292"/>
			<point x="694.156" y="154" type="curve" smooth="yes"/>
			<point x="685.156" y="25"/>
			<point x="724.156" y="-9"/>
			<point x="804.156" y="-9" type="curve" smooth="yes"/>
			<point x="857.156" y="-9"/>
			<point x="888.156" y="24"/>
			<point x="894.156" y="55" type="curve" smooth="yes"/>
			<point x="904.156" y="104"/>
			<point x="865.156" y="114"/>
			<point x="882.156" y="275" type="curve" smooth="yes"/>
			<point x="900.156" y="440"/>
			<point x="863.156" y="526"/>
			<point x="737.156" y="526" type="curve" smooth="yes"/>
			<point x="646" y="526"/>
			<point x="536" y="444"/>
			<point x="466" y="280" type="curve"/>
			<point x="502" y="269" type="line"/>
			<point x="507" y="300"/>
			<point x="512" y="349"/>
			<point x="509" y="403" type="curve" smooth="yes"/>
			<point x="503" y="482"/>
			<point x="484" y="526"/>
			<point x="406.156" y="526" type="curve" smooth="yes"/>
			<point x="321.156" y="526"/>
			<point x="250.156" y="466"/>
			<point x="213.156" y="398" type="curve"/>
		</contour>
	</outline>
	<anchor name="bottom" x="430.156" y="0"/>
	<anchor name="top" x="559.156" y="515"/>
</glyph>
<glyph name="n" format="2">
	<unicode hex="006E"/>
	<advance width="692"/>
	<outline>
		<contour>
			<point x="532.8288057128" y="-10" type="curve" smooth="yes"/>
			<point x="584.8288057128" y="-10"/>
			<point x="624.8288057128" y="21"/>
			<point x="633.8288057128" y="65" type="curve" smooth="yes" identifier="b4zBFuITNn"/>
			<point x="640.8288057128" y="98"/>
			<point x="632.8288057128" y="117"/>
			<point x="616.8288057128" y="137" type="curve" smooth="yes"/>
			<point x="590.8288057128" y="170"/>
			<point x="590.8288057128" y="233"/>
			<point x="617.8288057128" y="370" type="curve" smooth="yes" identifier="YHhOwMB3eX"/>
			<point x="636.8288057128" y="463"/>
			<point x="601.8288057128" y="524"/>
			<point x="501.8288057128" y="524" type="curve" smooth="yes"/>
			<point x="403.8288057128" y="524"/>
			<point x="269.8288057128" y="431"/>
			<point x="164.8288057128" y="242" type="curve"/>
			<point x="203.8288057128" y="186" type="line"/>
			<point x="231.8288057128" y="325"/>
			<point x="261.8288057128" y="341"/>
			<point x="275.8288057128" y="412" type="curve" smooth="yes" identifier="y7fLR1STT9"/>
			<point x="289.8288057128" y="478"/>
			<point x="254.8288057128" y="516"/>
			<point x="206.8288057128" y="516" type="curve" smooth="yes"/>
			<point x="160.8288057128" y="516"/>
			<point x="132.8288057128" y="494"/>
			<point x="122.8288057129" y="447" type="curve" smooth="yes" identifier="pY22cir2Xy"/>
			<point x="101.8288057129" y="338"/>
			<point x="61.8288057129" y="286"/>
			<point x="34.8288057129" y="151" type="curve" smooth="yes" identifier="7ai69OfTbB"/>
			<point x="16.8288057129" y="58"/>
			<point x="32.8288057129" y="-9"/>
			<point x="101.8288057129" y="-9" type="curve" smooth="yes"/>
			<point x="142.8288057128" y="-9"/>
			<point x="166.8288057128" y="6"/>
			<point x="193.8288057128" y="59" type="curve" smooth="yes"/>
			<point x="276.8288057128" y="227"/>
			<point x="394.8288057128" y="357"/>
			<point x="445.8288057128" y="357" type="curve" smooth="yes"/>
			<point x="463.8288057128" y="357"/>
			<point x="476.8288057128" y="347"/>
			<point x="495.8288057128" y="317" type="curve"/>
			<point x="512.8288057128" y="374"/>
			<point x="481.8288057128" y="376"/>
			<point x="429.8288057128" y="379" type="curve"/>
			<point x="456.8288057128" y="363"/>
			<point x="455.8288057128" y="341"/>
			<point x="447.8288057128" y="299" type="curve" smooth="yes" identifier="fHr171Bkmt"/>
			<point x="406.8288057128" y="95"/>
			<point x="440.8288057128" y="-10"/>
		</contour>
	</outline>
	<anchor name="top" x="399.8294369447" y="515"/>
	<anchor name="bottom" x="296.8288057128" y="0"/>
</glyph>
<glyph name="o" format="2">
	<unicode hex="006F"/>
	<advance width="664"/>
	<outline>
		<contour>
			<point x="314" y="-12" type="curve" smooth="yes"/>
			<point x="463" y="-12"/>
			<point x="594" y="88"/>
			<point x="625" y="246" type="curve" smooth="yes"/>
			<point x="656" y="400"/>
			<point x="571" y="516"/>
			<point x="382" y="516" type="curve" smooth="yes"/>
			<point x="302" y="516"/>
			<point x="188" y="438"/>
			<point x="171" y="355" type="curve" smooth="yes"/>
			<point x="159" y="295"/>
			<point x="190.63021" y="269"/>
			<point x="215.63021" y="269" type="curve" smooth="yes"/>
			<point x="247.63021" y="269"/>
			<point x="266.63021" y="279"/>
			<point x="299.63021" y="307" type="curve" smooth="yes"/>
			<point x="332.63021" y="334"/>
			<point x="350.63021" y="351"/>
			<point x="377.63021" y="351" type="curve" smooth="yes"/>
			<point x="434.63021" y="351"/>
			<point x="466.63021" y="314"/>
			<point x="455.63021" y="258" type="curve" smooth="yes"/>
			<point x="442.63021" y="193"/>
			<point x="386.63021" y="149"/>
			<point x="320.63021" y="149" type="curve" smooth="yes"/>
			<point x="240.63021" y="149"/>
			<point x="199.63021" y="193"/>
			<point x="212.63021" y="259" type="curve" smooth="yes"/>
			<point x="220.63021" y="300"/>
			<point x="268.63021" y="341"/>
			<point x="307.63021" y="352" type="curve" smooth="yes"/>
			<point x="380.63021" y="373"/>
			<point x="405.63021" y="416"/>
			<point x="416.63021" y="470" type="curve" smooth="yes"/>
			<point x="425.63021" y="515"/>
			<point x="379" y="533"/>
			<point x="340" y="533" type="curve" smooth="yes"/>
			<point x="219" y="533"/>
			<point x="69" y="417"/>
			<point x="43" y="286" type="curve" smooth="yes"/>
			<point x="11" y="124"/>
			<point x="121" y="-12"/>
		</contour>
	</outline>
	<anchor name="top" x="397.63084" y="515"/>
	<anchor name="bottom" x="294.63021" y="0"/>
	<anchor name="ogonek" x="458.03025" y="37"/>
</glyph>
<glyph name="p" format="2">
	<unicode hex="0070"/>
	<advance width="610"/>
	<outline>
		<contour>
			<point x="231.99719" y="358" type="curve" smooth="yes"/>
			<point x="241.99719" y="411"/>
			<point x="184.99719" y="456"/>
			<point x="119.99719" y="456" type="curve" smooth="yes"/>
			<point x="85.99719" y="456"/>
			<point x="58.99719" y="435"/>
			<point x="54.99719" y="406" type="curve" smooth="yes"/>
			<point x="37.99719" y="266"/>
			<point x="54.99719" y="153"/>
			<point x="23.99719" y="2" type="curve" smooth="yes"/>
			<point x="10.99719" y="-64"/>
			<point x="-6.00281" y="-88"/>
			<point x="-18.00281" y="-151" type="curve" smooth="yes"/>
			<point x="-33.00281" y="-226"/>
			<point x="10.99719" y="-261"/>
			<point x="53.99719" y="-261" type="curve" smooth="yes"/>
			<point x="146.99719" y="-261"/>
			<point x="176.99719" y="-144"/>
			<point x="196.99719" y="-46" type="curve" smooth="yes"/>
			<point x="223.99719" y="92"/>
			<point x="200.99719" y="207"/>
		</contour>
		<contour>
			<point x="278" y="528" type="curve" smooth="yes"/>
			<point x="186" y="528"/>
			<point x="135" y="509"/>
			<point x="119.99719" y="437" type="curve" smooth="yes"/>
			<point x="110.99719" y="388"/>
			<point x="151.99719" y="348"/>
			<point x="196.99719" y="348" type="curve" smooth="yes"/>
			<point x="235" y="348"/>
			<point x="248" y="353"/>
			<point x="266" y="353" type="curve" smooth="yes"/>
			<point x="347" y="353"/>
			<point x="411" y="302"/>
			<point x="395.99719" y="227" type="curve" smooth="yes"/>
			<point x="386.99719" y="178"/>
			<point x="346.99719" y="159"/>
			<point x="293.99719" y="159" type="curve" smooth="yes"/>
			<point x="230.99719" y="159"/>
			<point x="209.99719" y="212"/>
			<point x="164.99719" y="212" type="curve" smooth="yes"/>
			<point x="140.99719" y="212"/>
			<point x="111.99719" y="186"/>
			<point x="106.99719" y="161" type="curve" smooth="yes"/>
			<point x="88.99719" y="69"/>
			<point x="165.99719" y="-10"/>
			<point x="288.99719" y="-10" type="curve" smooth="yes"/>
			<point x="430" y="-10"/>
			<point x="550" y="81"/>
			<point x="572.99719" y="200" type="curve" smooth="yes"/>
			<point x="612" y="395"/>
			<point x="481" y="528"/>
		</contour>
	</outline>
	<anchor name="top" x="350.99782" y="515"/>
	<anchor name="bottom" x="51.99689" y="-250"/>
</glyph>
<glyph name="q" format="2">
  <advance width="630"/>
  <unicode hex="0071"/>
  <anchor x="401.553" y="-250" name="bottom"/>
  <anchor x="389.554" y="515" name="top"/>
  <outline>
    <contour>
      <point x="181.553" y="-10" type="curve" smooth="yes"/>
      <point x="265.553" y="-10"/>
      <point x="324.553" y="13"/>
      <point x="396.553" y="57" type="curve"/>
      <point x="368.553" y="71" type="line"/>
      <point x="347.553" y="-16"/>
      <point x="333.553" y="-99"/>
      <point x="325.553" y="-168" type="curve" smooth="yes"/>
      <point x="322.553" y="-202"/>
      <point x="347.553" y="-260"/>
      <point x="401.553" y="-260" type="curve" smooth="yes"/>
      <point x="451.553" y="-260"/>
      <point x="509.553" y="-233"/>
      <point x="565.553" y="-192" type="curve" smooth="yes"/>
      <point x="588.553" y="-173"/>
      <point x="606.553" y="-143"/>
      <point x="613.553" y="-110" type="curve" smooth="yes"/>
      <point x="621.553" y="-68"/>
      <point x="601.553" y="-34"/>
      <point x="565.553" y="-34" type="curve" smooth="yes"/>
      <point x="542.553" y="-34"/>
      <point x="520.553" y="-48"/>
      <point x="492.553" y="-64" type="curve"/>
      <point x="508.553" y="-78" type="line"/>
      <point x="524.553" y="32"/>
      <point x="537.553" y="89"/>
      <point x="550.553" y="151" type="curve"/>
      <point x="559.553" y="171"/>
      <point x="594.553" y="218"/>
      <point x="607.553" y="284" type="curve" smooth="yes"/>
      <point x="616.553" y="332"/>
      <point x="583.553" y="368"/>
      <point x="516.553" y="368" type="curve" smooth="yes"/>
      <point x="494.553" y="368"/>
      <point x="479.553" y="356"/>
      <point x="469.553" y="337" type="curve" smooth="yes"/>
      <point x="411.553" y="232"/>
      <point x="316.553" y="160"/>
      <point x="215.553" y="160" type="curve" smooth="yes"/>
      <point x="188.553" y="160"/>
      <point x="175.553" y="174"/>
      <point x="180.553" y="199" type="curve" smooth="yes"/>
      <point x="192" y="257"/>
      <point x="282" y="354"/>
      <point x="358.553" y="354" type="curve" smooth="yes"/>
      <point x="381.553" y="354"/>
      <point x="391.553" y="348"/>
      <point x="397.553" y="333" type="curve" smooth="yes"/>
      <point x="404.553" y="312"/>
      <point x="417.553" y="305"/>
      <point x="432.553" y="305" type="curve" smooth="yes"/>
      <point x="475.553" y="305"/>
      <point x="516.553" y="338"/>
      <point x="523.553" y="375" type="curve" smooth="yes"/>
      <point x="539.553" y="453"/>
      <point x="484" y="525"/>
      <point x="373" y="525" type="curve" smooth="yes"/>
      <point x="221" y="525"/>
      <point x="40" y="380"/>
      <point x="10" y="228" type="curve" smooth="yes"/>
      <point x="-17" y="97"/>
      <point x="34.553" y="-10"/>
    </contour>
  </outline>
</glyph>
<glyph name="r" format="2">
	<unicode hex="0072"/>
	<advance width="558"/>
	<outline>
		<contour>
			<point x="128.873409612" y="-12" type="curve" smooth="yes"/>
			<point x="174.873409612" y="-12"/>
			<point x="189.873409612" y="12"/>
			<point x="221.873409612" y="96" type="curve" smooth="yes"/>
			<point x="260.873409612" y="202"/>
			<point x="313.873409612" y="265"/>
			<point x="491.873409612" y="332" type="curve" smooth="yes"/>
			<point x="541.873409612" y="351"/>
			<point x="555.873409612" y="380"/>
			<point x="561.873409612" y="410" type="curve" smooth="yes" identifier="Fbh9m4DVYt"/>
			<point x="574.873409612" y="477"/>
			<point x="566.873409612" y="521"/>
			<point x="516.873409612" y="521" type="curve" smooth="yes"/>
			<point x="411.873409612" y="521"/>
			<point x="264.873409612" y="418"/>
			<point x="174.873409612" y="265" type="curve"/>
			<point x="253.873409612" y="303" type="line"/>
			<point x="257.873409612" y="461"/>
			<point x="226.873409612" y="511"/>
			<point x="127.873409612" y="511" type="curve" smooth="yes"/>
			<point x="95.873409612" y="511"/>
			<point x="67.873409612" y="494"/>
			<point x="62.873409612" y="468" type="curve" smooth="yes" identifier="TBpxkAIz62"/>
			<point x="58.873409612" y="449"/>
			<point x="58.873409612" y="437"/>
			<point x="68.873409612" y="403" type="curve" smooth="yes"/>
			<point x="85.873409612" y="336"/>
			<point x="79.873409612" y="254"/>
			<point x="51.873409612" y="115" type="curve" smooth="yes" identifier="4s7nmj40JV"/>
			<point x="37.873409612" y="45"/>
			<point x="76.873409612" y="-12"/>
		</contour>
	</outline>
	<anchor name="top" x="340.8740408439" y="515"/>
	<anchor name="bottom" x="123.873409612" y="0"/>
</glyph>
<glyph name="s" format="2">
	<unicode hex="0073"/>
	<advance width="537"/>
	<outline>
		<contour>
			<point x="190" y="-10" type="curve" smooth="yes"/>
			<point x="349" y="-10"/>
			<point x="460" y="34"/>
			<point x="486" y="156" type="curve" smooth="yes"/>
			<point x="518.01399" y="314.00454"/>
			<point x="246.65758" y="291.86188"/>
			<point x="220" y="338" type="curve"/>
			<point x="246" y="354"/>
			<point x="289" y="364"/>
			<point x="346" y="364" type="curve" smooth="yes"/>
			<point x="390" y="364"/>
			<point x="396" y="358"/>
			<point x="431" y="358" type="curve" smooth="yes"/>
			<point x="462.79595" y="358"/>
			<point x="487.32375" y="379.56778"/>
			<point x="494.5919" y="415" type="curve" smooth="yes"/>
			<point x="506.5919" y="475"/>
			<point x="474" y="524"/>
			<point x="374" y="525" type="curve" smooth="yes"/>
			<point x="246" y="526"/>
			<point x="87" y="490"/>
			<point x="60" y="354" type="curve" smooth="yes"/>
			<point x="26" y="194"/>
			<point x="285" y="212"/>
			<point x="327" y="178" type="curve"/>
			<point x="303" y="159"/>
			<point x="264" y="145"/>
			<point x="196" y="145" type="curve" smooth="yes"/>
			<point x="137" y="145"/>
			<point x="105.32562" y="177"/>
			<point x="65.5919" y="177" type="curve" smooth="yes"/>
			<point x="25.5919" y="177"/>
			<point x="1.5919" y="155"/>
			<point x="-5.4081" y="122" type="curve" smooth="yes"/>
			<point x="-19.4081" y="52"/>
			<point x="26" y="-10"/>
		</contour>
	</outline>
	<anchor name="top" x="313.59253" y="515"/>
	<anchor name="bottom" x="210.5919" y="0"/>
</glyph>
<glyph name="t" format="2">
	<unicode hex="0074"/>
	<advance width="503"/>
	<outline>
		<contour>
			<point x="232.5266976505" y="298" type="curve" smooth="yes" identifier="5vlDvqrHrp"/>
			<point x="254.5266976505" y="412"/>
			<point x="290.5266976505" y="490"/>
			<point x="304.5266976505" y="558" type="curve" smooth="yes" identifier="Kbx44BHBZf"/>
			<point x="327.5266976505" y="675"/>
			<point x="289.5266976505" y="716"/>
			<point x="217.5266976505" y="716" type="curve" smooth="yes"/>
			<point x="165.5266976505" y="716"/>
			<point x="141.5266976505" y="693"/>
			<point x="133.5266976505" y="654" type="curve" smooth="yes" identifier="xDD2sKO5Yp"/>
			<point x="126.5266976505" y="619"/>
			<point x="134.5266976505" y="588"/>
			<point x="122.5266976505" y="530" type="curve" smooth="yes" identifier="O6HWyVQWVl"/>
			<point x="105.5266976505" y="446"/>
			<point x="77.5266976505" y="389"/>
			<point x="57.5266976505" y="292" type="curve" smooth="yes" identifier="MIwtki3u51"/>
			<point x="21.5266976505" y="109"/>
			<point x="64.5266976505" y="-13"/>
			<point x="262.5266976505" y="-13" type="curve" smooth="yes"/>
			<point x="363.5266976505" y="-13"/>
			<point x="426.5266976505" y="40"/>
			<point x="441.5266976505" y="116" type="curve" smooth="yes" identifier="Z5Afaxq10i"/>
			<point x="450.5266976505" y="160"/>
			<point x="439.5266976505" y="181"/>
			<point x="410.5266976505" y="181" type="curve" smooth="yes"/>
			<point x="381.5266976505" y="181"/>
			<point x="360.5266976505" y="161"/>
			<point x="313.5266976505" y="161" type="curve" smooth="yes"/>
			<point x="242.5266976505" y="161"/>
			<point x="211.5266976505" y="196"/>
		</contour>
		<contour>
			<point x="213.5266976505" y="327" type="curve" smooth="yes"/>
			<point x="298.5266976505" y="358"/>
			<point x="360.5266976505" y="368"/>
			<point x="464.5266976505" y="374" type="curve" smooth="yes"/>
			<point x="490.5266976505" y="376"/>
			<point x="510.5266976505" y="398"/>
			<point x="514.5266976505" y="422" type="curve" smooth="yes" identifier="SHuYq3w3cS"/>
			<point x="525.5266976505" y="477"/>
			<point x="480.5266976505" y="525"/>
			<point x="410.5266976505" y="525" type="curve" smooth="yes"/>
			<point x="353.5266976505" y="525"/>
			<point x="277.5266976505" y="512"/>
			<point x="217.5266976505" y="492" type="curve" smooth="yes"/>
			<point x="151.5266976505" y="469"/>
			<point x="138.5266976505" y="433"/>
			<point x="129.5266976505" y="391" type="curve" smooth="yes" identifier="oLgpn1De05"/>
			<point x="119.5266976505" y="338"/>
			<point x="147.5266976505" y="302"/>
		</contour>
	</outline>
	<anchor name="top" x="240.5275556356" y="700"/>
	<anchor name="bottom" x="221.5266976505" y="0"/>
</glyph>
<glyph name="u" format="2">
	<unicode hex="0075"/>
	<advance width="655"/>
	<outline>
		<contour>
			<point x="296.1663119093" y="-10" type="curve" smooth="yes"/>
			<point x="437.1663119093" y="-10"/>
			<point x="574.1663119093" y="118"/>
			<point x="627.1663119093" y="383" type="curve" smooth="yes" identifier="ldAGENlwLm"/>
			<point x="645.1663119093" y="473"/>
			<point x="615.1663119093" y="517"/>
			<point x="550.1663119093" y="517" type="curve" smooth="yes"/>
			<point x="496.1663119093" y="517"/>
			<point x="476.1663119093" y="488"/>
			<point x="466.1663119093" y="439" type="curve" smooth="yes" identifier="UodS3qPkoM"/>
			<point x="459.1663119093" y="407"/>
			<point x="458.1663119093" y="382"/>
			<point x="450.1663119093" y="342" type="curve" smooth="yes" identifier="PjwBY6Wjqc"/>
			<point x="433.1663119093" y="256"/>
			<point x="382.1663119093" y="165"/>
			<point x="319.1663119093" y="165" type="curve" smooth="yes"/>
			<point x="269.1663119093" y="165"/>
			<point x="222.1663119093" y="245"/>
			<point x="236.1663119093" y="317" type="curve" smooth="yes" identifier="0K3R9UL5PV"/>
			<point x="243.1663119093" y="350"/>
			<point x="272.1663119093" y="386"/>
			<point x="277.1663119093" y="411" type="curve" smooth="yes" identifier="4uwtWq25co"/>
			<point x="289.1663119093" y="468"/>
			<point x="246.1663119093" y="518"/>
			<point x="190.1663119093" y="518" type="curve" smooth="yes"/>
			<point x="164.1663119093" y="518"/>
			<point x="140.1663119093" y="501"/>
			<point x="128.1663119093" y="479" type="curve" smooth="yes"/>
			<point x="95.1663119093" y="425"/>
			<point x="75.1663119093" y="376"/>
			<point x="63.1663119093" y="317" type="curve" smooth="yes" identifier="wNMPKJm6iY"/>
			<point x="36.1663119093" y="181"/>
			<point x="115.1663119093" y="-10"/>
		</contour>
	</outline>
	<anchor name="top" x="394.1669431412" y="515"/>
	<anchor name="bottom" x="291.1663119093" y="0"/>
	<anchor name="ogonek" x="364.1663180378" y="5"/>
</glyph>
<glyph name="v" format="2">
	<unicode hex="0076"/>
	<advance width="632"/>
	<outline>
		<contour>
			<point x="155.9382336507" y="67" type="curve" smooth="yes"/>
			<point x="180.9382336507" y="13"/>
			<point x="209.9382336507" y="-10"/>
			<point x="260.9382336507" y="-10" type="curve" smooth="yes"/>
			<point x="291.9382336507" y="-10"/>
			<point x="309.9382336507" y="3"/>
			<point x="331.9382336507" y="39" type="curve" smooth="yes"/>
			<point x="425.9382336507" y="189"/>
			<point x="510.9382336507" y="241"/>
			<point x="618.9382336507" y="369" type="curve" smooth="yes"/>
			<point x="627.9382336507" y="380"/>
			<point x="635.9382336507" y="396"/>
			<point x="638.9382336507" y="412" type="curve" smooth="yes" identifier="ifyXj1VK9l"/>
			<point x="649.9382336507" y="467"/>
			<point x="613.9382336507" y="526"/>
			<point x="576.9382336507" y="526" type="curve" smooth="yes"/>
			<point x="549.9382336507" y="526"/>
			<point x="534.9382336507" y="522"/>
			<point x="511.9382336507" y="498" type="curve" smooth="yes"/>
			<point x="417.9382336507" y="403"/>
			<point x="332.9382336507" y="324"/>
			<point x="254.9382336507" y="200" type="curve"/>
			<point x="301.9382336507" y="190" type="line"/>
			<point x="287.9382336507" y="256"/>
			<point x="273.9382336507" y="327"/>
			<point x="263.9382336507" y="392" type="curve" smooth="yes"/>
			<point x="252.9382336507" y="463"/>
			<point x="213.9382336507" y="524"/>
			<point x="124.9382336507" y="524" type="curve" smooth="yes"/>
			<point x="89.9382336507" y="524"/>
			<point x="66.9382336507" y="502"/>
			<point x="61.9382336507" y="474" type="curve" smooth="yes" identifier="M9GOmQd19r"/>
			<point x="48.9382336507" y="411"/>
			<point x="81.9382336507" y="374"/>
			<point x="104.9382336507" y="252" type="curve" smooth="yes"/>
			<point x="115.9382336507" y="197"/>
			<point x="137.9382336507" y="108"/>
		</contour>
	</outline>
	<anchor name="top" x="356.9388648826" y="515"/>
	<anchor name="bottom" x="253.9382336507" y="0"/>
</glyph>
<glyph name="w" format="2">
	<unicode hex="0077"/>
	<advance width="917"/>
	<outline>
		<contour>
			<point x="214.9519827136" y="469" type="curve" smooth="yes"/>
			<point x="199.9519827136" y="517"/>
			<point x="178.9519827136" y="529"/>
			<point x="134.9519827136" y="529" type="curve" smooth="yes"/>
			<point x="70.9519827136" y="529"/>
			<point x="14.9519827136" y="480"/>
			<point x="41.9519827136" y="405" type="curve" smooth="yes"/>
			<point x="55.9519827136" y="359"/>
			<point x="60.9519827136" y="298"/>
			<point x="68.9519827136" y="182" type="curve" smooth="yes"/>
			<point x="79.9519827136" y="45"/>
			<point x="117.9519827136" y="-15"/>
			<point x="198.9519827136" y="-15" type="curve" smooth="yes"/>
			<point x="238.9519827136" y="-15"/>
			<point x="283.9519827136" y="16"/>
			<point x="319.9519827136" y="72" type="curve" smooth="yes"/>
			<point x="394.9519827136" y="183"/>
			<point x="421.9519827136" y="286"/>
			<point x="481.9519827136" y="351" type="curve" smooth="yes"/>
			<point x="512.9519827136" y="382"/>
			<point x="437.9519827136" y="377"/>
			<point x="455.9519827136" y="352" type="curve" smooth="yes"/>
			<point x="482.9519827136" y="311"/>
			<point x="470.9519827136" y="189"/>
			<point x="513.9519827136" y="82" type="curve" smooth="yes"/>
			<point x="542.9519827136" y="11"/>
			<point x="577.9519827136" y="-13"/>
			<point x="627.9519827136" y="-13" type="curve" smooth="yes"/>
			<point x="671.9519827136" y="-13"/>
			<point x="732.9519827136" y="19"/>
			<point x="795.9519827136" y="157" type="curve" smooth="yes"/>
			<point x="834.9519827136" y="238"/>
			<point x="856.9519827136" y="315"/>
			<point x="915.9519827136" y="373" type="curve" smooth="yes"/>
			<point x="933.9519827136" y="391"/>
			<point x="948.9519827136" y="411"/>
			<point x="952.9519827136" y="432" type="curve" smooth="yes" identifier="B485PL6o5g"/>
			<point x="962.9519827136" y="481"/>
			<point x="928.9519827136" y="528"/>
			<point x="880.9519827136" y="528" type="curve" smooth="yes"/>
			<point x="825.9519827136" y="528"/>
			<point x="780.9519827136" y="479"/>
			<point x="756.9519827136" y="442" type="curve" smooth="yes"/>
			<point x="709.9519827136" y="367"/>
			<point x="673.9519827136" y="215"/>
			<point x="615.9519827136" y="160" type="curve" smooth="yes"/>
			<point x="579.9519827136" y="126"/>
			<point x="726.9519827136" y="147"/>
			<point x="673.9519827136" y="172" type="curve" smooth="yes"/>
			<point x="619.9519827136" y="199"/>
			<point x="639.9519827136" y="259"/>
			<point x="616.9519827136" y="381" type="curve" smooth="yes"/>
			<point x="599.9519827136" y="471"/>
			<point x="569.9519827136" y="526"/>
			<point x="495.9519827136" y="526" type="curve" smooth="yes"/>
			<point x="425.9519827136" y="526"/>
			<point x="379.9519827136" y="466"/>
			<point x="323.9519827136" y="368" type="curve" smooth="yes"/>
			<point x="260.9519827136" y="260"/>
			<point x="252.9519827136" y="228"/>
			<point x="196.9519827136" y="162" type="curve" smooth="yes"/>
			<point x="177.9519827136" y="141"/>
			<point x="279.9519827136" y="139"/>
			<point x="261.9519827136" y="163" type="curve" smooth="yes"/>
			<point x="208.9519827136" y="233"/>
			<point x="241.9519827136" y="375"/>
		</contour>
	</outline>
	<anchor name="top" x="495.9526139455" y="515"/>
	<anchor name="bottom" x="392.9519827136" y="0"/>
</glyph>
<glyph name="x" format="2">
	<unicode hex="0078"/>
	<advance width="589"/>
	<outline>
		<contour>
			<point x="530.6301652893" y="365" type="curve" smooth="yes"/>
			<point x="559.6301652893" y="381"/>
			<point x="584.6301652893" y="403"/>
			<point x="591.6301652893" y="439" type="curve" smooth="yes" identifier="OaySivMKCV"/>
			<point x="602.6301652893" y="495"/>
			<point x="573.6301652893" y="525"/>
			<point x="531.6301652893" y="525" type="curve" smooth="yes"/>
			<point x="502.6301652893" y="525"/>
			<point x="463.6301652893" y="513"/>
			<point x="422.6301652893" y="490" type="curve" smooth="yes"/>
			<point x="246.6301652893" y="390"/>
			<point x="94.6301652893" y="230"/>
			<point x="24.6301652893" y="113" type="curve" smooth="yes"/>
			<point x="-29.3698347107" y="25"/>
			<point x="-8.3698347107" y="-17"/>
			<point x="43.6301652893" y="-17" type="curve" smooth="yes"/>
			<point x="80.6301652893" y="-17"/>
			<point x="113.6301652893" y="0"/>
			<point x="155.6301652893" y="48" type="curve" smooth="yes"/>
			<point x="264.6301652893" y="172"/>
			<point x="390.6301652893" y="290"/>
		</contour>
		<contour>
			<point x="497.6301652893" y="146" type="curve" smooth="yes"/>
			<point x="450.6301652893" y="235"/>
			<point x="301.6301652893" y="433"/>
			<point x="240.6301652893" y="486" type="curve" smooth="yes"/>
			<point x="208.6301652893" y="516"/>
			<point x="188.6301652893" y="525"/>
			<point x="161.6301652893" y="525" type="curve" smooth="yes"/>
			<point x="116.6301652893" y="525"/>
			<point x="83.6301652893" y="488"/>
			<point x="73.6301652893" y="441" type="curve" smooth="yes" identifier="unhiNBVoHy"/>
			<point x="65.6301652893" y="398"/>
			<point x="82.6301652893" y="380"/>
			<point x="111.6301652893" y="353" type="curve" smooth="yes"/>
			<point x="191.6301652893" y="277"/>
			<point x="298.6301652893" y="145"/>
			<point x="346.6301652893" y="46" type="curve" smooth="yes"/>
			<point x="370.6301652893" y="-2"/>
			<point x="398.6301652893" y="-16"/>
			<point x="436.6301652893" y="-16" type="curve" smooth="yes"/>
			<point x="482.6301652893" y="-16"/>
			<point x="516.6301652893" y="5"/>
			<point x="523.6301652893" y="42" type="curve" smooth="yes" identifier="lf6dmEcWoI"/>
			<point x="527.6301652893" y="61"/>
			<point x="527.6301652893" y="88"/>
		</contour>
	</outline>
	<anchor name="top" x="325.6307965211" y="515"/>
	<anchor name="bottom" x="236.6301652893" y="0"/>
</glyph>
<glyph name="y" format="2">
	<unicode hex="0079"/>
	<advance width="623"/>
	<outline>
		<contour>
			<point x="269.9873793748" y="435" type="curve" smooth="yes" identifier="P9eUEw5zlQ"/>
			<point x="278.9873793748" y="479"/>
			<point x="258.9873793748" y="523"/>
			<point x="181.9873793748" y="523" type="curve" smooth="yes"/>
			<point x="124.9873793748" y="523"/>
			<point x="84.9873793748" y="494"/>
			<point x="54.9873793748" y="343" type="curve" smooth="yes" identifier="7vfsEqGcqG"/>
			<point x="17.9873793748" y="158"/>
			<point x="87.9873793748" y="78"/>
			<point x="229.9873793748" y="78" type="curve" smooth="yes"/>
			<point x="284.9873793748" y="78"/>
			<point x="365.9873793748" y="100"/>
			<point x="442.9873793748" y="205" type="curve" smooth="yes"/>
			<point x="461.9873793748" y="232"/>
			<point x="401.9873793748" y="255"/>
			<point x="398.9873793748" y="241" type="curve" smooth="yes" identifier="tdrre7BGCI"/>
			<point x="380.9873793748" y="149"/>
			<point x="375.9873793748" y="99"/>
			<point x="354.9873793748" y="-5" type="curve" smooth="yes" identifier="TjISAAdgz5"/>
			<point x="344.9873793748" y="-57"/>
			<point x="315.9873793748" y="-84"/>
			<point x="253.9873793748" y="-84" type="curve" smooth="yes"/>
			<point x="134.9873793748" y="-84"/>
			<point x="122.9873793748" y="-44"/>
			<point x="75.9873793748" y="-44" type="curve" smooth="yes"/>
			<point x="35.9873793748" y="-44"/>
			<point x="8.9873793748" y="-67"/>
			<point x="-0.0126206252" y="-110" type="curve" smooth="yes" identifier="ZJgrNwbzmT"/>
			<point x="-17.0126206252" y="-196"/>
			<point x="35.9873793748" y="-261"/>
			<point x="224.9873793748" y="-261" type="curve" smooth="yes"/>
			<point x="366.9873793748" y="-261"/>
			<point x="487.9873793748" y="-177"/>
			<point x="521.9873793748" y="-5" type="curve" smooth="yes" identifier="FiHKSptHVe"/>
			<point x="559.9873793748" y="186"/>
			<point x="526.9873793748" y="232"/>
			<point x="579.9873793748" y="400" type="curve" smooth="yes"/>
			<point x="604.9873793748" y="480"/>
			<point x="561.9873793748" y="522"/>
			<point x="501.9873793748" y="522" type="curve" smooth="yes"/>
			<point x="457.9873793748" y="522"/>
			<point x="437.9873793748" y="503"/>
			<point x="423.9873793748" y="460" type="curve" smooth="yes"/>
			<point x="388.9873793748" y="351"/>
			<point x="324.9873793748" y="253"/>
			<point x="254.9873793748" y="253" type="curve" smooth="yes"/>
			<point x="183.9873793748" y="253"/>
			<point x="256.9873793748" y="371"/>
		</contour>
	</outline>
	<anchor name="top" x="350.9880106067" y="515"/>
	<anchor name="bottom" x="217.9870729516" y="-250"/>
</glyph>
<glyph name="z" format="2">
	<unicode hex="007A"/>
	<advance width="625"/>
	<outline>
		<contour>
			<point x="141.9537484938" y="504" type="curve" smooth="yes"/>
			<point x="98.9537484938" y="495"/>
			<point x="83.9537484938" y="473"/>
			<point x="76.9537484938" y="440" type="curve" smooth="yes" identifier="7IqUXjInRk"/>
			<point x="65.9537484938" y="385"/>
			<point x="94.9537484938" y="332"/>
			<point x="133.9537484938" y="332" type="curve" smooth="yes"/>
			<point x="164.9537484938" y="332"/>
			<point x="222.9537484938" y="355"/>
			<point x="321.9537484938" y="355" type="curve" smooth="yes"/>
			<point x="379.9537484938" y="355"/>
			<point x="391.9537484938" y="350"/>
			<point x="416.9537484938" y="336" type="curve"/>
			<point x="384.9537484938" y="387" type="line"/>
			<point x="345.9537484938" y="331"/>
			<point x="284.9537484938" y="285"/>
			<point x="101.9537484938" y="235" type="curve" smooth="yes"/>
			<point x="66.9537484938" y="226"/>
			<point x="32.9537484938" y="198"/>
			<point x="18.9537484938" y="130" type="curve" smooth="yes" identifier="B6HLVFWR2F"/>
			<point x="3.9537484938" y="57"/>
			<point x="26.9537484938" y="-10"/>
			<point x="169.9537484938" y="-10" type="curve" smooth="yes"/>
			<point x="264.9537484938" y="-10"/>
			<point x="388.9537484938" y="0"/>
			<point x="468.9537484938" y="0" type="curve" smooth="yes"/>
			<point x="513.9537484938" y="0"/>
			<point x="537.9537484938" y="24"/>
			<point x="544.9537484938" y="60" type="curve" smooth="yes" identifier="GEEZaTy2k5"/>
			<point x="556.9537484938" y="121"/>
			<point x="529.9537484938" y="172"/>
			<point x="465.9537484938" y="172" type="curve" smooth="yes"/>
			<point x="371.9537484938" y="172"/>
			<point x="307.9537484938" y="156"/>
			<point x="232.9537484938" y="156" type="curve" smooth="yes"/>
			<point x="227.9537484938" y="156"/>
			<point x="229.9537484938" y="165"/>
			<point x="239.9537484938" y="180" type="curve"/>
			<point x="181.9537484938" y="150" type="line"/>
			<point x="438.9537484938" y="201"/>
			<point x="534.9537484938" y="314"/>
			<point x="546.9537484938" y="374" type="curve" smooth="yes" identifier="lp5rr6He6H"/>
			<point x="561.9537484938" y="449"/>
			<point x="530.9537484938" y="524"/>
			<point x="378.9537484938" y="524" type="curve" smooth="yes"/>
			<point x="302.9537484938" y="524"/>
			<point x="220.9537484938" y="517"/>
		</contour>
	</outline>
	<anchor name="top" x="348.9543797257" y="515"/>
	<anchor name="bottom" x="245.9537484938" y="0"/>
</glyph>
